<svg width="450" height="209" viewBox="0 0 450 209" fill="none" xmlns="http://www.w3.org/2000/svg">
<mask id="mask0_262_3956" style="mask-type:alpha" maskUnits="userSpaceOnUse" x="0" y="0" width="450" height="209">
<path d="M450 0H0V208.333H450V0Z" fill="white"/>
</mask>
<g mask="url(#mask0_262_3956)">
<path d="M181.571 188.371C224.896 187.842 268.5 187.983 311.829 188.371C372.375 188.912 435.454 192.754 495.667 197.208C501.846 197.667 543.821 201.604 545.2 203.554C547.954 207.446 541.137 208.717 538.462 209.287C504.067 216.629 459.408 215.008 423.708 216.171C302.029 220.137 178.904 220.383 57.404 214.967C33.2373 213.887 -6.596 215.246 -28.4627 207.667C-29.6127 207.271 -32.4918 207.971 -31.4418 205.458C-30.1043 202.258 -24.0585 201.992 -20.871 201.383C3.92483 196.633 34.5748 197.092 60.1165 195.912C100.417 194.054 141.083 188.862 181.567 188.371H181.571Z" fill="#E47728"/>
<path d="M88.5833 113.071C87.9083 116.554 87.4957 120.275 87.0332 123.808C86.5332 127.638 86.7666 134.488 83.9707 137.254C82.7374 138.475 80.6124 138.588 79.0166 139.375C75.4916 141.117 73.5832 143.971 72.6624 147.667C77.1249 148.946 80.9041 149.3 85.3916 147.917C90.3332 146.392 93.7791 141.963 99.1208 141.4C111.975 140.05 111.446 151.1 118.762 157.296C123.471 161.283 130.454 162.083 136.087 159.696L141.85 156.321C141.875 156.267 141.825 156.179 141.85 156.125L142.046 155.733C142.254 155.217 142.546 154.825 142.733 154.158C144.262 148.675 142.258 142.908 137.954 139.321C138.875 137.983 139.629 136.188 139.862 134.579C139.937 134.067 140.092 132.421 140.079 131.946C136.554 132.079 133.292 132.013 130.058 130.471C121.175 126.238 121.533 115.454 109.462 113.525C103.371 112.55 98.3999 115.921 92.1666 114.113C91.0124 113.775 89.7208 112.867 88.5833 113.079V113.071Z" fill="#A0D92A"/>
<path d="M88.5832 113.071C89.7249 112.858 91.0124 113.771 92.1665 114.104C98.3999 115.917 103.367 112.546 109.462 113.517C121.537 115.446 121.179 126.229 130.058 130.462C133.296 132.004 136.554 132.071 140.079 131.937C139.987 127.717 137.421 123.471 133.725 121.487C131.742 120.421 129.583 120.392 127.887 118.679C125.821 116.587 123.696 107.887 122.287 104.625C118.462 95.7791 110.075 90.3916 100.504 94.4249C93.0624 97.5583 90.0165 105.683 88.5832 113.071Z" fill="#A0D92A"/>
<path d="M72.6624 147.663C71.1999 153.525 72.6291 158.996 77.7124 162.563C83.2249 166.433 89.9041 165.2 96.0541 163.779C96.0207 163.754 95.9832 163.313 95.6749 163.083C95.1957 162.733 93.5166 161.792 93.3249 161.5C93.0374 161.067 93.0416 160.217 93.4999 159.946C94.6832 159.242 97.8291 161.958 99.5957 162.013C100.596 162.042 101.358 161.383 102.346 161.421C102.292 161.217 102.379 160.925 102.162 160.729L94.0832 152.292C93.2791 151.079 94.2666 149.738 95.6041 150.167C96.7332 150.529 100.975 153.904 102.333 154.85C102.729 155.125 104.883 157.1 105.292 156.704L106.475 144.817C106.562 143.842 109.108 144.758 109.225 145.404L108.637 161.817C109.1 162.246 112.15 160.204 112.396 160.046C113.308 159.45 113.904 159.167 114.404 159.542C115.596 160.438 114.037 161.533 113.258 162.421C113.037 162.671 112.446 163.125 112.396 163.188C122.292 163.6 136.525 167.488 141.854 156.317L136.092 159.692C130.458 162.079 123.475 161.279 118.767 157.292C111.45 151.096 111.979 140.046 99.1249 141.396C93.7832 141.958 90.3374 146.388 85.3957 147.913C80.9082 149.3 77.1291 148.942 72.6666 147.663H72.6624Z" fill="#62B529"/>
<path d="M115.396 158.883C114.346 157.458 109.096 162.242 108.633 161.813L109.221 145.4C109.104 144.754 106.558 143.838 106.471 144.813L105.287 156.7C104.879 157.096 102.721 155.117 102.329 154.846C100.971 153.9 96.729 150.529 95.5999 150.163C94.2624 149.733 93.2707 151.075 94.079 152.288L102.158 160.725C102.375 160.921 102.287 161.213 102.342 161.417C102.554 162.183 102.604 162.746 102.537 163.579C102.342 163.779 100.467 162.754 100.108 162.563C99.8332 162.417 99.4874 162.483 99.5915 162.008C97.8249 161.958 94.679 159.238 93.4957 159.942C93.0374 160.217 93.0332 161.063 93.3207 161.496C93.5124 161.788 95.1915 162.729 95.6707 163.079C95.9832 163.308 96.0207 163.75 96.0499 163.775C96.1082 163.817 96.6082 163.788 96.904 163.996C98.6124 165.213 100.308 166.458 102.104 167.546L102.158 167.796L100.35 197.138C99.7707 199.904 97.3165 206.104 97.3165 206.104C103.592 206.046 110.412 206.021 116.687 206.104L110.242 198.104L109.017 171.338L109.35 170.883C110.829 170.013 121.071 166.842 121.504 166.133C122.025 165.283 121.287 164.508 120.329 164.55C117.608 164.671 113.533 166.217 110.637 166.671C110.292 166.725 109.954 166.742 109.608 166.721C110.55 165.783 111.287 164.658 112.154 163.667C112.437 163.342 116.271 160.079 115.387 158.879L115.396 158.883Z" fill="#BE6632"/>
<path d="M141.85 156.117C141.904 155.996 141.979 155.896 142.046 155.725L141.85 156.117Z" fill="#046743"/>
<path d="M99.5874 162.013C99.4832 162.488 99.8291 162.421 100.104 162.567C100.467 162.758 102.337 163.788 102.533 163.583C102.6 162.75 102.55 162.188 102.337 161.421C101.35 161.379 100.587 162.038 99.5874 162.013Z" fill="#FBE2AF"/>
<path d="M164.05 125.988C163.554 128.534 163.254 131.259 162.917 133.838C162.55 136.638 162.721 141.651 160.675 143.672C159.771 144.563 158.221 144.647 157.05 145.222C154.471 146.492 153.079 148.584 152.404 151.284C155.667 152.217 158.429 152.48 161.713 151.467C165.325 150.351 167.846 147.113 171.75 146.701C181.15 145.713 180.763 153.797 186.113 158.326C189.554 161.242 194.663 161.826 198.783 160.08L203 157.609C203.017 157.572 202.983 157.505 203 157.467L203.142 157.18C203.292 156.801 203.508 156.513 203.642 156.03C204.758 152.022 203.296 147.801 200.146 145.18C200.817 144.205 201.371 142.888 201.542 141.713C201.596 141.338 201.708 140.134 201.7 139.788C199.121 139.884 196.738 139.834 194.371 138.709C187.875 135.613 188.138 127.73 179.308 126.317C174.854 125.605 171.221 128.072 166.663 126.747C165.817 126.501 164.875 125.834 164.042 125.988H164.05Z" fill="#A0D92A"/>
<path d="M164.05 125.988C164.883 125.834 165.825 126.501 166.671 126.746C171.229 128.071 174.863 125.605 179.317 126.317C188.146 127.73 187.883 135.613 194.379 138.709C196.746 139.838 199.129 139.884 201.708 139.788C201.642 136.701 199.767 133.596 197.063 132.146C195.613 131.367 194.033 131.346 192.792 130.092C191.279 128.563 189.725 122.201 188.696 119.813C185.9 113.342 179.767 109.405 172.767 112.355C167.325 114.646 165.1 120.588 164.05 125.988Z" fill="#A0D92A"/>
<path d="M152.404 151.288C151.333 155.575 152.379 159.575 156.096 162.184C160.129 165.017 165.013 164.113 169.508 163.071C169.483 163.055 169.458 162.73 169.229 162.563C168.879 162.305 167.65 161.617 167.508 161.405C167.3 161.088 167.3 160.467 167.638 160.267C168.504 159.75 170.804 161.738 172.096 161.775C172.829 161.796 173.383 161.317 174.108 161.346C174.067 161.196 174.133 160.984 173.971 160.842L168.063 154.671C167.475 153.784 168.196 152.8 169.175 153.117C170 153.384 173.1 155.85 174.096 156.542C174.383 156.742 175.963 158.188 176.258 157.9L177.125 149.205C177.188 148.492 179.05 149.163 179.138 149.634L178.708 161.634C179.046 161.946 181.279 160.455 181.458 160.338C182.125 159.9 182.563 159.696 182.929 159.971C183.8 160.625 182.663 161.43 182.092 162.075C181.929 162.259 181.5 162.592 181.458 162.634C188.696 162.934 199.104 165.78 203 157.609L198.783 160.08C194.663 161.825 189.554 161.242 186.113 158.325C180.763 153.796 181.15 145.713 171.75 146.7C167.846 147.109 165.325 150.35 161.713 151.467C158.429 152.48 155.667 152.221 152.404 151.284V151.288Z" fill="#62B529"/>
<path d="M183.658 159.492C182.892 158.45 179.05 161.95 178.713 161.634L179.142 149.634C179.054 149.163 177.196 148.492 177.129 149.205L176.263 157.9C175.967 158.188 174.388 156.742 174.1 156.542C173.104 155.85 170.004 153.384 169.179 153.117C168.2 152.8 167.475 153.784 168.067 154.671L173.975 160.842C174.133 160.984 174.071 161.2 174.113 161.346C174.267 161.905 174.304 162.317 174.254 162.925C174.113 163.071 172.742 162.321 172.475 162.18C172.275 162.071 172.021 162.121 172.096 161.775C170.804 161.738 168.504 159.75 167.638 160.267C167.304 160.467 167.3 161.088 167.508 161.405C167.65 161.617 168.875 162.305 169.229 162.563C169.458 162.73 169.483 163.055 169.508 163.071C169.55 163.1 169.917 163.08 170.133 163.234C171.383 164.121 172.625 165.034 173.933 165.83L173.975 166.013L172.654 187.471C172.229 189.492 170.438 194.03 170.438 194.03C175.029 193.984 180.013 193.971 184.604 194.03L179.892 188.18L178.996 168.605L179.242 168.271C180.321 167.634 187.813 165.317 188.129 164.796C188.508 164.175 187.971 163.609 187.271 163.638C185.283 163.725 182.3 164.859 180.183 165.188C179.933 165.225 179.683 165.242 179.429 165.221C180.121 164.538 180.658 163.713 181.292 162.988C181.5 162.75 184.304 160.363 183.658 159.488V159.492Z" fill="#BE6632"/>
<path d="M203 157.467C203.038 157.38 203.096 157.305 203.142 157.18L203 157.467Z" fill="#046743"/>
<path d="M172.096 161.78C172.021 162.126 172.271 162.076 172.475 162.184C172.738 162.326 174.108 163.076 174.254 162.93C174.304 162.322 174.267 161.909 174.113 161.351C173.388 161.322 172.833 161.805 172.1 161.78H172.096Z" fill="#FBE2AF"/>
<path d="M451.404 40.3998C452.512 46.1082 453.187 52.2123 453.942 57.9998C454.758 64.2748 454.379 75.5082 458.962 80.0415C460.987 82.0415 464.467 82.2249 467.087 83.5165C472.867 86.3665 475.992 91.0498 477.5 97.1082C470.187 99.204 463.992 99.7873 456.633 97.5165C448.533 95.0123 442.883 87.754 434.129 86.8332C413.058 84.6207 413.925 102.733 401.933 112.892C394.217 119.425 382.767 120.742 373.529 116.825L364.083 111.292C364.042 111.204 364.125 111.058 364.083 110.971L363.762 110.325C363.425 109.475 362.942 108.833 362.637 107.746C360.129 98.7582 363.417 89.304 370.471 83.4248C368.962 81.2373 367.725 78.2915 367.337 75.654C367.217 74.8165 366.962 72.1124 366.979 71.3374C372.758 71.554 378.104 71.4415 383.408 68.9165C397.967 61.979 397.383 44.2999 417.175 41.1374C427.162 39.5415 435.308 45.0665 445.525 42.0998C447.421 41.5498 449.533 40.054 451.4 40.404L451.404 40.3998Z" fill="#A0D92A"/>
<path d="M451.404 40.3999C449.533 40.0499 447.421 41.5457 445.529 42.0957C435.313 45.0624 427.167 39.5374 417.179 41.1332C397.387 44.2957 397.975 61.9749 383.413 68.9124C378.108 71.4415 372.763 71.5499 366.983 71.3332C367.138 64.4124 371.338 57.4582 377.4 54.1999C380.654 52.454 384.192 52.404 386.971 49.5915C390.358 46.1624 393.842 31.8999 396.154 26.554C402.425 12.0499 416.171 3.22487 431.862 9.8332C444.058 14.9707 449.054 28.2874 451.404 40.3957V40.3999Z" fill="#A0D92A"/>
<path d="M477.504 97.1126C479.904 106.725 477.562 115.688 469.229 121.542C460.192 127.888 449.242 125.863 439.162 123.533C439.217 123.496 439.275 122.767 439.787 122.392C440.575 121.817 443.325 120.275 443.642 119.796C444.112 119.083 444.108 117.696 443.354 117.246C441.412 116.092 436.258 120.546 433.362 120.629C431.721 120.675 430.471 119.596 428.85 119.663C428.942 119.329 428.796 118.85 429.154 118.529L442.396 104.696C443.717 102.708 442.092 100.504 439.9 101.213C438.046 101.808 431.1 107.338 428.867 108.888C428.221 109.338 424.683 112.579 424.017 111.929L422.079 92.4376C421.937 90.8376 417.767 92.3418 417.571 93.4001L418.537 120.304C417.779 121.008 412.775 117.663 412.375 117.4C410.879 116.425 409.904 115.958 409.079 116.575C407.125 118.042 409.679 119.842 410.958 121.292C411.321 121.704 412.287 122.45 412.375 122.546C396.154 123.221 372.825 129.596 364.087 111.283L373.533 116.817C382.771 120.733 394.221 119.417 401.937 112.883C413.929 102.729 413.062 84.6126 434.133 86.8251C442.887 87.7459 448.537 95.0043 456.637 97.5084C463.996 99.7834 470.192 99.1959 477.504 97.1001V97.1126Z" fill="#62B529"/>
<path d="M407.45 115.504C409.171 113.167 417.779 121.012 418.538 120.308L417.571 93.4041C417.763 92.3458 421.938 90.8416 422.079 92.4416L424.017 111.933C424.683 112.579 428.221 109.337 428.867 108.892C431.096 107.342 438.046 101.812 439.9 101.217C442.092 100.512 443.717 102.712 442.396 104.7L429.154 118.533C428.796 118.854 428.942 119.333 428.85 119.667C428.504 120.921 428.421 121.846 428.529 123.208C428.85 123.537 431.921 121.854 432.513 121.542C432.967 121.3 433.533 121.412 433.358 120.633C436.254 120.55 441.413 116.092 443.35 117.25C444.1 117.696 444.104 119.087 443.638 119.8C443.321 120.279 440.571 121.821 439.783 122.396C439.275 122.767 439.213 123.5 439.158 123.537C439.063 123.608 438.246 123.554 437.758 123.904C434.954 125.896 432.175 127.942 429.238 129.725L429.146 130.133L432.108 178.233C433.058 182.767 437.079 192.933 437.079 192.933C426.792 192.833 415.613 192.8 405.325 192.933L415.892 179.817L417.9 135.942L417.35 135.196C414.925 133.771 398.137 128.571 397.425 127.408C396.571 126.017 397.779 124.746 399.35 124.817C403.808 125.012 410.492 127.55 415.233 128.292C415.796 128.379 416.358 128.408 416.925 128.371C415.379 126.833 414.171 124.992 412.75 123.362C412.283 122.829 406 117.483 407.446 115.512L407.45 115.504Z" fill="#BE6632"/>
<path d="M364.083 110.967C363.996 110.771 363.875 110.604 363.763 110.321L364.083 110.967Z" fill="#046743"/>
<path d="M433.358 120.633C433.529 121.412 432.962 121.3 432.512 121.542C431.921 121.854 428.85 123.542 428.529 123.208C428.421 121.846 428.504 120.921 428.85 119.667C430.471 119.6 431.721 120.679 433.362 120.633H433.358Z" fill="#FBE2AF"/>
<path d="M51.1165 82.3377C52.0165 86.9835 52.5707 91.9543 53.1832 96.6668C53.8499 101.775 53.5415 110.921 57.2749 114.613C58.9207 116.242 61.754 116.388 63.8915 117.442C68.5957 119.763 71.1415 123.575 72.3707 128.508C66.4165 130.213 61.3707 130.692 55.379 128.838C48.7832 126.8 44.1832 120.888 37.054 120.138C19.8957 118.333 20.604 133.083 10.8374 141.354C4.55404 146.675 -4.76679 147.746 -12.2876 144.558L-19.9793 140.05C-20.0126 139.979 -19.946 139.863 -19.9793 139.788L-20.2418 139.263C-20.5168 138.571 -20.9085 138.05 -21.1585 137.163C-23.2001 129.846 -20.5251 122.146 -14.7793 117.358C-16.0085 115.575 -17.0126 113.179 -17.3293 111.029C-17.4293 110.346 -17.6335 108.146 -17.621 107.517C-12.9168 107.692 -8.56263 107.604 -4.24596 105.546C7.60821 99.896 7.1332 85.5043 23.2457 82.9293C31.379 81.6293 38.0082 86.1293 46.329 83.7127C47.8707 83.2627 49.5915 82.046 51.1124 82.3335L51.1165 82.3377Z" fill="#A0D92A"/>
<path d="M51.1165 82.3376C49.5957 82.0542 47.8748 83.2709 46.3332 83.7167C38.0165 86.1334 31.3832 81.6334 23.2498 82.9334C7.13735 85.5084 7.61234 99.9001 -4.24182 105.55C-8.55849 107.608 -12.9127 107.696 -17.6168 107.521C-17.4918 101.883 -14.071 96.2209 -9.13349 93.5709C-6.48349 92.1501 -3.60432 92.1084 -1.34182 89.8209C1.41651 87.0292 4.25401 75.4167 6.13318 71.0626C11.2373 59.2542 22.4332 52.0667 35.2082 57.4501C45.1373 61.6334 49.204 72.4751 51.1165 82.3376Z" fill="#A0D92A"/>
<path d="M72.3707 128.513C74.3249 136.338 72.4165 143.638 65.6332 148.404C58.2749 153.571 49.3624 151.921 41.1499 150.025C41.1915 149.996 41.2415 149.4 41.6582 149.096C42.2999 148.629 44.5374 147.371 44.7957 146.983C45.179 146.404 45.1749 145.275 44.5624 144.908C42.9832 143.967 38.7832 147.596 36.4249 147.667C35.0874 147.704 34.0707 146.825 32.7499 146.879C32.8249 146.608 32.704 146.221 32.9957 145.958L43.779 134.696C44.854 133.079 43.5332 131.283 41.7457 131.858C40.2374 132.346 34.579 136.846 32.7624 138.108C32.2374 138.475 29.3582 141.113 28.8124 140.588L27.2332 124.717C27.1165 123.413 23.7207 124.638 23.5624 125.5L24.3499 147.404C23.7332 147.975 19.6582 145.254 19.3332 145.038C18.1124 144.242 17.3207 143.863 16.6499 144.367C15.0582 145.563 17.1374 147.025 18.179 148.208C18.4749 148.542 19.2624 149.15 19.3332 149.229C6.12487 149.779 -12.871 154.971 -19.9835 140.058L-12.2918 144.567C-4.77096 147.754 4.54987 146.683 10.8332 141.363C20.5999 133.096 19.8915 118.346 37.0499 120.146C44.179 120.896 48.779 126.808 55.3749 128.846C61.3665 130.696 66.4124 130.221 72.3665 128.517L72.3707 128.513Z" fill="#62B529"/>
<path d="M15.329 143.488C16.729 141.584 23.7415 147.971 24.3582 147.4L23.5707 125.496C23.729 124.638 27.1249 123.413 27.2415 124.713L28.8207 140.584C29.3624 141.109 32.2457 138.471 32.7707 138.104C34.5874 136.842 40.2457 132.342 41.754 131.854C43.5415 131.279 44.8624 133.075 43.7874 134.692L33.004 145.954C32.7124 146.217 32.8332 146.609 32.7582 146.875C32.4749 147.896 32.4082 148.65 32.4957 149.759C32.7582 150.029 35.2582 148.654 35.7374 148.4C36.104 148.204 36.5665 148.296 36.429 147.663C38.7874 147.596 42.9874 143.967 44.5665 144.904C45.179 145.267 45.1832 146.4 44.7999 146.979C44.5415 147.371 42.304 148.625 41.6624 149.092C41.2457 149.396 41.1957 149.988 41.154 150.021C41.0749 150.079 40.4124 150.038 40.0165 150.317C37.7332 151.938 35.4707 153.604 33.079 155.059L33.004 155.392L35.4165 194.559C36.1915 198.25 39.4665 206.529 39.4665 206.529C31.0874 206.45 21.9874 206.421 13.6082 206.529L22.2124 195.85L23.8457 160.125L23.3999 159.521C21.4249 158.363 7.75403 154.125 7.17486 153.179C6.47903 152.046 7.46653 151.013 8.74153 151.067C12.3707 151.229 17.8124 153.292 21.6749 153.896C22.1332 153.967 22.5874 153.992 23.0499 153.959C21.7915 152.709 20.8082 151.209 19.6499 149.879C19.2707 149.442 14.154 145.092 15.3332 143.488H15.329Z" fill="#BE6632"/>
<path d="M36.4249 147.667C36.5624 148.3 36.1041 148.209 35.7332 148.404C35.2499 148.659 32.7499 150.034 32.4916 149.763C32.4041 148.654 32.4707 147.9 32.7541 146.879C34.0749 146.825 35.0916 147.704 36.4291 147.667H36.4249Z" fill="#FBE2AF"/>
</g>
</svg>
