<svg width="225" height="59" viewBox="0 0 225 59" fill="none" xmlns="http://www.w3.org/2000/svg">
<path d="M195.721 0.90625H29.5588C13.5403 0.90625 0.554688 13.8918 0.554688 29.9104C0.554688 45.9289 13.5403 58.9146 29.5588 58.9146H195.721C211.74 58.9146 224.726 45.9289 224.726 29.9104C224.726 13.8918 211.74 0.90625 195.721 0.90625Z" fill="#A0D92A"/>
<path d="M48.1376 24.0042V27.3625H45.9293V24.2208C45.9293 23.2458 45.3834 22.65 44.5001 22.65C43.5626 22.65 42.9376 23.3292 42.9376 24.3459V27.3625H40.7168V18.7917H42.9085V21.9417H43.0293C43.2834 21.65 43.6543 21.425 44.1001 21.2792C44.4001 19.5292 45.2751 18.6875 46.8168 18.6875C47.2918 18.6875 47.7876 18.7667 48.2168 18.9042L47.8751 20.4959C47.6584 20.425 47.3668 20.3834 47.1251 20.3834C46.5793 20.3834 46.2043 20.5791 46.021 21.1541C47.3668 21.4083 48.1459 22.4292 48.1459 24.0042H48.1376Z" fill="#005339"/>
<path d="M49.5488 24.9123L51.7155 24.7914C51.8447 25.4789 52.3322 25.8498 53.103 25.8498C53.8738 25.8498 54.3072 25.5123 54.3072 24.9582C54.3072 24.4832 53.9697 24.1706 53.2905 24.0165L51.953 23.7123C50.478 23.379 49.6988 22.5373 49.6988 21.2706C49.6947 19.6539 50.9697 18.6289 52.978 18.6289C54.9863 18.6289 56.1738 19.5706 56.4071 21.1831L54.3572 21.3123C54.2113 20.654 53.7196 20.2707 53.0196 20.2707C52.3196 20.2707 51.8863 20.629 51.8863 21.179C51.8863 21.6415 52.1988 21.9414 52.8197 22.0747L54.303 22.3789C55.7488 22.6789 56.5363 23.5247 56.5363 24.7831C56.5363 26.4456 55.1613 27.5248 53.0488 27.5248C51.0697 27.5248 49.7572 26.5456 49.553 24.9123H49.5488Z" fill="#005339"/>
<path d="M54.4491 15.1133H56.1533V17.7675H49.1699V16.2217H52.0408V15.1133H53.6658V16.3424H54.4491V15.1133Z" fill="#005339"/>
<path d="M65.8545 23.0373C65.8545 25.7789 64.2087 27.5248 61.6212 27.5248C59.1962 27.5248 57.6504 26.0289 57.6504 23.6539V22.6039H61.7212V24.0748H59.8087C59.917 25.1998 60.5295 25.7957 61.5795 25.7957C62.8962 25.7957 63.5795 24.8748 63.5795 23.079C63.5795 21.2831 62.9045 20.3706 61.6295 20.3706C60.7379 20.3706 60.1045 20.8456 59.9337 21.6539H57.7212C57.9045 19.8539 59.5129 18.6289 61.6962 18.6289C64.2545 18.6289 65.8462 20.3164 65.8462 23.0373H65.8545Z" fill="#005339"/>
<path d="M74.4922 22.9478C74.4922 25.677 73.0047 27.3645 70.5922 27.3645H68.2797V24.1728H67.363V22.6687H70.3172V25.6937H70.6005C71.6172 25.6937 72.2255 24.6562 72.2255 22.9478C72.2255 21.2395 71.6463 20.402 70.5213 20.402C69.6838 20.402 69.0755 20.8937 68.9464 21.6937H66.7422C66.9089 19.8437 68.4255 18.627 70.5797 18.627C73.038 18.627 74.488 20.227 74.488 22.9478H74.4922Z" fill="#005339"/>
<path d="M77.6133 22.1636C76.3633 22.1636 75.7383 21.551 75.7383 20.3385V19.2969H77.6966V19.9761C77.6966 20.3303 77.905 20.526 78.2675 20.526H79.8633V22.1636H77.6133ZM77.6133 26.8261C76.3633 26.8261 75.7383 26.2135 75.7383 25.001V23.9594H77.6966V24.6386C77.6966 24.9927 77.905 25.1885 78.2675 25.1885H79.8633V26.8261H77.6133Z" fill="#005339"/>
<path d="M81.3712 24.4083V23.5125C81.3712 22.6792 81.6046 22.1499 82.2504 21.5499C82.6171 21.2124 82.7629 20.9708 82.7629 20.6833C82.7629 20.3417 82.5337 20.15 82.1379 20.15C81.9129 20.15 81.6879 20.1959 81.4921 20.2709L81.2129 18.9167C81.6379 18.7709 82.1712 18.6875 82.6879 18.6875C84.0796 18.6875 84.8712 19.3208 84.8754 20.4291C84.8712 20.975 84.6837 21.4 84.2004 21.9417C83.7504 22.4709 83.5671 22.9125 83.5671 23.4958V24.3042C83.5671 25.2417 84.0921 25.7875 84.9837 25.7875C85.8754 25.7875 86.3963 25.2417 86.3963 24.3042V23.0583C86.3963 22.4917 86.1254 22.1666 85.6587 22.1666H85.4712V20.675H85.6462C86.2254 20.675 86.5462 20.3333 86.5462 19.7V18.7875H88.7212V19.7C88.7212 20.575 88.2921 21.1833 87.5296 21.3792V21.4625C88.1921 21.6458 88.5671 22.2208 88.5671 23.0583V24.4042C88.5671 26.2958 87.1504 27.5166 84.9712 27.5166C82.7921 27.5166 81.3629 26.2917 81.3629 24.4042L81.3712 24.4083Z" fill="#005339"/>
<path d="M86.3828 17.7689V14.8105H88.4911V17.7689H86.3828Z" fill="#005339"/>
<path d="M90.0304 24.1206H92.122C92.2304 25.1123 92.8054 25.7081 93.6387 25.7081C94.722 25.7081 95.3762 24.7248 95.3762 23.0706C95.3762 21.4165 94.7345 20.4248 93.6553 20.4164C92.8053 20.4206 92.222 21.0332 92.1053 22.054H90.0137C90.1012 19.9707 91.5595 18.6289 93.7304 18.6289C96.1554 18.6289 97.647 20.3248 97.647 23.0706C97.647 25.8165 96.1387 27.529 93.7262 27.529C91.5637 27.529 90.1179 26.1956 90.0304 24.1248V24.1206Z" fill="#005339"/>
<path d="M98.7835 24.7648C98.7835 23.7481 99.321 22.9688 100.196 22.698V22.598C99.3293 22.3188 98.8751 21.7023 98.8751 20.8064C98.8751 19.4648 99.8834 18.6855 101.625 18.6855C102.138 18.6855 102.646 18.7522 103.088 18.8772L102.788 20.4355C102.588 20.3689 102.383 20.3439 102.171 20.3439C101.483 20.3439 101.088 20.6439 101.088 21.1689C101.088 21.6939 101.517 22.0397 102.233 22.0397H102.942V23.5106H102.2C101.438 23.5106 101.004 23.9022 101.004 24.573C101.004 25.3522 101.583 25.8313 102.542 25.8313C103.65 25.8313 104.246 25.1981 104.246 24.0398V18.7939H106.475V24.1272C106.475 26.2814 105.033 27.5272 102.538 27.5272C100.225 27.5272 98.7793 26.4648 98.7793 24.7648H98.7835Z" fill="#005339"/>
<path d="M108.408 25.1929V18.793H110.625V24.9597C110.625 25.4722 110.842 25.7179 111.292 25.7179C111.454 25.7179 111.675 25.6888 111.846 25.6388L112.188 27.2555C111.738 27.393 111.267 27.468 110.783 27.468C109.229 27.468 108.404 26.6762 108.404 25.1929H108.408ZM113.038 25.1929V18.793H115.254V24.9597C115.254 25.4722 115.467 25.7179 115.921 25.7179C116.083 25.7179 116.304 25.6888 116.471 25.6388L116.813 27.2555C116.367 27.393 115.892 27.468 115.413 27.468C113.858 27.468 113.033 26.6762 113.033 25.1929H113.038Z" fill="#005339"/>
<path d="M117.835 24.2846V18.793H120.055V24.0971C120.055 25.1471 120.635 25.7763 121.61 25.7763C122.585 25.7763 123.164 25.1513 123.168 24.0971V18.793H125.389V24.2846C125.389 26.2638 123.922 27.5221 121.61 27.5221C119.297 27.5221 117.822 26.2638 117.826 24.2846H117.835Z" fill="#005339"/>
<path d="M123.225 17.7689V14.8105H125.333V17.7689H123.225Z" fill="#005339"/>
<path d="M134.593 22.6891C134.593 25.6016 133.089 27.3642 130.61 27.3642H128.768L126.576 18.7934H128.826L130.426 25.5934H130.655C131.726 25.5934 132.393 24.5308 132.393 22.8141C132.393 21.2766 131.88 20.435 130.926 20.435C130.71 20.435 130.497 20.4767 130.264 20.5558L129.922 18.9142C130.33 18.7725 130.843 18.6934 131.33 18.6934C133.43 18.6934 134.593 20.1225 134.593 22.6933V22.6891Z" fill="#005339"/>
<path d="M136.108 24.2844V18.7927H138.329V24.0969C138.329 25.1552 138.908 25.7761 139.883 25.7761C140.858 25.7761 141.441 25.1511 141.441 24.0969V15.7344H143.666V24.2844C143.666 26.2636 142.199 27.5219 139.887 27.5219C137.574 27.5219 136.104 26.2636 136.104 24.2844H136.108Z" fill="#005339"/>
<path d="M137.521 17.7678C136.216 17.7678 135.566 17.1678 135.566 15.9636V15.2637H137.541V15.6094C137.541 16.0261 137.766 16.2303 138.225 16.2303H140.671V17.7637H137.521V17.7678Z" fill="#005339"/>
<path d="M145.5 24.2971V18.793H147.721V23.9013C147.721 24.9388 148.309 25.6054 149.213 25.6054C150.184 25.6054 150.85 24.8638 150.85 23.7763V18.793H153.071V27.3638H150.942V25.8304H150.859C150.454 26.8513 149.5 27.468 148.321 27.468C146.604 27.468 145.492 26.2221 145.496 24.2971H145.5Z" fill="#005339"/>
<path d="M155.059 25.1929V18.793H157.276V24.9597C157.276 25.4722 157.492 25.7179 157.942 25.7179C158.105 25.7179 158.326 25.6888 158.496 25.6388L158.838 27.2555C158.388 27.393 157.917 27.468 157.434 27.468C155.88 27.468 155.055 26.6762 155.055 25.1929H155.059Z" fill="#005339"/>
<path d="M159.418 24.9123L161.585 24.7914C161.714 25.4789 162.201 25.8498 162.972 25.8498C163.743 25.8498 164.176 25.5123 164.176 24.9582C164.176 24.4832 163.839 24.1706 163.16 24.0165L161.822 23.7123C160.347 23.379 159.568 22.5373 159.568 21.2706C159.564 19.6539 160.839 18.6289 162.847 18.6289C164.855 18.6289 166.043 19.5706 166.276 21.1831L164.226 21.3123C164.08 20.654 163.589 20.2707 162.889 20.2707C162.189 20.2707 161.755 20.629 161.755 21.179C161.755 21.6415 162.068 21.9414 162.689 22.0747L164.172 22.3789C165.618 22.6789 166.405 23.5247 166.405 24.7831C166.405 26.4456 165.03 27.5248 162.918 27.5248C160.939 27.5248 159.626 26.5456 159.422 24.9123H159.418Z" fill="#005339"/>
<path d="M164.316 15.1133H166.02V17.7675H159.037V16.2217H161.908V15.1133H163.533V16.3424H164.316V15.1133Z" fill="#005339"/>
<path d="M164.076 14.3095V11.8262H165.968V14.3095H164.076Z" fill="#005339"/>
<path d="M175.722 23.0373C175.722 25.7789 174.072 27.5248 171.488 27.5248C169.063 27.5248 167.518 26.0289 167.518 23.6539V22.6039H171.588V24.0748H169.676C169.784 25.1998 170.397 25.7957 171.447 25.7957C172.763 25.7957 173.447 24.8748 173.447 23.079C173.447 21.2831 172.772 20.3706 171.497 20.3706C170.605 20.3706 169.972 20.8456 169.801 21.6539H167.588C167.772 19.8539 169.38 18.6289 171.563 18.6289C174.122 18.6289 175.713 20.3164 175.713 23.0373H175.722Z" fill="#005339"/>
<path d="M184.571 22.6891C184.571 25.6016 183.067 27.3642 180.588 27.3642H178.746L176.555 18.7934H178.805L180.405 25.5934H180.634C181.705 25.5934 182.371 24.5308 182.371 22.8141C182.371 21.2766 181.859 20.435 180.905 20.435C180.688 20.435 180.476 20.4767 180.242 20.5558L179.9 18.9142C180.309 18.7725 180.821 18.6934 181.309 18.6934C183.409 18.6934 184.571 20.1225 184.571 22.6933V22.6891Z" fill="#005339"/>
<path d="M64.041 42.0919L66.2077 41.971C66.3368 42.6585 66.8244 43.0294 67.5952 43.0294C68.366 43.0294 68.7994 42.6919 68.7994 42.1377C68.7994 41.6627 68.4618 41.3502 67.7827 41.1961L66.4452 40.8919C64.9702 40.5586 64.191 39.7169 64.191 38.4502C64.1868 36.8335 65.4618 35.8086 67.4702 35.8086C69.4785 35.8086 70.666 36.7502 70.8993 38.3627L68.8494 38.4919C68.7035 37.8336 68.2118 37.4502 67.5118 37.4502C66.8118 37.4502 66.3785 37.8085 66.3785 38.3585C66.3785 38.821 66.691 39.121 67.3118 39.2543L68.7952 39.5586C70.241 39.8586 71.0285 40.7043 71.0285 41.9627C71.0285 43.6252 69.6535 44.7044 67.541 44.7044C65.5619 44.7044 64.2494 43.7252 64.0452 42.0919H64.041Z" fill="#005339"/>
<path d="M75.7708 44.5419V38.7169C75.7708 38.0336 75.3917 37.5877 74.8083 37.5877C74.225 37.5877 73.8708 37.9752 73.7917 38.646L71.75 38.5128C71.9 36.8586 73.1333 35.8086 74.9333 35.8086C76.825 35.8086 77.9958 36.971 77.9958 38.8335V44.5419H75.775H75.7708Z" fill="#005339"/>
<path d="M79.4424 41.2983H81.5341C81.6424 42.2899 82.2174 42.8858 83.0508 42.8858C84.1341 42.8858 84.7883 41.9024 84.7883 40.2483C84.7883 38.5941 84.1466 37.6024 83.0674 37.5941C82.2174 37.5982 81.6341 38.2108 81.5174 39.2316H79.4258C79.5133 37.1483 80.9716 35.8066 83.1424 35.8066C85.5674 35.8066 87.0591 37.5024 87.0591 40.2483C87.0591 42.9941 85.5507 44.7066 83.1382 44.7066C80.9757 44.7066 79.5299 43.3733 79.4424 41.3024V41.2983Z" fill="#005339"/>
<path d="M88.1465 40.3941C88.1465 37.4983 89.7048 35.8066 92.3965 35.8066C94.7131 35.8066 96.1548 37.0441 96.1548 39.0233V44.54H93.9298V39.1441C93.9298 38.1608 93.3173 37.5441 92.3465 37.5441C91.1173 37.5441 90.409 38.5524 90.409 40.3107C90.409 42.0691 91.034 42.9024 92.1506 42.9024C92.3798 42.9024 92.6131 42.8608 92.8131 42.7816L92.8923 44.4607C92.509 44.5815 92.084 44.6441 91.6548 44.6441C89.4632 44.6441 88.1507 43.0483 88.1507 40.39L88.1465 40.3941Z" fill="#005339"/>
<path d="M89.166 34.9472V33.4014H94.1452V32.293H96.1494V34.9472H89.166Z" fill="#005339"/>
<path d="M102.467 35.8301C104.063 36.0259 104.88 36.9092 104.88 38.4259V47.9801H102.659V38.3801C102.659 37.9385 102.492 37.6384 102.205 37.5301L101.422 38.1426H101.184L100.397 37.5301C100.022 37.7343 99.805 38.1509 99.805 38.6634C99.805 39.4009 100.234 39.8677 100.905 39.8677C101.109 39.8677 101.322 39.826 101.484 39.7468L101.555 41.3801C101.201 41.4884 100.826 41.5467 100.426 41.5467C98.6758 41.5467 97.6133 40.4884 97.6133 38.7467C97.6133 37.0051 98.5633 36.0092 100.192 35.8301L101.297 36.6968H101.367L102.467 35.8301Z" fill="#005339"/>
<path d="M117.999 40.2149C117.999 42.9566 116.353 44.7024 113.766 44.7024C111.341 44.7024 109.795 43.2066 109.795 40.8316V39.7816H113.866V41.2524H111.953C112.062 42.3774 112.674 42.9733 113.724 42.9733C115.041 42.9733 115.724 42.0524 115.724 40.2566C115.724 38.4608 115.049 37.5483 113.774 37.5483C112.882 37.5483 112.249 38.0233 112.078 38.8316H109.866C110.049 37.0316 111.657 35.8066 113.841 35.8066C116.399 35.8066 117.991 37.4941 117.991 40.2149H117.999Z" fill="#005339"/>
<path d="M127.355 40.2149C127.355 42.9566 125.709 44.7024 123.121 44.7024C120.696 44.7024 119.15 43.2066 119.15 40.8316V39.7816H123.221V41.2524H121.309C121.417 42.3774 122.03 42.9733 123.08 42.9733C124.396 42.9733 125.08 42.0524 125.08 40.2566C125.08 38.4608 124.405 37.5483 123.13 37.5483C122.238 37.5483 121.605 38.0233 121.434 38.8316H119.221C119.405 37.0316 121.013 35.8066 123.196 35.8066C125.755 35.8066 127.346 37.4941 127.346 40.2149H127.355Z" fill="#005339"/>
<path d="M136.446 39.0799V44.5424H134.225V39.0465C134.225 38.0924 133.588 37.5216 132.538 37.5216C131.488 37.5216 130.875 38.0591 130.796 39.0174L132.271 39.1091V40.4341L131.905 40.409C131.371 40.3715 131.075 40.7466 131.075 41.43V44.5383H128.867V41.7383C128.867 40.7633 129.275 40.1258 130.084 39.8633V39.7799L128.621 39.6966V39.1882C128.621 37.0466 130.071 35.8008 132.559 35.8008C135.046 35.8008 136.446 37.0007 136.446 39.0757V39.0799Z" fill="#005339"/>
<path d="M139.163 42.3764V34.8847C139.163 33.5431 139.613 32.6014 140.438 32.1806V32.0889H137.926V30.4473H143.03V31.9722C141.855 32.1639 141.384 32.8931 141.384 34.5431V42.1515C141.384 42.639 141.613 42.8931 142.047 42.8931C142.213 42.8931 142.447 42.8639 142.605 42.8097L142.947 44.4431C142.505 44.5806 142.03 44.6556 141.547 44.6556C139.988 44.6556 139.163 43.8722 139.163 42.3847V42.3764Z" fill="#005339"/>
<path d="M144.075 41.4641V35.9724H146.296V41.2766C146.296 42.3349 146.875 42.9558 147.85 42.9558C148.825 42.9558 149.408 42.3308 149.408 41.2766V32.9141H151.629V41.4641C151.629 43.4432 150.162 44.7016 147.85 44.7016C145.537 44.7016 144.066 43.4432 144.066 41.4641H144.075Z" fill="#005339"/>
</svg>
