<svg width="188" height="43" viewBox="0 0 188 43" fill="none" xmlns="http://www.w3.org/2000/svg">
<path d="M166.815 0.382812H20.9818C9.47584 0.382812 0.148438 9.71021 0.148438 21.2161C0.148438 32.7221 9.47584 42.0495 20.9818 42.0495H166.815C178.321 42.0495 187.648 32.7221 187.648 21.2161C187.648 9.71021 178.321 0.382812 166.815 0.382812Z" fill="#02B14F"/>
<path d="M29.4395 25.4144V18.877H31.0144V25.2144C31.0144 25.9019 31.2728 26.2352 31.8061 26.2352C31.9853 26.2352 32.1811 26.2103 32.352 26.1644L32.6269 27.3853C32.2936 27.4936 31.9311 27.5519 31.5394 27.5519C30.1811 27.5519 29.4395 26.7936 29.4395 25.4186V25.4144ZM33.7061 25.4144V18.877H35.2811V25.2144C35.2811 25.9019 35.5353 26.2352 36.0728 26.2352C36.2561 26.2352 36.4478 26.2103 36.6186 26.1644L36.8936 27.3853C36.5603 27.4936 36.1978 27.5519 35.8061 27.5519C34.4478 27.5519 33.7061 26.7936 33.7061 25.4186V25.4144Z" fill="white"/>
<path d="M37.7814 24.7713V23.7338C37.7814 22.7838 38.0189 22.2463 38.7023 21.6463C39.0939 21.3004 39.2814 20.9713 39.2814 20.6171C39.2814 20.213 39.0314 19.9921 38.5939 19.9921C38.3606 19.9921 38.1189 20.038 37.9064 20.113L37.6564 18.9463C38.0148 18.838 38.4189 18.7754 38.8106 18.7754C40.0523 18.7754 40.8064 19.4338 40.8064 20.5213C40.8064 21.138 40.5648 21.6546 40.0148 22.2171C39.5606 22.6879 39.3522 23.1713 39.3522 23.7672V24.6379C39.3522 25.6671 39.9773 26.3046 40.9856 26.3046C41.9939 26.3046 42.6231 25.6671 42.6231 24.6379V23.238C42.6231 22.4921 42.2773 22.0755 41.6523 22.0755H41.4523V20.9129H41.6814C42.4023 20.9129 42.8023 20.4671 42.8023 19.6629V18.8755H44.3398V19.6629C44.3398 20.5963 43.9147 21.2338 43.1522 21.4505V21.5338C43.8147 21.7254 44.1814 22.3338 44.1814 23.2338V24.7713C44.1814 26.5004 42.9314 27.613 40.9856 27.613C39.0398 27.613 37.7814 26.5046 37.7814 24.7713Z" fill="white"/>
<path d="M45.9807 25.3176L47.4932 25.0843C47.6807 25.8968 48.2724 26.3176 49.2349 26.3176C50.1974 26.3176 50.8391 25.8759 50.8391 25.1342C50.8391 24.5009 50.4099 24.0717 49.6057 23.88L48.2682 23.5635C46.8724 23.2385 46.1016 22.3967 46.1016 21.2009C46.1016 19.7134 47.3307 18.7051 49.1474 18.7051C50.7682 18.7051 51.9516 19.5051 52.3391 20.8717L50.8974 21.1301C50.6391 20.3843 50.0016 19.9467 49.1557 19.9467C48.2641 19.9467 47.6599 20.4301 47.6599 21.1343C47.6599 21.7218 48.0599 22.1093 48.8599 22.301L50.2974 22.6384C51.6599 22.9551 52.4224 23.8051 52.4224 25.0135C52.4224 26.5885 51.1474 27.6093 49.1849 27.6093C47.4182 27.6093 46.2349 26.7635 45.9766 25.3176H45.9807Z" fill="white"/>
<path d="M49.3105 17.7666V17.3332C49.3105 16.2624 49.923 15.6582 51.0147 15.6582H52.7106V16.8541H51.4314C50.9772 16.8541 50.7314 17.0875 50.7314 17.5208V17.7624H49.3105V17.7666Z" fill="white"/>
<path d="M54.293 25.4144V18.877H55.868V25.2144C55.868 25.9019 56.1263 26.2352 56.6597 26.2352C56.8388 26.2352 57.0346 26.2103 57.2055 26.1644L57.4805 27.3853C57.1471 27.4936 56.7847 27.5519 56.393 27.5519C55.0347 27.5519 54.293 26.7936 54.293 25.4186V25.4144Z" fill="white"/>
<path d="M58.2483 25.3176L59.7608 25.0843C59.9483 25.8968 60.54 26.3176 61.5025 26.3176C62.465 26.3176 63.1066 25.8759 63.1066 25.1342C63.1066 24.5009 62.6775 24.0717 61.8733 23.88L60.5358 23.5635C59.14 23.2385 58.3691 22.3967 58.3691 21.2009C58.3691 19.7134 59.5983 18.7051 61.415 18.7051C63.0358 18.7051 64.2191 19.5051 64.6066 20.8717L63.1649 21.1301C62.9066 20.3843 62.2691 19.9467 61.4233 19.9467C60.5316 19.9467 59.9274 20.4301 59.9274 21.1343C59.9274 21.7218 60.3274 22.1093 61.1274 22.301L62.565 22.6384C63.9275 22.9551 64.69 23.8051 64.69 25.0135C64.69 26.5885 63.415 27.6093 61.4525 27.6093C59.6858 27.6093 58.5025 26.7635 58.2441 25.3176H58.2483Z" fill="white"/>
<path d="M62.9403 15.3633H64.2779V17.7675H57.7695V16.555H60.8695V15.3633H62.1445V16.6175H62.9445V15.3633H62.9403Z" fill="white"/>
<path d="M62.8613 14.563V12.2422H64.2446V14.563H62.8613Z" fill="white"/>
<path d="M73.8717 23.1009C73.8717 25.8801 72.3259 27.6093 69.8468 27.6093C67.4926 27.6093 66.0801 26.1134 66.0801 23.6051V22.7926H69.9676V23.9718H67.6134C67.7176 25.4843 68.4718 26.2842 69.8051 26.2842C71.3759 26.2842 72.2676 25.1426 72.2676 23.1343C72.2676 21.126 71.3926 20.0342 69.8384 20.0342C68.7134 20.0342 67.9009 20.6509 67.7093 21.6551H66.1384C66.3509 19.8759 67.8426 18.7051 69.9051 18.7051C72.3801 18.7051 73.8759 20.3593 73.8759 23.1009H73.8717Z" fill="white"/>
<path d="M82.4322 22.7963C82.4322 25.6921 80.9863 27.4462 78.5947 27.4462H77.2405L74.9863 18.8755H76.5905L78.4322 26.1338H78.6072C80.0114 26.1338 80.8489 24.9004 80.8489 22.8379C80.8489 21.0379 80.2405 20.088 79.0988 20.088C78.8363 20.088 78.5613 20.1338 78.2738 20.2297L78.003 18.9921C78.4113 18.8504 78.8613 18.7754 79.3155 18.7754C81.3113 18.7754 82.428 20.2213 82.428 22.8005L82.4322 22.7963Z" fill="white"/>
<path d="M83.8733 25.3176L85.3858 25.0843C85.5733 25.8968 86.165 26.3176 87.1275 26.3176C88.09 26.3176 88.7316 25.8759 88.7316 25.1342C88.7316 24.5009 88.3025 24.0717 87.4983 23.88L86.1608 23.5635C84.765 23.2385 83.9941 22.3967 83.9941 21.2009C83.9941 19.7134 85.2233 18.7051 87.04 18.7051C88.6608 18.7051 89.8441 19.5051 90.2316 20.8717L88.7899 21.1301C88.5316 20.3843 87.8941 19.9467 87.0483 19.9467C86.1566 19.9467 85.5524 20.4301 85.5524 21.1343C85.5524 21.7218 85.9524 22.1093 86.7524 22.301L88.19 22.6384C89.5525 22.9551 90.315 23.8051 90.315 25.0135C90.315 26.5885 89.04 27.6093 87.0775 27.6093C85.3108 27.6093 84.1275 26.7635 83.8691 25.3176H83.8733Z" fill="white"/>
<path d="M95.2566 27.4423V21.4839C95.2566 20.6048 94.7691 20.034 94.0066 20.034C93.3275 20.034 92.8192 20.4882 92.665 21.234L91.2441 20.9715C91.4816 19.584 92.5817 18.709 94.0775 18.709C95.7608 18.709 96.8275 19.809 96.8275 21.534V27.4465H95.2525L95.2566 27.4423Z" fill="white"/>
<path d="M98.6134 24.5465H100.147C100.301 25.6132 101.018 26.2674 102.022 26.2674C103.38 26.2674 104.23 25.0756 104.23 23.159C104.23 21.2423 103.393 20.0381 102.055 20.034C101.018 20.0381 100.268 20.7382 100.113 21.859H98.5801C98.7426 19.9423 100.126 18.709 102.109 18.709C104.409 18.709 105.838 20.4131 105.838 23.159C105.838 25.9048 104.397 27.609 102.093 27.609C100.138 27.609 98.7551 26.3923 98.6176 24.5465H98.6134Z" fill="white"/>
<path d="M107.193 23.2343C107.193 20.4218 108.71 18.7051 111.21 18.7051C113.377 18.7051 114.735 19.98 114.735 22.0092V27.4384H113.16V22.0176C113.16 20.7884 112.398 20.0135 111.198 20.0135C109.71 20.0135 108.802 21.2218 108.802 23.2051C108.802 25.1884 109.627 26.2301 111.01 26.2301C111.268 26.2301 111.523 26.1884 111.768 26.1051L111.918 27.3634C111.535 27.4843 111.131 27.5384 110.718 27.5384C108.535 27.5384 107.202 25.901 107.202 23.226L107.193 23.2343Z" fill="white"/>
<path d="M108.227 17.7675V16.555H113.285V15.3633H114.735V17.7675H108.227Z" fill="white"/>
<path d="M121.003 18.7598C122.319 18.8931 123.048 19.6889 123.048 20.9805V30.8847H121.473V20.9264C121.473 20.4972 121.277 20.1806 120.977 20.0931L120.002 20.9097H119.636L118.652 20.0931C118.277 20.3181 118.065 20.7514 118.065 21.3139C118.065 22.1472 118.519 22.6681 119.244 22.6681C119.457 22.6681 119.669 22.6264 119.865 22.543L120.011 23.7514C119.678 23.8723 119.332 23.9264 118.965 23.9264C117.44 23.9264 116.494 22.9639 116.494 21.4139C116.494 19.9514 117.319 18.9389 118.657 18.7598L119.79 19.7098H119.869L121.003 18.7598Z" fill="white"/>
<path d="M129.157 24.296V18.8711H130.732V24.1085C130.727 25.3294 131.452 26.1544 132.519 26.1544C133.715 26.1544 134.582 25.1961 134.586 23.8711V18.8711H136.161V27.4419H134.615V25.9461H134.532C134.082 26.9544 133.136 27.546 131.957 27.546C130.211 27.546 129.148 26.3168 129.152 24.296H129.157Z" fill="white"/>
<path d="M129.697 17.7675V16.555H134.756V15.3633H136.206V17.7675H129.697Z" fill="white"/>
<path d="M133.781 14.5621V13.7037C133.781 13.4329 133.627 13.3038 133.298 13.3038H132.752V12.2871H133.935C134.673 12.2871 135.014 12.5912 135.014 13.2579V13.5204H137.156V14.5621H133.781Z" fill="white"/>
<path d="M138.494 25.4144V18.877H140.069V25.2144C140.069 25.9019 140.327 26.2352 140.861 26.2352C141.04 26.2352 141.236 26.2103 141.407 26.1644L141.682 27.3853C141.348 27.4936 140.986 27.5519 140.594 27.5519C139.236 27.5519 138.494 26.7936 138.494 25.4186V25.4144Z" fill="white"/>
<path d="M142.585 25.1337C142.585 23.5795 143.622 22.7379 145.789 22.5587C147.472 22.4129 147.914 22.2379 147.914 21.7004V21.5087C147.914 20.5337 147.322 19.9921 146.251 19.9921C145.289 19.9921 144.535 20.4462 144.251 21.2171L142.76 20.8837C143.21 19.5087 144.48 18.7129 146.214 18.7129C148.235 18.7129 149.476 19.8171 149.476 21.6296V27.4504H147.91V23.2837C147.585 23.4712 147.13 23.567 145.997 23.7045C144.722 23.8545 144.168 24.2754 144.168 25.0879C144.168 25.9004 144.726 26.3087 145.835 26.3087C146.185 26.3087 146.468 26.267 146.714 26.1795L146.868 27.4004C146.439 27.5254 146.01 27.5837 145.514 27.5837C143.635 27.5837 142.576 26.7087 142.576 25.1379L142.585 25.1337Z" fill="white"/>
<path d="M151.377 24.8258C151.377 23.83 151.852 23.0675 152.669 22.7467V22.6592C151.811 22.3675 151.369 21.7675 151.369 20.8883C151.369 19.5342 152.377 18.7676 154.14 18.7676C154.602 18.7676 155.007 18.8175 155.377 18.9259L155.123 20.1342C154.89 20.0758 154.657 20.0508 154.407 20.0508C153.465 20.0508 152.936 20.4342 152.936 21.1134C152.936 21.7925 153.44 22.1509 154.315 22.1509H155.465V23.3259H154.332C153.486 23.3259 152.969 23.8426 152.969 24.6801C152.969 25.6801 153.694 26.305 154.857 26.305C156.157 26.305 156.907 25.5259 156.907 24.1717V18.8717H158.482V24.3425C158.482 26.405 157.157 27.6051 154.865 27.6051C152.711 27.6051 151.377 26.5425 151.377 24.8217V24.8258Z" fill="white"/>
</svg>
