<svg width="188" height="42" viewBox="0 0 188 42" fill="none" xmlns="http://www.w3.org/2000/svg">
<path d="M166.68 0.0859375H20.847C9.34107 0.0859375 0.0136719 9.41334 0.0136719 20.9193C0.0136719 32.4252 9.34107 41.7526 20.847 41.7526H166.68C178.186 41.7526 187.514 32.4252 187.514 20.9193C187.514 9.41334 178.186 0.0859375 166.68 0.0859375Z" fill="#02B14F"/>
<path d="M29.3047 25.1136V18.5762H30.8797V24.9137C30.8797 25.6012 31.138 25.9346 31.6713 25.9346C31.8505 25.9346 32.0464 25.9095 32.2172 25.8637L32.4922 27.0846C32.1589 27.1929 31.7964 27.2512 31.4047 27.2512C30.0464 27.2512 29.3047 26.4928 29.3047 25.1178V25.1136ZM33.5713 25.1136V18.5762H35.1464V24.9137C35.1464 25.6012 35.4005 25.9346 35.938 25.9346C36.1213 25.9346 36.313 25.9095 36.4838 25.8637L36.7589 27.0846C36.4255 27.1929 36.063 27.2512 35.6714 27.2512C34.313 27.2512 33.5713 26.4928 33.5713 25.1178V25.1136Z" fill="white"/>
<path d="M37.6504 24.4685V23.4311C37.6504 22.4811 37.8879 21.9435 38.5712 21.3435C38.9629 20.9977 39.1504 20.6686 39.1504 20.3144C39.1504 19.9102 38.9004 19.6894 38.4629 19.6894C38.2296 19.6894 37.9879 19.7351 37.7754 19.8101L37.5254 18.6436C37.8837 18.5352 38.2879 18.4727 38.6796 18.4727C39.9212 18.4727 40.6754 19.131 40.6754 20.2185C40.6754 20.8351 40.4337 21.3518 39.8837 21.9143C39.4296 22.3852 39.2212 22.8685 39.2212 23.4643V24.3352C39.2212 25.3644 39.8462 26.0019 40.8546 26.0019C41.8629 26.0019 42.4921 25.3644 42.4921 24.3352V22.9351C42.4921 22.1893 42.1462 21.7727 41.5212 21.7727H41.3212V20.6102H41.5504C42.2712 20.6102 42.6712 20.1644 42.6712 19.3602V18.5727H44.2087V19.3602C44.2087 20.2935 43.7837 20.9311 43.0212 21.1477V21.231C43.6837 21.4227 44.0504 22.031 44.0504 22.931V24.4685C44.0504 26.1977 42.8004 27.3101 40.8546 27.3101C38.9087 27.3101 37.6504 26.2019 37.6504 24.4685Z" fill="white"/>
<path d="M45.846 25.0187L47.3585 24.7854C47.546 25.5979 48.1377 26.0188 49.1002 26.0188C50.0627 26.0188 50.7043 25.5771 50.7043 24.8354C50.7043 24.2021 50.2752 23.7729 49.471 23.5812L48.1335 23.2645C46.7376 22.9395 45.9668 22.0979 45.9668 20.9021C45.9668 19.4146 47.196 18.4062 49.0126 18.4062C50.6335 18.4062 51.8168 19.2062 52.2043 20.5729L50.7627 20.8313C50.5043 20.0854 49.8668 19.6479 49.021 19.6479C48.1293 19.6479 47.5251 20.1313 47.5251 20.8354C47.5251 21.4229 47.9251 21.8104 48.7251 22.002L50.1626 22.3396C51.5251 22.6562 52.2877 23.5062 52.2877 24.7145C52.2877 26.2895 51.0127 27.3104 49.0502 27.3104C47.2835 27.3104 46.1001 26.4645 45.8418 25.0187H45.846Z" fill="white"/>
<path d="M49.1797 17.4677V17.0344C49.1797 15.9635 49.7922 15.3594 50.8839 15.3594H52.5797V16.5553H51.3006C50.8464 16.5553 50.6005 16.7885 50.6005 17.2219V17.4636H49.1797V17.4677Z" fill="white"/>
<path d="M54.1582 25.1136V18.5762H55.7332V24.9137C55.7332 25.6012 55.9915 25.9346 56.5248 25.9346C56.704 25.9346 56.8999 25.9095 57.0707 25.8637L57.3457 27.0846C57.0123 27.1929 56.6498 27.2512 56.2582 27.2512C54.8998 27.2512 54.1582 26.4928 54.1582 25.1178V25.1136Z" fill="white"/>
<path d="M58.1135 25.0187L59.626 24.7854C59.8135 25.5979 60.4052 26.0188 61.3677 26.0188C62.3302 26.0188 62.9718 25.5771 62.9718 24.8354C62.9718 24.2021 62.5427 23.7729 61.7385 23.5812L60.401 23.2645C59.0052 22.9395 58.2343 22.0979 58.2343 20.9021C58.2343 19.4146 59.4635 18.4062 61.2802 18.4062C62.901 18.4062 64.0844 19.2062 64.4719 20.5729L63.0302 20.8313C62.7718 20.0854 62.1344 19.6479 61.2885 19.6479C60.3969 19.6479 59.7927 20.1313 59.7927 20.8354C59.7927 21.4229 60.1927 21.8104 60.9927 22.002L62.4302 22.3396C63.7927 22.6562 64.5552 23.5062 64.5552 24.7145C64.5552 26.2895 63.2802 27.3104 61.3177 27.3104C59.551 27.3104 58.3677 26.4645 58.1094 25.0187H58.1135Z" fill="white"/>
<path d="M62.8056 15.0645H64.1431V17.4686H57.6348V16.2561H60.7347V15.0645H62.0098V16.3186H62.8098V15.0645H62.8056Z" fill="white"/>
<path d="M62.7305 14.2642V11.9434H64.1138V14.2642H62.7305Z" fill="white"/>
<path d="M73.737 22.8021C73.737 25.5813 72.1912 27.3104 69.712 27.3104C67.3578 27.3104 65.9453 25.8146 65.9453 23.3063V22.4938H69.8328V23.6729H67.4787C67.5828 25.1854 68.337 25.9854 69.6703 25.9854C71.2412 25.9854 72.1329 24.8437 72.1329 22.8354C72.1329 20.827 71.2578 19.7354 69.7037 19.7354C68.5787 19.7354 67.7662 20.3521 67.5745 21.3563H66.0037C66.2162 19.5771 67.7078 18.4062 69.7703 18.4062C72.2453 18.4062 73.7412 20.0604 73.7412 22.8021H73.737Z" fill="white"/>
<path d="M82.2974 22.4975C82.2974 25.3933 80.8516 27.1474 78.4599 27.1474H77.1057L74.8516 18.5766H76.4558L78.2974 25.835H78.4724C79.8766 25.835 80.7141 24.6016 80.7141 22.5391C80.7141 20.7391 80.1057 19.7891 78.9641 19.7891C78.7016 19.7891 78.4266 19.8349 78.1391 19.9307L77.8682 18.6932C78.2766 18.5516 78.7266 18.4766 79.1807 18.4766C81.1766 18.4766 82.2932 19.9225 82.2932 22.5016L82.2974 22.4975Z" fill="white"/>
<path d="M83.7385 25.0187L85.251 24.7854C85.4385 25.5979 86.0302 26.0188 86.9927 26.0188C87.9552 26.0188 88.5968 25.5771 88.5968 24.8354C88.5968 24.2021 88.1677 23.7729 87.3635 23.5812L86.026 23.2645C84.6302 22.9395 83.8593 22.0979 83.8593 20.9021C83.8593 19.4146 85.0885 18.4062 86.9052 18.4062C88.526 18.4062 89.7094 19.2062 90.0969 20.5729L88.6552 20.8313C88.3968 20.0854 87.7594 19.6479 86.9135 19.6479C86.0219 19.6479 85.4177 20.1313 85.4177 20.8354C85.4177 21.4229 85.8177 21.8104 86.6177 22.002L88.0552 22.3396C89.4177 22.6562 90.1802 23.5062 90.1802 24.7145C90.1802 26.2895 88.9052 27.3104 86.9427 27.3104C85.176 27.3104 83.9927 26.4645 83.7344 25.0187H83.7385Z" fill="white"/>
<path d="M95.1258 27.1435V21.1851C95.1258 20.306 94.6383 19.7351 93.8758 19.7351C93.1966 19.7351 92.6883 20.1893 92.5341 20.9352L91.1133 20.6726C91.3508 19.2851 92.4508 18.4102 93.9466 18.4102C95.63 18.4102 96.6966 19.5102 96.6966 21.2352V27.1476H95.1216L95.1258 27.1435Z" fill="white"/>
<path d="M98.4826 24.2477H100.016C100.17 25.3143 100.887 25.9684 101.891 25.9684C103.249 25.9684 104.099 24.7768 104.099 22.8601C104.099 20.9435 103.262 19.7393 101.924 19.7351C100.887 19.7393 100.137 20.4393 99.9826 21.5602H98.4492C98.6117 19.6435 99.995 18.4102 101.978 18.4102C104.278 18.4102 105.708 20.1143 105.708 22.8601C105.708 25.606 104.266 27.3101 101.962 27.3101C100.008 27.3101 98.6243 26.0935 98.4868 24.2477H98.4826Z" fill="white"/>
<path d="M107.059 22.9354C107.059 20.1229 108.575 18.4062 111.075 18.4062C113.242 18.4062 114.6 19.6812 114.6 21.7104V27.1396H113.025V21.7187C113.025 20.4896 112.263 19.7145 111.063 19.7145C109.575 19.7145 108.667 20.9229 108.667 22.9063C108.667 24.8896 109.492 25.9313 110.875 25.9313C111.134 25.9313 111.388 25.8896 111.634 25.8063L111.784 27.0646C111.4 27.1854 110.996 27.2396 110.584 27.2396C108.4 27.2396 107.067 25.602 107.067 22.927L107.059 22.9354Z" fill="white"/>
<path d="M108.096 17.4686V16.2561H113.154V15.0645H114.604V17.4686H108.096Z" fill="white"/>
<path d="M120.868 18.4609C122.184 18.5943 122.914 19.3901 122.914 20.6818V30.586H121.339V20.6277C121.339 20.1985 121.143 19.8819 120.843 19.7944L119.868 20.611H119.501L118.518 19.7944C118.143 20.0194 117.93 20.4527 117.93 21.0152C117.93 21.8485 118.384 22.3693 119.109 22.3693C119.322 22.3693 119.534 22.3276 119.73 22.2443L119.876 23.4526C119.543 23.5734 119.197 23.6277 118.83 23.6277C117.305 23.6277 116.359 22.6652 116.359 21.1152C116.359 19.6527 117.184 18.6401 118.522 18.4609L119.655 19.4109H119.734L120.868 18.4609Z" fill="white"/>
<path d="M129.022 23.9973V18.5723H130.597V23.8098C130.593 25.0306 131.318 25.8556 132.384 25.8556C133.58 25.8556 134.447 24.8973 134.451 23.5723V18.5723H136.026V27.1431H134.48V25.6473H134.397C133.947 26.6556 133.001 27.2473 131.822 27.2473C130.076 27.2473 129.013 26.0181 129.018 23.9973H129.022Z" fill="white"/>
<path d="M129.568 17.4686V16.2561H134.627V15.0645H136.077V17.4686H129.568Z" fill="white"/>
<path d="M133.65 14.2634V13.405C133.65 13.1342 133.496 13.005 133.167 13.005H132.621V11.9883H133.804C134.542 11.9883 134.884 12.2925 134.884 12.9591V13.2217H137.025V14.2634H133.65Z" fill="white"/>
<path d="M138.359 25.1136V18.5762H139.934V24.9137C139.934 25.6012 140.193 25.9346 140.726 25.9346C140.905 25.9346 141.101 25.9095 141.272 25.8637L141.547 27.0846C141.214 27.1929 140.851 27.2512 140.459 27.2512C139.101 27.2512 138.359 26.4928 138.359 25.1178V25.1136Z" fill="white"/>
<path d="M142.45 24.831C142.45 23.2768 143.487 22.4351 145.654 22.256C147.337 22.1101 147.779 21.9351 147.779 21.3976V21.206C147.779 20.231 147.187 19.6894 146.116 19.6894C145.154 19.6894 144.4 20.1435 144.116 20.9143L142.625 20.581C143.075 19.206 144.346 18.4102 146.079 18.4102C148.1 18.4102 149.341 19.5143 149.341 21.3268V27.1476H147.775V22.981C147.45 23.1685 146.996 23.2643 145.862 23.4018C144.587 23.5518 144.033 23.9727 144.033 24.7852C144.033 25.5977 144.591 26.006 145.7 26.006C146.05 26.006 146.333 25.9643 146.579 25.8768L146.733 27.0976C146.304 27.2226 145.875 27.281 145.379 27.281C143.5 27.281 142.441 26.406 142.441 24.8351L142.45 24.831Z" fill="white"/>
<path d="M151.243 24.5271C151.243 23.5313 151.718 22.7688 152.534 22.4479V22.3605C151.676 22.0688 151.234 21.4688 151.234 20.5896C151.234 19.2355 152.243 18.4688 154.005 18.4688C154.468 18.4688 154.872 18.5188 155.243 18.6271L154.989 19.8354C154.755 19.7771 154.522 19.7521 154.272 19.7521C153.33 19.7521 152.801 20.1355 152.801 20.8146C152.801 21.4938 153.305 21.8521 154.18 21.8521H155.33V23.0271H154.197C153.351 23.0271 152.834 23.5437 152.834 24.3812C152.834 25.3812 153.559 26.0063 154.722 26.0063C156.022 26.0063 156.772 25.2271 156.772 23.8729V18.5729H158.347V24.0438C158.347 26.1063 157.022 27.3062 154.73 27.3062C152.576 27.3062 151.243 26.2438 151.243 24.5229V24.5271Z" fill="white"/>
</svg>
