<svg width="164" height="13" viewBox="0 0 164 13" fill="none" xmlns="http://www.w3.org/2000/svg">
<g opacity="0.57">
<path d="M0.701172 11.0801C1.20842 11.3229 2.07955 11.3459 2.90658 11.3872C2.27253 11.1535 1.59436 11.0526 0.701172 11.0801Z" fill="#43C554"/>
<path d="M2.92036 11.3911H2.93092C2.92037 11.3911 2.90982 11.3911 2.90454 11.3911C2.90982 11.3911 2.91508 11.3911 2.92036 11.3965V11.3911Z" fill="#43C554"/>
<path d="M163.372 0.353027C163.168 0.357609 162.931 0.362205 162.694 0.366787C162.92 0.375951 163.151 0.375938 163.372 0.353027Z" fill="#43C554"/>
<path d="M42.9835 12.0693L43.1103 11.666C45.0731 11.6569 43.6837 12.1288 45.4976 12.028C46.2089 11.4553 48.5136 12.083 49.1366 11.7806C49.1201 11.8264 50.0133 11.8447 49.9526 12.0235C50.2228 11.7119 50.8678 11.9502 51.4247 11.8723C51.6287 11.7853 51.2759 11.7806 51.1215 11.6844L52.4061 11.5744C52.9078 11.6752 53.0291 11.8585 52.4888 11.8906C55.841 12.0005 71.9461 12.2846 75.5574 12.1288C75.0943 11.8951 73.975 12.0555 73.556 11.6844C74.5098 11.4782 74.962 11.7577 75.381 11.5377C75.7504 12.0876 77.4817 11.666 78.2039 12.225L78.4796 11.9135L78.9538 12.1014C83.1551 11.7761 79.9131 11.941 83.6348 12.0143C85.7905 11.9639 86.8161 11.5332 88.0125 11.6936C87.8361 11.6936 87.3564 11.5012 87.9188 11.4187C88.0125 11.6936 89.4074 11.2216 89.6776 11.4966C90.2234 11.4599 91.9932 11.4965 91.3978 11.1208C91.701 11.3087 93.2779 11.3819 92.3406 11.5423C92.8755 11.5515 93.3882 11.6066 93.7741 11.5241L93.0905 11.4187C94.8934 11.3637 95.8748 11.6523 97.0436 11.3132L96.3765 11.1667C97.4517 11.1437 98.3559 11.1116 98.7749 11.4828L97.6722 11.5973C99.4586 11.5882 100.534 11.5607 102.022 11.3637L101.493 11.3545C103.39 10.9833 113.309 10.6717 115.051 10.209L114.246 9.92492L115.746 9.68206C115.569 9.68206 115.023 10.6121 114.874 10.5205C118.094 10.493 134.839 10.2594 137.811 10.4518C139.013 10.6076 138.026 10.9055 138.015 10.9513C139.476 10.8413 138.643 10.6488 139.884 10.6718C140.22 10.7222 139.812 10.8963 139.625 10.9375C140.171 10.9055 140.672 11.0016 140.716 10.8688C140.038 10.7634 140.325 10.4105 140.038 10.1768L141.637 10.2044L141.565 10.4289C141.924 10.4335 142.47 9.81485 144.036 9.93398C146.682 10.0302 149.555 9.94779 152.218 9.99819C152.179 10.1311 151.617 10.2135 151.06 10.2914C151.418 10.296 151.958 10.264 152.289 10.3602C151.644 10.1219 153.403 10.1998 152.901 10.099C154.848 9.54913 157.373 10.0486 159.093 9.67288C159.242 9.17801 162.77 1.19138 162.77 0.60487C163.305 0.614034 163.835 0.623153 164 0.673557C163.862 0.536093 162.815 0.471935 162.252 0.549831L162.159 0.866081C160.874 0.976052 161.855 0.678166 160.604 0.701076C160.537 0.444478 161.69 0.389497 162.704 0.362005C161.789 0.334512 160.879 0.146596 160.504 0.426105C159.644 0.320716 160.598 0.109971 159.567 0C158.828 0.0778959 157.863 0.329975 157.014 0.178765L157.031 0.132899C154.974 -0.132863 153.883 0.526978 151.997 0.265798L152.201 0.178765C151.534 0.0321374 150.227 0.229177 149.025 0.0733853C149.367 0.123789 149.665 0.311583 148.943 0.343658C147.564 0.183284 146.621 0.34369 145.612 0.146659L144.648 0.398697C139.845 0.352876 120.879 0.724049 116.054 0.765288L116.242 0.724009C108.892 0.85689 93.8017 0.843157 86.2096 1.19598C85.0352 0.948546 83.4142 1.00809 82.1902 0.939355C82.8739 1.04016 82.6368 1.2189 82.1075 1.20974C78.3748 1.18225 81.8539 1.37921 78.0771 1.48919C73.727 1.72287 57.0816 1.47086 53.2221 1.26008C51.149 1.62665 48.5576 1.3517 46.5287 1.58539L46.7327 1.49836C44.5493 1.63582 32.199 1.30596 29.6628 1.43885L30.0046 1.48919C27.7937 1.71829 28.0969 1.3197 26.3491 1.19598C26.5807 1.60379 24.6841 1.84204 23.9618 1.86954L23.9894 1.77792C22.8977 1.84665 20.4331 2.20397 18.6302 2.26354L18.7019 2.03902C17.2022 2.28187 14.3793 2.18112 13.2986 2.20861C10.8341 2.11697 7.02424 1.72742 3.72715 2.02984L1.59341 1.39298L1.27914 1.45708C1.27914 1.45708 -2.14477 9.18261 2.21092 10.8276L2.13925 11.0521L2.99936 11.0246C4.03039 11.1346 4.51006 10.8733 4.43838 11.0979L3.0214 11.0704C4.05794 11.1346 3.33569 11.2537 2.93872 11.382C3.37428 11.4049 3.79331 11.4278 4.14066 11.4966C4.34466 11.4095 3.99179 11.4049 3.82639 11.3545C4.38325 11.2766 5.16068 11.0658 5.84436 11.1667C6.90847 11.185 5.91052 11.5286 7.15106 11.5515C13.6956 11.721 20.0362 11.9776 26.6524 11.9227C26.8013 12.0143 26.6248 12.0143 26.4319 12.0556C28.4223 11.9593 30.1976 11.9914 32.0116 11.8906C32.5133 11.9914 32.6512 12.1289 32.8 12.2206C32.5023 12.0327 42.8181 12.0097 42.9835 12.0601V12.0693Z" fill="#43C554"/>
</g>
</svg>
