<svg width="164" height="12" viewBox="0 0 164 12" fill="none" xmlns="http://www.w3.org/2000/svg">
<g opacity="0.57">
<path d="M0.701172 10.1837C1.20842 10.4045 2.07955 10.4254 2.90658 10.4629C2.27253 10.2504 1.59436 10.1587 0.701172 10.1837Z" fill="#43C554"/>
<path d="M2.92036 10.4668H2.93092C2.92037 10.4668 2.90982 10.4668 2.90454 10.4668C2.90982 10.4668 2.91508 10.4668 2.92036 10.471V10.4668Z" fill="#43C554"/>
<path d="M163.372 0.429199C163.168 0.433366 162.931 0.437545 162.694 0.441711C162.92 0.450045 163.151 0.450033 163.372 0.429199Z" fill="#43C554"/>
<path d="M42.9835 11.0834L43.1103 10.7167C45.0731 10.7084 43.6837 11.1376 45.4976 11.0459C46.2089 10.5251 48.5136 11.0959 49.1366 10.8209C49.1201 10.8625 50.0133 10.8792 49.9526 11.0417C50.2228 10.7584 50.8678 10.9751 51.4247 10.9043C51.6287 10.8251 51.2759 10.8209 51.1215 10.7334L52.4061 10.6334C52.9078 10.7251 53.0291 10.8917 52.4888 10.9209C55.841 11.0209 71.9461 11.2792 75.5574 11.1376C75.0943 10.9251 73.975 11.0709 73.556 10.7334C74.5098 10.5459 74.962 10.8 75.381 10.6C75.7504 11.1 77.4817 10.7167 78.2039 11.225L78.4796 10.9417L78.9538 11.1126C83.1551 10.8168 79.9131 10.9667 83.6348 11.0334C85.7905 10.9876 86.8161 10.5959 88.0125 10.7417C87.8361 10.7417 87.3564 10.5668 87.9188 10.4918C88.0125 10.7418 89.4074 10.3126 89.6776 10.5626C90.2234 10.5293 91.9932 10.5626 91.3978 10.2209C91.701 10.3917 93.2779 10.4584 92.3406 10.6042C92.8755 10.6125 93.3882 10.6626 93.7741 10.5876L93.0905 10.4918C94.8934 10.4418 95.8748 10.7042 97.0436 10.3959L96.3765 10.2626C97.4517 10.2418 98.3559 10.2126 98.7749 10.5501L97.6722 10.6543C99.4586 10.6459 100.534 10.6209 102.022 10.4418L101.493 10.4334C103.39 10.0959 113.309 9.81258 115.051 9.39174L114.246 9.13346L115.746 8.91262C115.569 8.91262 115.023 9.75838 114.874 9.67505C118.094 9.65005 134.839 9.43759 137.811 9.61259C139.013 9.75426 138.026 10.0251 138.015 10.0668C139.476 9.96679 138.643 9.79175 139.884 9.81258C140.22 9.85841 139.812 10.0168 139.625 10.0543C140.171 10.0251 140.672 10.1126 140.716 9.99172C140.038 9.89589 140.325 9.57505 140.038 9.36255L141.637 9.38757L141.565 9.59174C141.924 9.5959 142.47 9.03337 144.036 9.1417C146.682 9.2292 149.555 9.15426 152.218 9.20009C152.179 9.32093 151.617 9.39588 151.06 9.46672C151.418 9.47088 151.958 9.44178 152.289 9.52928C151.644 9.31261 153.403 9.38341 152.901 9.29175C154.848 8.79175 157.373 9.24594 159.093 8.90428C159.242 8.45428 162.77 1.19176 162.77 0.658427C163.305 0.66676 163.835 0.675053 164 0.720886C163.862 0.595886 162.815 0.537545 162.252 0.608378L162.159 0.895955C160.874 0.995955 161.855 0.725077 160.604 0.745911C160.537 0.512577 161.69 0.462581 162.704 0.437581C161.789 0.412581 160.879 0.241703 160.504 0.49587C159.644 0.400037 160.598 0.208398 159.567 0.108398C158.828 0.179232 157.863 0.408455 157.014 0.270955L157.031 0.229248C154.974 -0.0124186 153.883 0.587598 151.997 0.350098L152.201 0.270955C151.534 0.137622 150.227 0.316797 149.025 0.17513C149.367 0.220964 149.665 0.391732 148.943 0.420898C147.564 0.275065 146.621 0.420927 145.612 0.24176L144.648 0.470947C139.845 0.429281 120.879 0.766801 116.054 0.804301L116.242 0.766764C108.892 0.887598 93.8017 0.87511 86.2096 1.19594C85.0352 0.970943 83.4142 1.02509 82.1902 0.962585C82.8739 1.05425 82.6368 1.21679 82.1075 1.20846C78.3748 1.18346 81.8539 1.36257 78.0771 1.46257C73.727 1.67507 57.0816 1.4459 53.2221 1.25423C51.149 1.58757 48.5576 1.33755 46.5287 1.55005L46.7327 1.47091C44.5493 1.59591 32.199 1.29596 29.6628 1.41679L30.0046 1.46257C27.7937 1.6709 28.0969 1.30844 26.3491 1.19594C26.5807 1.56678 24.6841 1.78343 23.9618 1.80843L23.9894 1.72512C22.8977 1.78762 20.4331 2.11254 18.6302 2.16671L18.7019 1.96254C17.2022 2.18338 14.3793 2.09176 13.2986 2.11676C10.8341 2.03343 7.02424 1.6792 3.72715 1.9542L1.59341 1.37508L1.27914 1.43337C1.27914 1.43337 -2.14477 8.45845 2.21092 9.95428L2.13925 10.1584L2.99936 10.1334C4.03039 10.2334 4.51006 9.99589 4.43838 10.2001L3.0214 10.1751C4.05794 10.2335 3.33569 10.3418 2.93872 10.4584C3.37428 10.4793 3.79331 10.5001 4.14066 10.5626C4.34466 10.4834 3.99179 10.4792 3.82639 10.4334C4.38325 10.3626 5.16068 10.1709 5.84436 10.2626C6.90847 10.2793 5.91052 10.5917 7.15106 10.6125C13.6956 10.7667 20.0362 11.0001 26.6524 10.9501C26.8013 11.0334 26.6248 11.0334 26.4319 11.0709C28.4223 10.9834 30.1976 11.0125 32.0116 10.9209C32.5133 11.0125 32.6512 11.1376 32.8 11.221C32.5023 11.0501 42.8181 11.0293 42.9835 11.0751V11.0834Z" fill="#43C554"/>
</g>
</svg>
