<svg width="192" height="53" viewBox="0 0 192 53" fill="none" xmlns="http://www.w3.org/2000/svg">
<path d="M4.17786 1.82812L4.08203 1.84064C4.12786 1.84064 4.16536 1.84062 4.17786 1.82812Z" fill="#20BB65"/>
<path d="M4.82812 5.26589C4.82812 5.26589 4.84065 5.26589 4.84898 5.26172C4.84065 5.26172 4.83646 5.26172 4.82812 5.26589Z" fill="#20BB65"/>
<path d="M0.911718 2.47878C0.911718 2.47878 0.895052 2.47878 0.886719 2.47461H0.911718V2.47878Z" fill="#20BB65"/>
<path d="M1.18153 1.51982C1.05236 1.76148 0.602375 1.82393 0.781542 2.09477C0.739875 2.22393 0.852374 2.35734 0.910707 2.48234C1.26487 2.52817 0.919036 2.64475 1.21904 2.69891L1.02319 2.73645C1.12736 2.75728 1.19404 2.77808 1.08987 2.80725H1.03153C1.1857 2.83642 1.09821 2.88234 1.17321 2.89484H1.11487L1.14404 2.93644H1.0607C1.2232 2.98644 1.23987 3.04901 1.16904 3.11151L1.41071 3.08649C1.15238 3.22815 1.65654 3.22395 1.3482 3.36145H1.28986C1.93986 3.42812 0.881533 3.63647 1.50237 3.69897C1.4232 3.69064 1.38154 3.72401 1.3232 3.73234C1.40237 3.78651 1.4482 3.84895 1.91486 3.77812C1.91486 3.82395 1.77319 3.83644 1.59402 3.86977C1.79819 3.83644 1.88986 3.86146 1.91069 3.8948H1.82738L1.91486 3.98228L2.29819 3.89897C2.19819 3.9698 1.82738 3.99482 1.93155 4.02816L2.25236 3.96977C2.20236 4.0531 1.72737 4.18229 1.50237 4.30312C1.42737 4.65312 2.3107 4.76567 1.8357 5.1865L1.60236 5.26565C1.2607 5.37398 2.13154 5.19484 1.81904 5.29901L1.98569 5.28233C1.92736 5.3115 1.86903 5.34897 1.7857 5.3573C1.7857 5.39063 1.83987 5.37397 1.9482 5.36564L1.74821 5.46564C1.62321 5.64064 2.06487 5.60311 2.0232 5.75311C1.65237 6.05311 2.1482 6.19892 2.43987 6.24892C2.73153 6.24892 2.5732 6.44891 2.43987 6.65725C2.30237 6.86141 2.17736 7.07816 2.50652 7.04899C2.46486 7.07816 2.57736 7.04897 2.61069 7.02814L2.66903 7.24898C2.66903 7.24898 2.7732 7.50733 3.14403 7.474C3.5232 7.45317 4.11902 7.08228 5.23985 6.06561L5.31071 6.03225C5.42737 5.86141 5.44403 5.79892 5.06903 5.93225C5.4857 5.69475 5.07737 5.84478 5.20654 5.75311L5.24403 5.73643C4.88986 5.85726 5.46487 5.50317 5.1482 5.60734C5.18153 5.59067 5.30238 5.53228 5.31488 5.54061C5.24404 5.53644 5.12736 5.53642 5.37736 5.41142C5.2732 5.36558 5.33986 5.20728 4.9107 5.33228L4.98152 5.30308C4.69402 5.39475 4.92321 5.28225 4.76904 5.30725C4.80238 5.29058 4.81903 5.28232 4.83153 5.27399C4.54403 5.35732 4.74819 5.19476 4.61903 5.2156L4.78987 5.1448L4.72319 5.09475L4.69402 5.13645C4.21486 5.31562 4.9732 4.9698 4.6482 5.04063C4.69403 4.97396 3.61904 5.31566 3.83154 5.17399C3.59821 5.22816 4.20652 5.06568 4.01902 5.09068C4.26902 4.99901 4.18154 5.05316 4.37738 4.96983C4.24404 4.97816 4.61488 4.82397 4.43155 4.84064L4.62737 4.76984C4.25237 4.8365 4.85237 4.58233 4.4982 4.65733C4.31487 4.65316 5.07321 4.43644 4.66488 4.49894L4.92735 4.39478C4.96485 4.35728 4.59404 4.47813 4.71488 4.41146C4.88571 4.36146 4.83986 4.33646 5.00652 4.30729C5.25652 4.17396 4.59404 4.29062 5.02321 4.09062C4.68571 4.16145 4.87319 4.06981 4.61903 4.11981C4.76486 4.08231 4.62321 4.0323 4.94821 3.99896C4.97321 3.99896 4.9732 4.00315 4.91487 4.01982L5.11486 3.97394C5.47736 3.8406 4.88986 3.94479 4.9357 3.88645C4.8732 3.91562 4.89403 3.92808 4.75653 3.94891L4.77319 3.89897L4.94404 3.86977L5.02738 3.78646L4.82319 3.84068C4.92319 3.78651 5.27321 3.70317 4.97321 3.72817C4.80654 3.74484 4.6982 3.81563 4.62737 3.7948C4.7607 3.72397 4.96486 3.61977 5.01486 3.55727C4.78153 3.60727 4.7857 3.59063 4.7357 3.5823L4.93987 3.54476C4.64403 3.54059 5.3857 3.44475 5.1482 3.43225L5.28988 3.4115L4.8607 3.46979C4.4482 3.48645 5.28152 3.374 4.71902 3.40733C4.75652 3.424 4.26904 3.4906 4.35238 3.44893L4.55237 3.42401C4.50654 3.41568 4.42319 3.424 4.46486 3.40733C4.57319 3.399 4.75238 3.36977 4.71488 3.34894L4.96487 3.32808L4.59403 3.3406C4.80236 3.2781 4.52736 3.26151 4.80653 3.21151C4.80653 3.21151 4.93153 3.12394 4.62737 3.14478C4.81903 3.13644 4.88986 3.08647 5.11486 3.07397C4.89819 3.08231 4.71487 3.04901 4.94404 3.00317H4.96904C5.1982 2.90317 4.63153 2.90308 4.9107 2.80308C4.66903 2.82808 4.7982 2.77809 4.49403 2.81142C4.1857 2.75309 5.1107 2.63231 4.15653 2.66148C4.10236 2.62815 4.37737 2.60734 4.4232 2.58651H4.4732C4.38987 2.53234 4.38154 2.51149 4.40238 2.46149C4.31071 2.44065 3.86903 2.4531 3.9732 2.4031C4.1482 2.41143 4.11487 2.39484 4.11487 2.37817C4.14404 2.38651 4.20654 2.39066 4.32321 2.36566C4.26904 2.36566 4.2357 2.36149 4.20653 2.35732C4.21903 2.35732 4.23154 2.35732 4.24821 2.35732C4.18571 2.33232 4.13153 2.33648 4.10653 2.34898C4.08153 2.34898 4.04403 2.34899 3.9982 2.35732C4.2232 2.32399 3.98153 2.274 4.28153 2.26567C4.20653 2.18233 3.89819 2.12399 3.78152 2.04482C3.93569 2.03649 4.0732 2.05725 4.1357 2.07808L4.08153 2.02814C4.30653 2.02814 4.21069 2.05725 4.25236 2.07391C4.61486 2.01975 3.89402 1.94476 4.22736 1.87809L4.05236 1.85734H4.08153C3.98987 1.85317 3.86071 1.8323 3.83154 1.8198C4.02738 1.81564 4.27737 1.83228 4.26904 1.79895C4.45654 1.77812 4.17736 1.7156 4.07736 1.67393C4.04403 1.6906 3.9357 1.68226 3.86903 1.67393C3.86486 1.65726 4.05653 1.65316 3.9732 1.63649L4.2357 1.64901C3.98987 1.64484 3.97319 1.5906 3.86486 1.5781C4.06069 1.5781 4.03153 1.61565 4.17736 1.62815C4.15653 1.55732 4.16488 1.59065 4.14404 1.51982C3.94821 1.46982 3.89403 1.51144 3.66487 1.47811C3.61487 1.44061 3.43154 1.39476 3.59404 1.36143H3.36071C3.18571 1.2781 3.21487 1.23649 3.45653 1.21149C2.53153 0.878153 1.89403 0.765625 1.47737 0.765625C1.06487 0.765625 0.881538 0.869792 0.881538 0.869792C0.348204 1.06979 1.01069 1.25317 1.18153 1.54067V1.51982Z" fill="#20BB65"/>
<path d="M13.3066 11.6875V11.7917C13.3191 11.75 13.3233 11.7083 13.3066 11.6875Z" fill="#20BB65"/>
<path d="M21.4258 13.6263C21.4258 13.6263 21.4341 13.6138 21.4383 13.6055C21.4299 13.6138 21.4299 13.618 21.4258 13.6263Z" fill="#20BB65"/>
<path d="M13.546 15.2051C13.546 15.2051 13.5376 15.2176 13.5293 15.2259L13.546 15.2051Z" fill="#20BB65"/>
<path d="M11.9053 14.3793C12.3136 14.646 12.2886 15.1251 12.8219 15.1043C13.0344 15.2126 13.3094 15.1918 13.5469 15.2085C13.7553 14.9043 13.8386 15.2918 14.0469 15.046L14.0386 15.2502C14.1095 15.1668 14.1803 15.1126 14.1928 15.2293L14.1719 15.2835C14.2761 15.1544 14.3261 15.2626 14.3761 15.2001L14.3553 15.2543H14.4386L14.4011 15.3293C14.5553 15.2085 14.6719 15.2293 14.7553 15.3293L14.8136 15.0919C14.9553 15.4127 15.1678 14.946 15.2761 15.3085L15.2595 15.3627C15.6678 14.8085 15.5386 15.8877 15.9428 15.3627C15.8928 15.4293 15.9261 15.4876 15.9095 15.5418C16.0428 15.5043 16.1761 15.5002 16.2928 15.0377C16.3761 15.0668 16.3261 15.2002 16.2928 15.3794C16.3428 15.1752 16.4344 15.1126 16.5053 15.1168L16.4553 15.1877L16.6594 15.1668L16.7136 14.7752C16.7886 14.9085 16.6261 15.246 16.747 15.1752L16.822 14.8585C16.9428 14.9544 16.9136 15.4502 16.9928 15.7169C17.5261 15.9835 18.2969 15.3001 18.7053 15.9626L18.6803 16.2085C18.6219 16.5627 18.9261 15.7168 18.8844 16.046L18.9761 15.896C18.9803 15.9627 19.0053 16.0377 18.9595 16.1085C19.0136 16.1335 19.0261 16.0752 19.0886 15.9793L19.1053 16.2085C19.2969 16.421 19.5636 16.0335 19.7803 16.1626C19.9803 16.6626 20.5844 16.3418 20.9261 16.1543C21.4344 15.696 21.7136 17.1835 22.2469 16.6419C22.2553 16.696 22.3095 16.5877 22.3136 16.546L22.7095 16.6544C22.7095 16.6544 23.1928 16.7543 23.5386 16.4668C23.8886 16.1751 24.0845 15.4919 23.5678 13.9252L23.5886 13.8501C23.4011 13.6335 23.2761 13.5752 23.072 13.9419C23.1178 13.4627 22.9053 13.8668 22.8761 13.7043L22.8886 13.6668C22.7053 14.0126 22.6678 13.3252 22.4928 13.6335C22.5053 13.596 22.5261 13.4668 22.5553 13.4626C22.4553 13.5085 22.3136 13.596 22.3511 13.321C22.1219 13.3585 21.8428 13.1835 21.6344 13.6002L21.6553 13.5252C21.5261 13.8085 21.547 13.5543 21.4303 13.6877C21.4303 13.6502 21.4303 13.6294 21.4303 13.6169C21.297 13.896 21.1719 13.6169 21.0803 13.7335L21.1053 13.5501L20.9261 13.5626L20.9844 13.6127C20.8761 14.1127 20.9095 13.2752 20.7303 13.5793C20.6261 13.496 20.3095 14.5835 20.2303 14.3127C20.1303 14.5377 20.3511 13.9418 20.2303 14.1043C20.2761 13.8418 20.3011 13.946 20.3178 13.7335C20.2094 13.8419 20.2303 13.4418 20.0928 13.596L20.1261 13.3918C19.922 13.7377 19.922 13.0752 19.7636 13.4127C19.5928 13.5544 19.7844 12.7918 19.5636 13.1627V12.8752C19.5094 12.8168 19.4511 13.2043 19.4094 13.0585C19.4469 12.8877 19.3511 12.9043 19.4219 12.746C19.3219 12.446 19.0303 13.0669 18.9219 12.571C18.8094 12.896 18.7469 12.6751 18.6636 12.921C18.6886 12.7751 18.4636 12.8543 18.647 12.5585C18.6636 12.5335 18.6803 12.5418 18.6636 12.6001L18.7178 12.4043C18.6844 12.0043 18.4636 12.5669 18.3636 12.4835C18.3844 12.5585 18.4303 12.5502 18.3719 12.6794L18.2719 12.6293L18.3303 12.4669L18.1928 12.3335L18.1678 12.546C18.1136 12.4252 18.1678 12.0627 18.0136 12.3377C17.9386 12.4918 18.0219 12.6335 17.9261 12.6794C17.8553 12.5127 17.7511 12.2669 17.6344 12.1752C17.5928 12.4127 17.5594 12.396 17.5136 12.4335L17.5553 12.2293C17.3511 12.4793 17.6095 11.7752 17.4178 11.9669L17.4636 11.8293L17.3261 12.2418C17.1053 12.6127 17.3594 11.8085 17.0928 12.3168C17.1553 12.296 17.0094 12.7668 16.9636 12.6627L17.0303 12.471C16.9845 12.5044 16.9511 12.5793 16.9344 12.5335C16.9844 12.4335 17.0178 12.2544 16.9511 12.2752L17.0469 12.0418L16.8553 12.3752C16.8261 12.146 16.6344 12.3751 16.6719 12.096C16.6719 12.096 16.5344 11.921 16.4219 12.2085C16.5053 12.0335 16.4303 11.9377 16.5136 11.7252C16.4136 11.9252 16.2386 12.0627 16.247 11.8252L16.2636 11.8043C16.1344 11.5252 15.8511 12.0335 15.7553 11.7043C15.697 11.9377 15.6428 11.7876 15.5844 12.0876C15.3219 12.3293 15.4345 11.3918 15.1053 12.2876C15.0095 12.3126 15.0719 12.046 15.0428 11.9876L15.0761 11.946C14.9011 11.9752 14.8553 11.971 14.7511 11.9168C14.6678 11.9877 14.5303 12.4085 14.4594 12.2752C14.5428 12.1169 14.4928 12.1377 14.4553 12.1252C14.4886 12.1043 14.5136 12.046 14.5011 11.921C14.4761 11.971 14.4594 12.0002 14.4386 12.021C14.4386 12.0085 14.4428 11.996 14.4511 11.9793C14.372 12.021 14.3636 12.0751 14.3844 12.1085C14.3761 12.1335 14.3678 12.1668 14.3636 12.2168C14.3636 11.9793 14.1761 12.1751 14.2594 11.8835C14.0511 11.8876 13.8219 12.1418 13.6261 12.2001C13.6594 12.046 13.7386 11.9293 13.8011 11.8876L13.672 11.9043C13.7428 11.6918 13.7761 11.8043 13.8261 11.771C13.8095 11.3835 13.4386 12.0252 13.3928 11.6544L13.3011 11.8085V11.7793C13.2719 11.8668 13.1969 11.9751 13.1636 11.996C13.2053 11.8043 13.3136 11.5751 13.2344 11.5585C13.2344 11.3626 13.0345 11.5876 12.9178 11.6584C12.947 11.7043 12.8969 11.8002 12.8553 11.8585C12.8136 11.8502 12.8553 11.6627 12.8011 11.7293L12.8886 11.4793C12.8178 11.7168 12.6969 11.6918 12.6469 11.7876C12.6928 11.596 12.7636 11.6543 12.8219 11.5168C12.6636 11.4835 12.7428 11.5001 12.5844 11.4668C12.4344 11.621 12.5095 11.7043 12.3928 11.9043C12.3011 11.9252 12.1678 12.071 12.1428 11.8918L12.0845 12.1168C11.8803 12.2335 11.8094 12.1752 11.8053 11.921C10.9469 12.596 10.6261 13.1627 10.5428 13.5752C10.4595 13.9835 10.6094 14.2335 10.6094 14.2335C10.8511 14.8919 11.3303 14.3419 11.9011 14.3627L11.9053 14.3793Z" fill="#20BB65"/>
<path d="M34.6133 14.9688L34.6425 15.0687C34.6425 15.0229 34.6383 14.9854 34.6133 14.9688Z" fill="#20BB65"/>
<path d="M43.1348 15.1965C43.1348 15.1965 43.1389 15.1841 43.1431 15.1758C43.1389 15.1841 43.1348 15.1882 43.1348 15.1965Z" fill="#20BB65"/>
<path d="M35.7759 18.293C35.7759 18.293 35.7717 18.3055 35.7676 18.318L35.7801 18.293H35.7759Z" fill="#20BB65"/>
<path d="M34.0469 17.9478C34.4969 18.0894 34.5969 18.5478 35.0802 18.3853C35.3052 18.4311 35.5511 18.3395 35.7761 18.2936C35.8969 17.9478 36.0677 18.3019 36.2011 18.0102L36.2427 18.2103C36.2886 18.1103 36.3427 18.0436 36.3802 18.1561V18.2145C36.4469 18.0645 36.5136 18.1603 36.5469 18.0853V18.1436L36.6219 18.1227L36.6052 18.2061C36.7219 18.052 36.8386 18.0436 36.9344 18.1227V17.8811C37.1427 18.1603 37.2386 17.6603 37.4219 17.9895V18.0477C37.6844 17.4186 37.7927 18.4936 38.0677 17.8978C38.0344 17.9728 38.0761 18.0228 38.0719 18.0811C38.1927 18.0144 38.3177 17.9852 38.3344 17.5102C38.4177 17.5186 38.3969 17.6603 38.4052 17.8436C38.4094 17.6353 38.4886 17.5519 38.5552 17.5394L38.5219 17.6186L38.7136 17.5519L38.6886 17.1561C38.7844 17.2728 38.7011 17.6353 38.7969 17.5436L38.8052 17.2186C38.9427 17.2853 39.0094 17.7811 39.1386 18.0269C39.6969 18.1811 40.3219 17.3686 40.8302 17.9519L40.8469 18.1978C40.8469 18.5561 41.0011 17.6728 41.0136 18.002L41.0761 17.8394C41.0927 17.9019 41.1261 17.9728 41.0927 18.0519C41.1469 18.0686 41.1511 18.0103 41.1927 17.902L41.2469 18.1269C41.4636 18.3061 41.6636 17.8769 41.8927 17.9686C42.1636 18.4269 42.7011 18.0186 43.0094 17.7811C43.4427 17.252 43.9219 18.6811 44.3677 18.0769C44.3802 18.1269 44.4177 18.0144 44.4177 17.9728L44.8177 18.0269C44.8177 18.0269 46.7511 18.1769 45.3052 15.2061L45.3136 15.1269C45.0969 14.9352 44.9636 14.8936 44.8094 15.2853C44.7886 14.8061 44.6302 15.2353 44.5802 15.077V15.0394C44.4511 15.4061 44.3177 14.7311 44.1844 15.0603C44.1886 15.0228 44.1927 14.8895 44.2219 14.8811C44.1302 14.9395 44.0011 15.0478 43.9969 14.7686C43.7761 14.8395 43.4677 14.7061 43.3177 15.1519L43.3302 15.0728C43.2469 15.3728 43.226 15.1144 43.1302 15.2686C43.126 15.2311 43.1177 15.2144 43.1219 15.1977C43.0302 15.4935 42.8636 15.2394 42.7886 15.3644V15.177L42.6094 15.2186L42.6761 15.2603C42.6469 15.7686 42.5469 14.9394 42.4136 15.2686C42.2969 15.2019 42.1552 16.3228 42.0344 16.0728C41.9719 16.3103 42.0927 15.6853 42.0011 15.8686C42.0011 15.6019 42.0469 15.702 42.0261 15.4895C41.9386 15.6145 41.8886 15.2145 41.7802 15.3936V15.1853C41.6344 15.5603 41.5219 14.9061 41.4219 15.2686C41.2761 15.4353 41.3386 14.6519 41.1802 15.0519L41.126 14.7686C41.0635 14.7228 41.0719 15.1103 41.0052 14.9728C41.0136 14.7978 40.9177 14.8311 40.9636 14.6645C40.8094 14.3853 40.6302 15.0477 40.4261 14.5769C40.3719 14.9186 40.2719 14.7145 40.2302 14.9686C40.2302 14.8186 40.0177 14.9394 40.1469 14.6186C40.1594 14.5936 40.1761 14.5978 40.1719 14.6561L40.1927 14.452C40.0802 14.0645 39.9677 14.6602 39.8511 14.5977C39.8844 14.6644 39.9302 14.6477 39.8969 14.7894L39.7886 14.7603L39.8177 14.5894L39.6552 14.4852L39.6719 14.6977C39.5927 14.5852 39.5761 14.2228 39.4761 14.5228C39.4302 14.6894 39.5427 14.8103 39.4594 14.877C39.3552 14.7311 39.2011 14.5061 39.0636 14.4395C39.0677 14.677 39.0344 14.6686 38.9927 14.7144V14.5061C38.8386 14.7894 38.9552 14.0477 38.8011 14.2727L38.8177 14.127L38.7677 14.5603C38.6219 14.9686 38.7094 14.1269 38.5469 14.6852C38.6052 14.6519 38.5594 15.1436 38.4927 15.0519L38.5177 14.8519C38.4761 14.8936 38.4594 14.9769 38.4386 14.9353C38.4636 14.8269 38.4594 14.6435 38.4011 14.6769L38.4469 14.4269L38.3261 14.7936C38.2469 14.5769 38.1052 14.8395 38.0802 14.5561C38.0802 14.5561 37.9052 14.4103 37.8511 14.7186C37.8927 14.5269 37.7969 14.4519 37.8344 14.2269C37.7802 14.4436 37.6344 14.6144 37.5886 14.3811L37.6011 14.3561C37.4052 14.1145 37.2386 14.6686 37.0677 14.3727C37.0677 14.6144 36.9761 14.4769 36.9886 14.7894C36.7844 15.0852 36.6677 14.1519 36.5594 15.0977C36.4719 15.1436 36.4677 14.8686 36.4219 14.8186L36.4427 14.7686C36.2761 14.8395 36.2302 14.8477 36.1094 14.8186C36.0469 14.9102 36.0177 15.3478 35.9136 15.2394C35.9552 15.0644 35.9136 15.0977 35.8719 15.0935C35.8969 15.0685 35.9094 15.002 35.8635 14.8811C35.8552 14.9353 35.8427 14.9686 35.8302 14.9936C35.8302 14.9811 35.8302 14.9686 35.8302 14.9519C35.7594 15.0103 35.7677 15.0644 35.8011 15.0935C35.8011 15.1185 35.8011 15.1561 35.8052 15.2019C35.7469 14.9727 35.6094 15.2102 35.6136 14.9061C35.4094 14.9686 35.2469 15.2728 35.0761 15.3811C35.0636 15.227 35.1094 15.0894 35.1636 15.0311L35.0427 15.0811C35.0552 14.8561 35.1177 14.9561 35.1552 14.9144C35.0302 14.5477 34.8427 15.2602 34.6927 14.9227L34.6511 15.0977L34.6427 15.0686C34.6386 15.1603 34.5927 15.2852 34.5677 15.3144C34.5552 15.1186 34.5927 14.8645 34.5094 14.8728C34.4552 14.6811 34.3177 14.9561 34.2261 15.0561C34.2719 15.0894 34.2511 15.1978 34.2261 15.2644C34.1844 15.2686 34.1719 15.0728 34.1344 15.1561L34.1427 14.8936C34.1427 15.1436 34.0219 15.1561 34.0011 15.2603C33.9886 15.0644 34.076 15.0978 34.0927 14.9519C33.926 14.9686 34.0094 14.9603 33.8427 14.977C33.7427 15.1686 33.8427 15.2269 33.7886 15.4519C33.7094 15.4978 33.6219 15.6769 33.5386 15.5144L33.5552 15.7477C33.3969 15.9186 33.3094 15.8894 33.2261 15.6477C32.0136 17.4769 32.8386 18.2227 32.8386 18.2227C33.2469 18.7644 33.5135 18.0977 34.0427 17.9436L34.0469 17.9478Z" fill="#20BB65"/>
<path d="M56.4863 15.166L56.5196 15.2618C56.5196 15.216 56.5072 15.1785 56.4863 15.166Z" fill="#20BB65"/>
<path d="M65.0234 14.9193C65.0234 14.9193 65.0276 14.9068 65.0318 14.8984C65.0276 14.9068 65.0234 14.9151 65.0234 14.9193Z" fill="#20BB65"/>
<path d="M57.8619 18.3984C57.8619 18.3984 57.8577 18.4151 57.8535 18.4235L57.8619 18.3984Z" fill="#20BB65"/>
<path d="M56.1283 18.178C56.5824 18.2821 56.7116 18.7321 57.1783 18.5362C57.4033 18.5654 57.6408 18.4571 57.8574 18.3988C57.9533 18.0446 58.1449 18.3863 58.2616 18.0863L58.3116 18.2863C58.3533 18.1863 58.3991 18.1154 58.4449 18.2196V18.278C58.5033 18.1238 58.5783 18.2154 58.6074 18.1363V18.1946L58.6824 18.1654L58.6699 18.2488C58.7783 18.0863 58.8907 18.0738 58.9907 18.1446L58.9783 17.903C59.1991 18.1697 59.2658 17.6655 59.4658 17.9821V18.0404C59.6949 17.3946 59.8616 18.4654 60.0991 17.8529C60.0699 17.9279 60.1158 17.9779 60.1158 18.0363C60.2324 17.9654 60.3532 17.9238 60.3449 17.4488C60.4282 17.453 60.4158 17.5946 60.4324 17.778C60.4283 17.5696 60.4991 17.4821 60.5658 17.4655L60.5366 17.5446L60.7241 17.4696L60.6783 17.0779C60.7824 17.1904 60.7158 17.5571 60.8074 17.4571L60.7991 17.1321C60.9408 17.1946 61.0324 17.6821 61.1741 17.9196C61.7366 18.0446 62.3158 17.1988 62.8491 17.7613L62.8783 18.0072C62.8991 18.3655 63.0074 17.4737 63.0366 17.8029L63.0949 17.6363C63.1116 17.6988 63.1491 17.7654 63.1241 17.8488C63.1824 17.8613 63.1783 17.803 63.2158 17.6947L63.2824 17.9154C63.5074 18.0821 63.6824 17.6488 63.9199 17.7321C64.2116 18.1779 64.7241 17.7487 65.0199 17.4987C65.4283 16.9529 65.9658 18.3654 66.3824 17.7446C66.3991 17.7946 66.4324 17.6821 66.4283 17.6404L66.8283 17.6821C66.8283 17.6821 68.7616 17.7696 67.2033 14.8488L67.2116 14.7697C66.9866 14.5863 66.8491 14.5488 66.7116 14.9446C66.6741 14.4655 66.5324 14.8988 66.4741 14.7446V14.7071C66.3574 15.0779 66.1949 14.4071 66.0783 14.7405C66.0783 14.703 66.0783 14.5697 66.1116 14.5613C66.0199 14.6238 65.8949 14.7321 65.8824 14.453C65.6616 14.5321 65.3491 14.4113 65.2199 14.8613L65.2283 14.7821C65.1574 15.0862 65.1241 14.828 65.0366 14.9863C65.0324 14.9488 65.0241 14.9321 65.0241 14.9154C64.9449 15.2154 64.7658 14.9696 64.6991 15.0987L64.6908 14.9154L64.5158 14.9613L64.5824 14.9987C64.5741 15.5112 64.4408 14.6821 64.3199 15.0154C64.1991 14.9529 64.1074 16.0821 63.9741 15.8362C63.9199 16.0779 64.0158 15.4487 63.9324 15.6321C63.9241 15.3654 63.9699 15.4654 63.9408 15.253C63.8574 15.3821 63.7908 14.9863 63.6908 15.1655L63.6824 14.9571C63.5533 15.3405 63.4116 14.6905 63.3283 15.053C63.1866 15.228 63.2158 14.4405 63.0741 14.8488L63.0074 14.5697C62.9408 14.5238 62.9699 14.9154 62.8949 14.7821C62.8949 14.6071 62.8033 14.6446 62.8408 14.4737C62.6741 14.2029 62.5241 14.8738 62.2991 14.4113C62.2616 14.7571 62.1491 14.5529 62.1199 14.8113C62.1116 14.6613 61.9033 14.7905 62.0158 14.4655C62.0241 14.4405 62.0449 14.4446 62.0449 14.5029L62.0533 14.2988C61.9241 13.9154 61.8408 14.5155 61.7158 14.4613C61.7533 14.528 61.7991 14.5071 61.7699 14.6488L61.6574 14.6238L61.6783 14.453L61.5116 14.3572L61.5408 14.5697C61.4574 14.4613 61.4199 14.1029 61.3366 14.4071C61.2991 14.5779 61.4199 14.6905 61.3366 14.7613C61.2241 14.6196 61.0574 14.4071 60.9158 14.3446C60.9324 14.5821 60.8949 14.5738 60.8616 14.6238L60.8533 14.4154C60.7116 14.7071 60.7908 13.9613 60.6491 14.1946L60.6574 14.0488L60.6283 14.4821C60.5074 14.8946 60.5491 14.0529 60.4158 14.6196C60.4741 14.5821 60.4533 15.078 60.3783 14.9863L60.3908 14.7862C60.3533 14.8279 60.3408 14.9155 60.3158 14.8738C60.3366 14.7655 60.3199 14.5821 60.2658 14.6196L60.2991 14.3696L60.1991 14.7405C60.1116 14.528 59.9824 14.7988 59.9408 14.5196C59.9408 14.5196 59.7574 14.3862 59.7199 14.6946C59.7532 14.5029 59.6491 14.4321 59.6741 14.2029C59.6324 14.4196 59.4949 14.6029 59.4366 14.3737L59.4449 14.3488C59.2324 14.1155 59.0991 14.6821 58.9074 14.3988C58.9199 14.6404 58.8199 14.5113 58.8491 14.8196C58.6658 15.1279 58.4866 14.203 58.4366 15.1571C58.3491 15.2113 58.3283 14.9362 58.2824 14.8904L58.3033 14.8405C58.1408 14.9238 58.0949 14.9321 57.9741 14.9154C57.9158 15.0113 57.9158 15.4529 57.8033 15.3488C57.8366 15.1738 57.7908 15.2071 57.7491 15.2071C57.7741 15.1779 57.7824 15.1154 57.7241 14.9987C57.7158 15.0529 57.7074 15.0863 57.6949 15.1154C57.6949 15.1029 57.6949 15.0905 57.6949 15.0738C57.6283 15.1363 57.6408 15.1904 57.6741 15.2154C57.6741 15.2404 57.6741 15.2779 57.6866 15.3238C57.6116 15.0988 57.4908 15.3446 57.4783 15.0404C57.2783 15.1154 57.1366 15.4321 56.9699 15.5529C56.9491 15.3988 56.9866 15.2612 57.0324 15.1987L56.9116 15.2571C56.9116 15.0321 56.9783 15.128 57.0158 15.0822C56.8658 14.7238 56.7283 15.4488 56.5533 15.1238L56.5199 15.3029L56.5074 15.2738C56.5074 15.3655 56.4741 15.4946 56.4491 15.5279C56.4199 15.3321 56.4449 15.0779 56.3616 15.0946C56.2908 14.9071 56.1783 15.1947 56.0908 15.2988C56.1366 15.3322 56.1241 15.4405 56.1074 15.5072C56.0658 15.5155 56.0408 15.3196 56.0074 15.4071L55.9991 15.1446C56.0199 15.3904 55.8949 15.4154 55.8824 15.5237C55.8574 15.3279 55.9449 15.3529 55.9533 15.2071C55.7866 15.2362 55.8699 15.2196 55.7033 15.2488C55.6158 15.4488 55.7241 15.4946 55.6866 15.7279C55.6074 15.7821 55.5366 15.9655 55.4449 15.8113L55.4783 16.0446C55.3324 16.2279 55.2449 16.2029 55.1408 15.9696C54.0741 17.8946 54.9491 18.5696 54.9491 18.5696C55.3908 19.0738 55.6033 18.3905 56.1158 18.1946L56.1283 18.178Z" fill="#20BB65"/>
<path d="M78.3965 14.5195L78.434 14.6154C78.434 14.5695 78.4215 14.532 78.3965 14.5195Z" fill="#20BB65"/>
<path d="M86.9551 14.1791C86.9551 14.1791 86.9592 14.1665 86.9634 14.1582C86.9592 14.1665 86.9551 14.1749 86.9551 14.1791Z" fill="#20BB65"/>
<path d="M79.8306 17.7363C79.8306 17.7447 79.8264 17.753 79.8223 17.7614L79.8306 17.7363Z" fill="#20BB65"/>
<path d="M78.0926 17.5366C78.551 17.6366 78.6843 18.0866 79.1468 17.8866C79.3718 17.9158 79.6051 17.8033 79.8218 17.7408C79.9134 17.3866 80.1093 17.7241 80.2218 17.4241L80.276 17.6199C80.3135 17.5157 80.3635 17.4491 80.4093 17.5533V17.6116C80.4676 17.4574 80.5426 17.545 80.5718 17.47V17.5283L80.6468 17.4991L80.6385 17.5825C80.7426 17.42 80.8551 17.4033 80.9593 17.4741L80.9426 17.2324C81.1676 17.4949 81.226 16.9907 81.4301 17.3032V17.3616C81.651 16.7158 81.8301 17.7825 82.0634 17.17C82.0343 17.245 82.0801 17.295 82.0801 17.3533C82.1926 17.2783 82.3176 17.2407 82.301 16.7657C82.3843 16.7657 82.376 16.9116 82.3926 17.0949C82.3843 16.8866 82.4551 16.7991 82.5218 16.7824L82.4926 16.8657L82.6801 16.7866L82.6301 16.3949C82.7343 16.5033 82.6718 16.8741 82.7635 16.7741L82.751 16.4491C82.8926 16.5074 82.9926 16.9991 83.1343 17.2324C83.6968 17.3533 84.2676 16.4991 84.8051 17.0533L84.8385 17.2991C84.8593 17.6574 84.9635 16.7657 84.9926 17.0949L85.0468 16.9283C85.0676 16.9908 85.1051 17.0575 85.076 17.1408C85.1343 17.1533 85.1301 17.0949 85.1676 16.9866L85.2343 17.2074C85.4593 17.3741 85.6343 16.9366 85.8676 17.0158C86.1635 17.4574 86.6718 17.0241 86.9635 16.7699C87.3676 16.2199 87.9135 17.6241 88.326 16.9991C88.3426 17.0491 88.376 16.9324 88.3718 16.8949L88.7718 16.9325C88.7718 16.9325 90.7051 16.9991 89.1343 14.0949L89.1426 14.0158C88.9176 13.8325 88.7801 13.7991 88.6426 14.1949C88.601 13.7158 88.4635 14.1533 88.4051 13.9991V13.9616C88.2885 14.3366 88.126 13.6658 88.0093 13.9991C88.0093 13.9616 88.0093 13.8283 88.0385 13.82C87.9468 13.8825 87.8218 13.995 87.8051 13.7158C87.5843 13.795 87.2676 13.6783 87.1426 14.1283L87.151 14.0492C87.0801 14.3533 87.0468 14.0991 86.9635 14.2533C86.9551 14.2158 86.951 14.1991 86.951 14.1824C86.8718 14.4824 86.6926 14.2366 86.626 14.3657L86.6135 14.1824L86.4384 14.2325L86.5051 14.2699C86.501 14.7824 86.3593 13.9533 86.2426 14.2908C86.1218 14.2324 86.0385 15.3574 85.9051 15.1157C85.8551 15.3574 85.9426 14.7241 85.8634 14.9116C85.8509 14.6449 85.8968 14.745 85.8676 14.5325C85.7843 14.6616 85.7135 14.2658 85.6135 14.4491L85.601 14.2408C85.476 14.6241 85.326 13.9783 85.2468 14.3408C85.1093 14.5158 85.126 13.7283 84.9926 14.1408L84.9259 13.8616C84.8593 13.8199 84.8926 14.2074 84.8176 14.0741C84.8176 13.8991 84.7218 13.9366 84.7593 13.7657C84.5885 13.4949 84.4468 14.17 84.2176 13.7116C84.1843 14.0575 84.0676 13.8575 84.0426 14.1158C84.0301 13.9658 83.826 14.0991 83.9343 13.7699C83.9426 13.7449 83.9634 13.7491 83.9634 13.8075L83.9718 13.6033C83.8385 13.2241 83.7593 13.8241 83.6385 13.7657C83.676 13.8324 83.7218 13.8116 83.6968 13.9532L83.5843 13.9283L83.6009 13.7574L83.4301 13.6616L83.4593 13.8741C83.376 13.7699 83.3343 13.4075 83.251 13.7116C83.2135 13.8825 83.3385 13.9949 83.251 14.0657C83.1385 13.9241 82.9676 13.7116 82.826 13.6532C82.8468 13.8907 82.8093 13.8825 82.7718 13.9325L82.7593 13.7241C82.6218 14.0158 82.6885 13.27 82.551 13.5033L82.5593 13.3574L82.5343 13.7908C82.4176 14.2074 82.4468 13.3616 82.3218 13.9283C82.3801 13.8908 82.3635 14.3824 82.2926 14.2949L82.3051 14.0949C82.2676 14.1366 82.2551 14.2241 82.2301 14.1824C82.251 14.0741 82.2301 13.8908 82.176 13.9283L82.2051 13.6783L82.1093 14.0492C82.0176 13.8367 81.8926 14.1116 81.8468 13.8325C81.8468 13.8325 81.6593 13.6991 81.6301 14.0116C81.6593 13.82 81.5551 13.7491 81.576 13.5241C81.5385 13.745 81.4051 13.9241 81.3385 13.6949L81.3468 13.6699C81.1301 13.4408 81.0051 14.0075 80.8093 13.7241C80.826 13.9658 80.7218 13.8366 80.7593 14.145C80.5801 14.4575 80.3885 13.5324 80.351 14.4866C80.2676 14.5407 80.2385 14.2658 80.1926 14.22L80.2134 14.1699C80.0509 14.2532 80.0051 14.2658 79.8843 14.245C79.826 14.3408 79.8343 14.7824 79.7218 14.6782C79.751 14.5032 79.7093 14.5366 79.6676 14.5366C79.6926 14.5075 79.6968 14.445 79.6426 14.3283C79.6384 14.3825 79.626 14.4158 79.6176 14.445C79.6176 14.4325 79.6176 14.4199 79.6176 14.4033C79.551 14.4658 79.5676 14.52 79.5968 14.545C79.5968 14.57 79.5968 14.6075 79.6134 14.6533C79.5343 14.4283 79.4176 14.6741 79.3968 14.3741C79.1968 14.4532 79.0593 14.7699 78.8968 14.8907C78.8718 14.7366 78.9051 14.5991 78.9551 14.5366L78.8385 14.5991C78.8301 14.3741 78.9009 14.4699 78.9384 14.4241C78.7843 14.0699 78.6551 14.7949 78.476 14.4699L78.4468 14.6491L78.4343 14.6199C78.4343 14.7116 78.4051 14.8408 78.3801 14.8741C78.351 14.6825 78.3676 14.4241 78.2843 14.4408C78.2135 14.2575 78.101 14.5408 78.0176 14.6491C78.0635 14.6783 78.0551 14.7908 78.0385 14.8575C77.9968 14.8658 77.9676 14.6741 77.9385 14.7575L77.926 14.4949C77.951 14.7407 77.826 14.7658 77.8135 14.8741C77.7843 14.6825 77.8718 14.7033 77.876 14.5575C77.7093 14.5866 77.7926 14.5741 77.626 14.6033C77.5426 14.8033 77.651 14.8491 77.6176 15.0825C77.5426 15.1366 77.4718 15.3241 77.3759 15.1658L77.4135 15.3991C77.2718 15.5866 77.1843 15.5616 77.076 15.3282C76.0426 17.2657 76.9385 17.9282 76.9385 17.9282C77.3885 18.4282 77.5885 17.7408 78.0968 17.5408L78.0926 17.5366Z" fill="#20BB65"/>
<path d="M100.369 13.8125L100.407 13.9083C100.407 13.8625 100.394 13.825 100.369 13.8125Z" fill="#20BB65"/>
<path d="M108.951 13.6166C108.951 13.6166 108.955 13.604 108.96 13.5957C108.955 13.604 108.951 13.6124 108.951 13.6166Z" fill="#20BB65"/>
<path d="M101.76 17.0547C101.76 17.0547 101.756 17.0713 101.752 17.0796L101.76 17.0547Z" fill="#20BB65"/>
<path d="M100.031 16.8207C100.486 16.9291 100.619 17.379 101.081 17.1874C101.306 17.2207 101.54 17.1124 101.756 17.0541C101.852 16.6999 102.044 17.0458 102.161 16.7458L102.211 16.9458C102.252 16.8458 102.298 16.7749 102.344 16.8832V16.9416C102.402 16.7874 102.477 16.8791 102.506 16.7999V16.8583L102.581 16.8291L102.569 16.9124C102.677 16.7499 102.79 16.7374 102.89 16.8082L102.877 16.5665C103.098 16.8332 103.165 16.3291 103.365 16.6458V16.7041C103.594 16.0624 103.756 17.1333 103.998 16.5208C103.969 16.5958 104.015 16.6457 104.011 16.7041C104.123 16.6332 104.248 16.5958 104.24 16.1208C104.323 16.1249 104.311 16.2665 104.327 16.4498C104.323 16.2415 104.394 16.154 104.461 16.1415L104.431 16.2208L104.619 16.1457L104.573 15.754C104.677 15.8665 104.606 16.2332 104.702 16.1373L104.694 15.8124C104.836 15.8749 104.923 16.3666 105.061 16.6041C105.619 16.7332 106.206 15.8915 106.731 16.454L106.756 16.6999C106.773 17.0582 106.89 16.1666 106.915 16.4999L106.973 16.3374C106.99 16.3999 107.027 16.4708 106.998 16.5499C107.052 16.5624 107.056 16.5041 107.094 16.3957L107.156 16.6166C107.377 16.7832 107.561 16.3541 107.794 16.4374C108.077 16.8874 108.594 16.4583 108.894 16.2124C109.311 15.6708 109.823 17.0832 110.248 16.4665C110.265 16.5165 110.298 16.404 110.298 16.3624L110.694 16.4041C110.694 16.4041 112.623 16.5041 111.131 13.5707L111.14 13.4916C110.919 13.3041 110.781 13.2665 110.636 13.6624C110.606 13.1832 110.456 13.6165 110.402 13.4624V13.4249C110.277 13.7958 110.127 13.1249 110.002 13.454C110.006 13.4165 110.006 13.2832 110.036 13.2749C109.944 13.3374 109.815 13.4457 109.806 13.1666C109.586 13.2457 109.269 13.1207 109.131 13.5707L109.14 13.4916C109.061 13.7957 109.036 13.5374 108.944 13.6916C108.94 13.6541 108.931 13.6374 108.931 13.6208C108.848 13.9208 108.673 13.6707 108.602 13.7999L108.594 13.6124L108.419 13.6582L108.486 13.6957C108.469 14.2082 108.348 13.3791 108.223 13.7124C108.102 13.6499 107.994 14.7791 107.865 14.5291C107.811 14.7707 107.911 14.1416 107.827 14.3249C107.819 14.0582 107.865 14.1583 107.84 13.9458C107.752 14.0749 107.694 13.6749 107.59 13.8582L107.581 13.6499C107.448 14.0332 107.311 13.3832 107.223 13.7457C107.081 13.9207 107.119 13.1332 106.973 13.5415L106.911 13.2624C106.844 13.2166 106.869 13.6082 106.794 13.4707C106.794 13.2957 106.702 13.3332 106.74 13.1624C106.573 12.8874 106.419 13.5624 106.198 13.0958C106.156 13.4416 106.048 13.2374 106.015 13.4957C106.006 13.3457 105.798 13.4749 105.915 13.1499C105.923 13.1249 105.944 13.1291 105.944 13.1874L105.956 12.9833C105.827 12.5999 105.74 13.1999 105.619 13.1415C105.656 13.2082 105.702 13.1915 105.673 13.329L105.561 13.3041L105.581 13.1332L105.415 13.0374L105.44 13.2499C105.356 13.1415 105.323 12.7833 105.236 13.0833C105.198 13.2499 105.319 13.3665 105.236 13.4374C105.123 13.2957 104.956 13.079 104.815 13.0207C104.831 13.2582 104.794 13.2499 104.756 13.2999L104.748 13.0916C104.606 13.3833 104.686 12.6374 104.544 12.8666L104.552 12.7207L104.523 13.1541C104.398 13.5666 104.444 12.7249 104.306 13.2874C104.365 13.2499 104.344 13.7457 104.269 13.654L104.281 13.454C104.244 13.4957 104.231 13.5832 104.202 13.5415C104.223 13.4332 104.211 13.2499 104.152 13.2874L104.186 13.0374L104.081 13.4083C103.994 13.1958 103.865 13.4666 103.823 13.1874C103.823 13.1874 103.636 13.0541 103.602 13.3624C103.636 13.1707 103.531 13.0999 103.556 12.8707C103.515 13.0874 103.377 13.2707 103.315 13.0374L103.323 13.0123C103.111 12.779 102.977 13.3416 102.786 13.0582C102.798 13.2999 102.698 13.1707 102.727 13.4749C102.54 13.7832 102.365 12.8541 102.315 13.8082C102.227 13.8624 102.206 13.5874 102.161 13.5374L102.181 13.4874C102.019 13.5666 101.973 13.579 101.848 13.5582C101.79 13.654 101.79 14.0957 101.677 13.9874C101.706 13.8124 101.665 13.8457 101.623 13.8457C101.648 13.8165 101.656 13.754 101.598 13.6373C101.59 13.6915 101.581 13.7249 101.569 13.754C101.569 13.7415 101.569 13.7291 101.569 13.7124C101.502 13.7749 101.515 13.829 101.548 13.854C101.548 13.879 101.548 13.9165 101.561 13.9624C101.486 13.7374 101.365 13.9832 101.348 13.6791C101.144 13.7541 101.006 14.0665 100.84 14.1874C100.819 14.0332 100.852 13.8958 100.902 13.8333L100.781 13.8916C100.777 13.6666 100.848 13.7624 100.886 13.7166C100.731 13.3583 100.598 14.0832 100.423 13.754L100.394 13.9333L100.381 13.9041C100.381 13.9957 100.348 14.1249 100.327 14.1541C100.298 13.9583 100.319 13.7041 100.236 13.7208C100.165 13.5333 100.052 13.8166 99.969 13.9249C100.015 13.9583 100.002 14.0666 99.9856 14.1333C99.944 14.1416 99.9148 13.9458 99.8856 14.0291L99.8732 13.7665C99.894 14.0124 99.769 14.0374 99.7565 14.1416C99.7273 13.9458 99.819 13.9749 99.8231 13.8249C99.6565 13.8541 99.7398 13.8374 99.5731 13.8665C99.4898 14.0665 99.594 14.1124 99.5607 14.3458C99.4815 14.3999 99.4107 14.5832 99.319 14.4249L99.3523 14.6583C99.2107 14.8416 99.119 14.8165 99.0148 14.5832C97.9648 16.4999 98.8523 17.179 98.8523 17.179C99.2982 17.6873 99.5023 17.0041 100.011 16.8124L100.031 16.8207Z" fill="#20BB65"/>
<path d="M122.391 13.6367L122.424 13.7326C122.424 13.6868 122.416 13.6492 122.391 13.6367Z" fill="#20BB65"/>
<path d="M130.99 13.8685C130.99 13.8685 130.994 13.856 130.999 13.8477C130.994 13.856 130.99 13.8602 130.99 13.8685Z" fill="#20BB65"/>
<path d="M123.639 16.9277C123.639 16.9277 123.635 16.9444 123.631 16.9528L123.643 16.9277H123.639Z" fill="#20BB65"/>
<path d="M121.927 16.6318C122.377 16.7568 122.485 17.211 122.956 17.036C123.177 17.0777 123.419 16.9777 123.635 16.9277C123.748 16.5777 123.923 16.9277 124.048 16.636L124.09 16.836C124.135 16.736 124.185 16.6693 124.223 16.7776V16.836C124.285 16.686 124.356 16.7776 124.385 16.7026V16.7609L124.46 16.736L124.444 16.8193C124.556 16.661 124.669 16.6527 124.769 16.7277V16.486C124.973 16.761 125.065 16.261 125.248 16.586V16.6443C125.502 16.011 125.615 17.0901 125.885 16.4901C125.852 16.5651 125.894 16.6151 125.89 16.6734C126.006 16.6068 126.131 16.5735 126.148 16.0985C126.231 16.1068 126.21 16.2485 126.219 16.4318C126.223 16.2235 126.302 16.1402 126.365 16.1277L126.331 16.2068L126.523 16.1401L126.498 15.7443C126.594 15.8609 126.51 16.2235 126.606 16.1319L126.615 15.8068C126.752 15.8735 126.819 16.3693 126.944 16.6152C127.494 16.7735 128.119 15.9609 128.615 16.5568L128.627 16.8026C128.627 17.161 128.79 16.2776 128.798 16.611L128.865 16.4484C128.877 16.5109 128.91 16.5818 128.877 16.6609C128.931 16.6776 128.935 16.6193 128.981 16.511L129.031 16.736C129.244 16.9193 129.448 16.4943 129.673 16.5943C129.931 17.061 130.469 16.6652 130.781 16.436C131.231 15.9235 131.652 17.3651 132.11 16.7776C132.123 16.8276 132.165 16.7151 132.165 16.6776L132.556 16.7485C132.556 16.7485 134.469 16.9943 133.173 13.9526L133.185 13.8776C132.977 13.6776 132.84 13.6277 132.669 14.011C132.669 13.5318 132.49 13.9526 132.448 13.7943L132.456 13.7568C132.302 14.1193 132.198 13.4359 132.052 13.7568C132.06 13.7193 132.069 13.586 132.098 13.5818C132.002 13.636 131.869 13.736 131.873 13.4568C131.644 13.5193 131.34 13.3735 131.173 13.8152L131.185 13.7401C131.09 14.0359 131.077 13.7818 130.977 13.9277C130.977 13.8902 130.969 13.8734 130.969 13.8568C130.865 14.1484 130.706 13.8902 130.627 14.0152V13.8277L130.452 13.8609L130.515 13.9026C130.469 14.411 130.394 13.5776 130.252 13.9026C130.135 13.8318 129.965 14.9526 129.848 14.6984C129.777 14.9359 129.915 14.3109 129.819 14.4943C129.827 14.2276 129.869 14.3277 129.852 14.1152C129.76 14.236 129.719 13.836 129.606 14.011V13.8027C129.456 14.1735 129.356 13.5193 129.248 13.8776C129.098 14.0443 129.173 13.2609 129.006 13.6568L128.956 13.3735C128.894 13.3276 128.898 13.7151 128.831 13.5776C128.844 13.4026 128.748 13.4318 128.794 13.2693C128.64 12.986 128.448 13.6485 128.252 13.1735C128.194 13.5151 128.094 13.3068 128.048 13.5651C128.048 13.4151 127.831 13.5319 127.965 13.211C127.977 13.186 127.994 13.1901 127.99 13.2485L128.01 13.0443C127.902 12.6568 127.781 13.2485 127.66 13.186C127.694 13.2527 127.744 13.2401 127.706 13.3776L127.594 13.3443L127.623 13.1735L127.46 13.0693L127.477 13.2818C127.398 13.1693 127.381 12.8069 127.281 13.1069C127.235 13.2735 127.348 13.3943 127.26 13.461C127.156 13.311 126.998 13.0901 126.86 13.0234C126.865 13.2609 126.827 13.2527 126.79 13.2985V13.0902C126.635 13.3735 126.752 12.6318 126.598 12.8568L126.615 12.7109L126.565 13.1443C126.419 13.5526 126.506 12.711 126.34 13.2693C126.398 13.236 126.352 13.7276 126.285 13.6359L126.31 13.4359C126.269 13.4776 126.252 13.561 126.227 13.5193C126.252 13.411 126.248 13.2276 126.19 13.261L126.235 13.0109L126.115 13.3776C126.035 13.161 125.894 13.4276 125.865 13.1443C125.865 13.1443 125.685 13.0027 125.635 13.311C125.677 13.1193 125.577 13.0443 125.615 12.8193C125.56 13.0359 125.415 13.211 125.365 12.9777L125.377 12.9526C125.177 12.711 125.015 13.2693 124.835 12.9777C124.835 13.2193 124.744 13.086 124.76 13.3943C124.56 13.6943 124.423 12.761 124.331 13.711C124.244 13.761 124.231 13.4859 124.19 13.4359L124.21 13.386C124.044 13.461 123.998 13.4693 123.877 13.4443C123.815 13.5359 123.794 13.9776 123.69 13.8693C123.727 13.6943 123.681 13.7277 123.644 13.7235C123.669 13.6943 123.681 13.6318 123.627 13.5152C123.619 13.5693 123.606 13.6027 123.594 13.6319C123.594 13.6194 123.594 13.6068 123.594 13.5901C123.523 13.6526 123.535 13.7069 123.565 13.7319C123.565 13.7569 123.565 13.7944 123.573 13.8402C123.506 13.611 123.377 13.8526 123.373 13.5484C123.169 13.6151 123.015 13.9235 122.844 14.036C122.827 13.8818 122.869 13.7443 122.919 13.686L122.798 13.7401C122.802 13.5151 122.869 13.611 122.906 13.5693C122.769 13.2068 122.602 13.9235 122.44 13.5901L122.402 13.7651L122.394 13.736C122.394 13.8277 122.352 13.9568 122.327 13.986C122.306 13.7901 122.335 13.5359 122.252 13.5484C122.19 13.3609 122.065 13.6401 121.973 13.7443C122.019 13.7776 122.002 13.8859 121.981 13.9526C121.94 13.9568 121.919 13.7651 121.885 13.8484V13.586C121.898 13.8318 121.773 13.8526 121.756 13.9568C121.735 13.7609 121.823 13.7901 121.835 13.6443C121.669 13.6651 121.752 13.6568 121.585 13.6776C121.494 13.8735 121.598 13.9276 121.552 14.1568C121.473 14.2068 121.394 14.3902 121.306 14.2277L121.331 14.461C121.181 14.6402 121.094 14.6109 120.998 14.3734C119.873 16.2568 120.731 16.9652 120.731 16.9652C121.156 17.486 121.385 16.811 121.902 16.636L121.927 16.6318Z" fill="#20BB65"/>
<path d="M144.436 14.9609L144.456 15.0609C144.461 15.0151 144.456 14.9776 144.436 14.9609Z" fill="#20BB65"/>
<path d="M153.004 16.2318C153.004 16.2318 153.012 16.2193 153.016 16.2109C153.008 16.2193 153.008 16.2235 153.004 16.2318Z" fill="#20BB65"/>
<path d="M145.341 18.3613C145.341 18.3613 145.332 18.3739 145.328 18.3864L145.341 18.3613Z" fill="#20BB65"/>
<path d="M143.682 17.8951C144.116 18.0618 144.178 18.5284 144.657 18.3993C144.87 18.4618 145.116 18.3909 145.341 18.3617C145.486 18.0242 145.624 18.3908 145.782 18.1158L145.803 18.3201C145.857 18.2243 145.916 18.1659 145.941 18.2784L145.932 18.3367C146.016 18.195 146.07 18.295 146.111 18.2242L146.103 18.2826L146.182 18.2659L146.157 18.345C146.286 18.1992 146.399 18.2034 146.486 18.2909L146.511 18.0492C146.682 18.345 146.828 17.8618 146.974 18.2034L146.961 18.2617C147.291 17.6617 147.278 18.7451 147.611 18.1826C147.57 18.2534 147.607 18.3076 147.595 18.3659C147.72 18.3159 147.845 18.295 147.916 17.8242C147.999 17.8409 147.961 17.9826 147.945 18.1659C147.974 17.9617 148.061 17.8868 148.128 17.8826L148.086 17.9576L148.282 17.9159L148.303 17.52C148.386 17.645 148.257 17.9992 148.366 17.92L148.411 17.5992C148.536 17.6825 148.545 18.1825 148.636 18.4409C149.157 18.6617 149.878 17.9367 150.286 18.5909L150.266 18.8368C150.216 19.1909 150.495 18.3367 150.457 18.6659L150.545 18.5159C150.549 18.5826 150.574 18.6534 150.532 18.7284C150.582 18.7534 150.595 18.6951 150.653 18.5951L150.674 18.8243C150.857 19.0326 151.116 18.6409 151.324 18.7659C151.511 19.2617 152.095 18.945 152.432 18.7659C152.949 18.32 153.145 19.8117 153.686 19.2992C153.686 19.3534 153.749 19.2492 153.757 19.2076L154.128 19.3368C154.128 19.3368 154.582 19.4701 154.945 19.2076C155.303 18.9409 155.586 18.2825 155.178 16.6742L155.203 16.5992C155.028 16.3659 154.899 16.2951 154.666 16.6493C154.741 16.1743 154.499 16.5617 154.478 16.3992L154.491 16.3617C154.282 16.695 154.282 16.0034 154.086 16.3034C154.099 16.2659 154.128 16.1367 154.157 16.1367C154.053 16.1783 153.903 16.2576 153.953 15.9826C153.716 16.0076 153.428 15.8201 153.203 16.2284L153.228 16.1534C153.091 16.4325 153.116 16.1784 152.995 16.3117C152.995 16.2742 152.995 16.2533 152.995 16.2408C152.849 16.5158 152.728 16.2408 152.632 16.3492L152.661 16.1659L152.478 16.1742L152.536 16.2243C152.42 16.7201 152.461 15.8867 152.274 16.1867C152.166 16.0992 151.841 17.1867 151.761 16.9159C151.661 17.1409 151.882 16.5451 151.761 16.7076C151.807 16.4451 151.832 16.5493 151.849 16.3368C151.741 16.4451 151.753 16.0451 151.616 16.2034L151.649 15.9992C151.445 16.3492 151.432 15.6826 151.278 16.0243C151.103 16.1659 151.286 15.3992 151.066 15.7742L151.053 15.4868C150.995 15.4326 150.949 15.8159 150.899 15.6701C150.932 15.4951 150.832 15.5159 150.899 15.3576C150.782 15.0576 150.503 15.6909 150.37 15.1909C150.266 15.5201 150.195 15.3034 150.116 15.5534C150.132 15.4034 149.903 15.4951 150.078 15.1951C150.095 15.1701 150.111 15.1784 150.099 15.2367L150.145 15.0367C150.082 14.6367 149.891 15.2117 149.778 15.1325C149.803 15.2034 149.853 15.195 149.799 15.3284L149.691 15.2826L149.741 15.1159L149.591 14.9908L149.582 15.2033C149.52 15.0825 149.545 14.72 149.407 15.0034C149.341 15.1617 149.441 15.2992 149.345 15.3492C149.257 15.1909 149.128 14.9493 148.999 14.8659C148.974 15.1034 148.941 15.0909 148.895 15.1325L148.92 14.9284C148.728 15.1909 148.932 14.4701 148.753 14.6743L148.786 14.5326L148.682 14.9534C148.491 15.3409 148.674 14.5159 148.445 15.0492C148.507 15.0242 148.403 15.5075 148.345 15.4075L148.391 15.2117C148.345 15.2492 148.32 15.3284 148.299 15.2826C148.336 15.1784 148.353 14.995 148.291 15.02L148.366 14.7784L148.203 15.1284C148.149 14.9034 147.974 15.1493 147.982 14.8659C147.982 14.8659 147.82 14.7034 147.732 15.0034C147.795 14.82 147.707 14.7326 147.766 14.5117C147.686 14.7201 147.524 14.8784 147.499 14.6409L147.511 14.6159C147.336 14.3534 147.111 14.8867 146.966 14.5783C146.941 14.82 146.861 14.6743 146.845 14.9826C146.611 15.2576 146.578 14.3159 146.382 15.2492C146.286 15.2867 146.307 15.0159 146.27 14.9618L146.299 14.9159C146.124 14.97 146.078 14.9742 145.957 14.9367C145.886 15.0201 145.82 15.4575 145.724 15.3367C145.782 15.1659 145.732 15.1951 145.691 15.1868C145.72 15.1618 145.736 15.0993 145.699 14.9743C145.686 15.0284 145.67 15.0576 145.653 15.0868C145.653 15.0743 145.653 15.0617 145.653 15.0451C145.578 15.0992 145.582 15.1534 145.611 15.1826C145.607 15.2076 145.603 15.2451 145.611 15.2951C145.57 15.0618 145.411 15.2868 145.441 14.9868C145.228 15.0284 145.045 15.32 144.861 15.4159C144.861 15.2575 144.916 15.1284 144.974 15.0743L144.845 15.1159C144.874 14.895 144.928 14.9951 144.974 14.9576C144.874 14.5826 144.636 15.2784 144.507 14.9326L144.453 15.1034L144.445 15.0743C144.432 15.1659 144.382 15.2867 144.353 15.3159C144.353 15.12 144.407 14.8701 144.324 14.8743C144.278 14.6784 144.124 14.9451 144.028 15.0409C144.07 15.0784 144.045 15.1826 144.016 15.2492C143.974 15.2492 143.97 15.0534 143.928 15.1325L143.953 14.8701C143.941 15.1159 143.816 15.1242 143.786 15.2284C143.786 15.0325 143.87 15.07 143.899 14.9242C143.728 14.9284 143.816 14.9242 143.645 14.9326C143.532 15.1201 143.632 15.1826 143.566 15.4034C143.482 15.4451 143.386 15.6201 143.311 15.4534V15.6867C143.149 15.8492 143.061 15.8159 142.991 15.5701C142.341 16.4534 142.22 17.095 142.253 17.5117C142.291 17.9284 142.482 18.1242 142.482 18.1242C142.853 18.6825 143.145 18.0325 143.67 17.9075L143.682 17.8951Z" fill="#20BB65"/>
<path d="M166.086 20.1074L166.078 20.2116C166.095 20.1699 166.103 20.1324 166.086 20.1074Z" fill="#20BB65"/>
<path d="M173.729 24.6707C173.729 24.6707 173.741 24.6665 173.749 24.6582C173.741 24.6582 173.733 24.6624 173.729 24.6707Z" fill="#20BB65"/>
<path d="M165.919 23.6211C165.919 23.6211 165.907 23.6335 165.902 23.6377L165.923 23.6211H165.919Z" fill="#20BB65"/>
<path d="M164.527 22.7079C164.886 22.9829 164.802 23.4454 165.282 23.4579C165.461 23.5746 165.707 23.5788 165.915 23.6205C166.157 23.3455 166.161 23.733 166.398 23.5163L166.352 23.7163C166.432 23.6455 166.507 23.6038 166.494 23.7163L166.465 23.7662C166.586 23.6579 166.607 23.7663 166.665 23.7163L166.636 23.7662L166.711 23.7746L166.661 23.8413C166.827 23.7455 166.927 23.7829 166.977 23.8913L167.082 23.6746C167.14 24.0037 167.436 23.5996 167.448 23.9704L167.419 24.0204C167.927 23.5704 167.536 24.5704 168.032 24.1579C167.969 24.2079 167.982 24.2746 167.952 24.3246C168.082 24.3204 168.202 24.3455 168.44 23.933C168.507 23.9788 168.423 24.0955 168.34 24.258C168.444 24.0788 168.548 24.037 168.611 24.0579L168.544 24.1121L168.736 24.1413L168.902 23.7829C168.932 23.9288 168.682 24.2079 168.811 24.1704L168.973 23.8913C169.057 24.0163 168.869 24.483 168.852 24.7538C169.04 24.9496 169.365 24.9454 169.652 24.9954C169.944 25.0412 170.202 25.137 170.24 25.5162L170.119 25.7287C169.923 26.0246 170.532 25.3704 170.357 25.6537L170.498 25.5538C170.473 25.6163 170.461 25.6912 170.394 25.7371C170.427 25.7787 170.465 25.7329 170.557 25.6663L170.473 25.8788C170.536 26.1413 170.927 25.8996 171.052 26.0996C170.982 26.6163 171.615 26.5829 171.99 26.5871C172.311 26.5162 172.34 26.8246 172.352 27.1246C172.369 27.4288 172.382 27.7162 172.74 27.6329C172.715 27.6787 172.815 27.6205 172.844 27.5913L173.069 27.8871C173.069 27.8871 173.14 27.9704 173.269 28.0496C173.39 28.1329 173.569 28.2121 173.786 28.2038C174.215 28.1705 174.861 27.8329 175.419 26.2537L175.482 26.2079C175.461 25.9038 175.382 25.7704 174.99 25.9329C175.311 25.5745 174.89 25.762 174.961 25.6162L174.99 25.5913C174.632 25.7538 174.994 25.162 174.665 25.3079C174.694 25.2829 174.786 25.1912 174.815 25.2037C174.698 25.1787 174.527 25.1663 174.711 24.9538C174.486 24.8413 174.319 24.5205 173.911 24.758L173.969 24.7079C173.707 24.8787 173.857 24.6704 173.682 24.7204C173.702 24.6871 173.707 24.6705 173.719 24.658C173.457 24.8246 173.482 24.5121 173.344 24.5663L173.457 24.4204L173.286 24.3371L173.315 24.4121C172.973 24.7913 173.407 24.0746 173.094 24.2496C173.032 24.1205 172.24 24.9246 172.298 24.6496C172.102 24.8038 172.577 24.3746 172.394 24.4663C172.552 24.2538 172.532 24.3579 172.64 24.1787C172.49 24.2246 172.686 23.8745 172.486 23.9495L172.607 23.7829C172.261 23.9996 172.544 23.3955 172.252 23.6288C172.032 23.6788 172.532 23.0663 172.165 23.308L172.277 23.0454C172.248 22.9704 172.04 23.2996 172.057 23.1454C172.161 23.0037 172.057 22.9746 172.19 22.8621C172.202 22.5371 171.682 22.983 171.757 22.4705C171.523 22.7288 171.544 22.4955 171.369 22.6913C171.448 22.5621 171.194 22.5454 171.477 22.3454C171.502 22.3288 171.515 22.3454 171.482 22.3912L171.607 22.2288C171.707 21.8371 171.294 22.2788 171.219 22.158C171.215 22.2371 171.265 22.2496 171.161 22.3454L171.077 22.258L171.19 22.1246L171.094 21.9455L171.002 22.1371C170.986 21.9996 171.152 21.6787 170.911 21.8829C170.786 22.0037 170.832 22.1704 170.719 22.1787C170.698 21.9954 170.665 21.7204 170.569 21.5871C170.457 21.7996 170.427 21.7704 170.369 21.7912L170.473 21.6121C170.194 21.7788 170.657 21.1871 170.407 21.3079L170.49 21.1913L170.236 21.5455C169.907 21.833 170.386 21.1371 169.969 21.5455C170.04 21.5455 169.765 21.9538 169.744 21.8413L169.861 21.6787C169.802 21.6954 169.748 21.7621 169.748 21.7121C169.823 21.6288 169.902 21.4662 169.836 21.4662L169.994 21.2704L169.711 21.533C169.74 21.2996 169.486 21.4663 169.59 21.1996C169.59 21.1996 169.486 20.9871 169.298 21.2371C169.423 21.0871 169.365 20.9704 169.502 20.7871C169.352 20.9538 169.14 21.0413 169.198 20.808L169.219 20.7913C169.136 20.4788 168.74 20.8996 168.698 20.5579C168.594 20.7746 168.565 20.6121 168.448 20.8996C168.132 21.083 168.402 20.1746 167.911 20.9954C167.807 20.9996 167.911 20.7454 167.894 20.6829L167.936 20.6496C167.748 20.6412 167.698 20.6329 167.594 20.5579C167.498 20.6163 167.298 21.0079 167.244 20.8663C167.352 20.7246 167.298 20.733 167.261 20.7163C167.298 20.7038 167.332 20.6495 167.332 20.5162C167.302 20.562 167.277 20.5871 167.252 20.608C167.257 20.5955 167.261 20.5829 167.269 20.5663C167.177 20.5913 167.169 20.6454 167.186 20.6829C167.173 20.7079 167.161 20.7371 167.148 20.7871C167.177 20.5496 166.961 20.7162 167.077 20.4371C166.857 20.4079 166.59 20.6329 166.386 20.6704C166.432 20.5204 166.523 20.4121 166.594 20.3788H166.457C166.548 20.1746 166.573 20.2913 166.627 20.2663C166.64 19.8746 166.202 20.4704 166.177 20.0995L166.073 20.2454V20.2162C166.04 20.3037 165.952 20.4037 165.919 20.4204C165.973 20.2329 166.098 20.008 166.015 19.9871C166.027 19.7871 165.798 19.9996 165.677 20.0621C165.707 20.1121 165.652 20.2038 165.607 20.2579C165.565 20.2454 165.619 20.0579 165.557 20.1246L165.657 19.8788C165.577 20.1121 165.452 20.083 165.394 20.1746C165.448 19.9871 165.519 20.0454 165.586 19.9162C165.419 19.8704 165.502 19.8954 165.336 19.8496C165.177 19.9954 165.257 20.0871 165.127 20.283C165.036 20.2996 164.894 20.4371 164.869 20.2579L164.807 20.483C164.598 20.5955 164.527 20.5371 164.523 20.283C163.661 20.9621 163.382 21.5496 163.307 21.9621C163.232 22.3746 163.361 22.6121 163.361 22.6121C163.552 23.2412 164.002 22.6871 164.527 22.7121V22.7079Z" fill="#20BB65"/>
<path d="M180.092 36.0625L180 36.0917C180.046 36.0834 180.083 36.075 180.092 36.0625Z" fill="#20BB65"/>
<path d="M180.258 40.3613C180.258 40.3613 180.27 40.3613 180.279 40.3655C180.27 40.3655 180.266 40.3613 180.258 40.3613Z" fill="#20BB65"/>
<path d="M177.091 36.2951C177 36.5035 176.562 36.6118 176.766 36.7826C176.741 36.8784 176.858 36.966 176.921 37.0535C177.275 37.0618 176.937 37.1743 177.237 37.1993L177.041 37.2368C177.146 37.2451 177.212 37.2618 177.108 37.2868H177.05C177.204 37.3034 177.116 37.341 177.191 37.3493H177.133L177.162 37.3827H177.079C177.241 37.416 177.258 37.4659 177.187 37.5159L177.429 37.4951C177.166 37.6076 177.671 37.6076 177.354 37.7118H177.296C177.937 37.7868 176.871 37.9035 177.483 37.9827C177.408 37.9743 177.358 37.9952 177.3 37.9952C177.371 38.041 177.408 38.0951 177.883 38.0785C177.879 38.116 177.737 38.1159 177.554 38.1243C177.762 38.1159 177.85 38.1451 177.862 38.1743L177.783 38.1618L177.858 38.2451L178.25 38.216C178.137 38.266 177.771 38.241 177.866 38.2826L178.191 38.2743C178.129 38.341 177.637 38.3868 177.4 38.4493C177.266 38.6868 178.096 38.9576 177.516 39.1826H177.271C176.912 39.1826 177.8 39.2618 177.466 39.2618L177.629 39.2909C177.566 39.2951 177.496 39.3118 177.416 39.2951C177.404 39.3201 177.462 39.3202 177.566 39.341L177.346 39.3618C177.171 39.4535 177.596 39.5493 177.504 39.6493C177.046 39.7535 177.45 39.9993 177.683 40.1493C178.204 40.3826 176.771 40.4868 177.358 40.7284C177.308 40.7284 177.421 40.7576 177.458 40.7618L177.391 40.9326C177.391 40.9326 177.333 41.141 177.654 41.3118C177.975 41.4785 178.666 41.641 180.179 41.4452L180.254 41.4576C180.454 41.3701 180.504 41.3035 180.121 41.191C180.6 41.2285 180.179 41.1076 180.337 41.0951H180.375C180.012 40.9993 180.696 40.991 180.371 40.8993C180.408 40.9035 180.541 40.9201 180.546 40.9326C180.491 40.8784 180.387 40.8076 180.666 40.8284C180.604 40.7118 180.741 40.5618 180.304 40.4576L180.379 40.466C180.083 40.4035 180.337 40.4118 180.187 40.3535C180.225 40.3535 180.241 40.3535 180.258 40.3535C179.962 40.291 180.221 40.2202 180.096 40.1785L180.279 40.1868L180.241 40.0951L180.2 40.1243C179.691 40.0826 180.525 40.0743 180.2 39.9951C180.266 39.9368 179.146 39.8243 179.4 39.7743C179.162 39.7368 179.787 39.816 179.604 39.766C179.871 39.7743 179.771 39.7951 179.983 39.7909C179.858 39.7409 180.258 39.7327 180.079 39.6702H180.287C179.912 39.591 180.566 39.5534 180.204 39.4951C180.033 39.4201 180.821 39.4659 180.416 39.3784L180.696 39.3577C180.741 39.3243 180.354 39.3243 180.487 39.2951C180.662 39.2993 180.629 39.2534 180.796 39.2784C181.075 39.1993 180.408 39.1035 180.875 39.0035C180.533 38.9785 180.737 38.9243 180.479 38.9035C180.629 38.9035 180.504 38.7951 180.829 38.8576C180.854 38.8618 180.85 38.8743 180.791 38.8701L180.996 38.8785C181.379 38.816 180.783 38.7618 180.846 38.7035C180.779 38.7201 180.796 38.7452 180.654 38.7327L180.683 38.6743L180.854 38.6868L180.954 38.5993L180.741 38.6118C180.85 38.5702 181.212 38.5493 180.908 38.5077C180.741 38.4868 180.625 38.5493 180.554 38.5077C180.7 38.4493 180.916 38.3618 180.979 38.2868C180.741 38.2993 180.75 38.2785 180.7 38.2618L180.908 38.2535C180.616 38.1868 181.362 38.2118 181.133 38.1409H181.279L180.846 38.1368C180.433 38.0826 181.275 38.0868 180.712 38.0284C180.75 38.0576 180.254 38.0576 180.346 38.0201H180.546C180.504 38.0034 180.421 37.9993 180.458 37.9868C180.566 37.9952 180.75 37.9826 180.712 37.9535L180.962 37.966L180.591 37.9243C180.804 37.8701 180.533 37.816 180.812 37.7827C180.812 37.7827 180.946 37.6827 180.637 37.6743C180.829 37.6827 180.9 37.6285 181.125 37.6285C180.908 37.616 180.725 37.5534 180.954 37.5118H180.979C181.208 37.3909 180.641 37.3535 180.925 37.2368C180.683 37.2576 180.812 37.1993 180.504 37.2368C180.191 37.1618 181.116 37.0077 180.162 37.0493C180.108 37.0118 180.379 36.9785 180.425 36.9493H180.475C180.391 36.8785 180.379 36.8576 180.396 36.7909C180.3 36.7701 179.858 36.8077 179.962 36.7452C180.137 36.7452 180.104 36.7243 180.104 36.7076C180.133 36.716 180.196 36.7159 180.312 36.6784C180.258 36.6784 180.225 36.6784 180.196 36.6784C180.208 36.6784 180.221 36.6784 180.237 36.6743C180.171 36.6451 180.116 36.6576 180.096 36.6743C180.071 36.6743 180.033 36.6826 179.987 36.691C180.208 36.6326 179.962 36.5951 180.262 36.5576C180.179 36.4618 179.862 36.4243 179.737 36.3576C179.891 36.3284 180.029 36.3326 180.091 36.3493L180.029 36.2951C180.25 36.266 180.162 36.316 180.208 36.3285C180.558 36.2118 179.833 36.2243 180.15 36.0993H179.971H180C179.908 36.1118 179.779 36.1118 179.746 36.0993C179.937 36.0618 180.191 36.041 180.171 35.9993C180.35 35.941 180.066 35.916 179.954 35.891C179.925 35.9201 179.816 35.9284 179.75 35.9284C179.741 35.9076 179.929 35.8701 179.846 35.866L180.104 35.8243C179.862 35.8701 179.833 35.8118 179.725 35.8202C179.916 35.7785 179.896 35.8285 180.041 35.8118C180.004 35.7327 180.025 35.7702 179.987 35.691C179.783 35.6785 179.741 35.7368 179.512 35.7535C179.454 35.7243 179.271 35.7159 179.416 35.6451L179.187 35.6952C179 35.6535 179.016 35.6076 179.241 35.5201C178.262 35.4243 177.621 35.5284 177.221 35.6409C176.825 35.7493 176.666 35.8701 176.666 35.8701C176.191 36.1326 176.875 36.1076 177.087 36.2993L177.091 36.2951Z" fill="#20BB65"/>
<path d="M169.193 39.6872C169.302 39.7622 169.414 39.5872 169.381 39.6164C169.348 39.5455 169.227 39.6788 169.193 39.6872Z" fill="#00B14F"/>
<path d="M171.002 42.0702C170.977 42.1952 170.919 41.9785 171.002 42.0702Z" fill="#00B14F"/>
<path d="M171.914 43.3716C171.969 43.3424 172.014 43.2257 172.069 43.1632L171.935 43.1133C171.935 43.1883 171.981 43.3049 171.91 43.3716H171.914Z" fill="#00B14F"/>
<path d="M172.068 43.1625L172.264 43.2375C172.177 43.1042 172.114 43.1125 172.068 43.1625Z" fill="#00B14F"/>
<path d="M172.332 43.9121L172.152 43.9246L172.44 43.9288L172.332 43.9121Z" fill="#00B14F"/>
<path d="M172.63 44.2539C172.488 44.2706 172.534 44.4622 172.426 44.4456C172.518 44.5289 172.668 44.5497 172.801 44.5664C172.697 44.5206 172.643 44.4247 172.634 44.2539H172.63Z" fill="#00B14F"/>
<path d="M173.005 44.608C172.951 44.5872 172.876 44.5789 172.801 44.5664C172.855 44.5914 172.922 44.608 173.005 44.608Z" fill="#00B14F"/>
<path d="M172.373 43.7211L172.469 43.5544C172.469 43.5544 172.44 43.5169 172.427 43.4961C172.406 43.5294 172.344 43.6128 172.373 43.7169V43.7211Z" fill="#00B14F"/>
<path d="M172.473 43.5469C172.514 43.6177 172.548 43.6594 172.56 43.6802C172.548 43.6636 172.523 43.626 172.477 43.5469H172.473Z" fill="#00B14F"/>
<path d="M172.418 43.484L172.431 43.4965C172.431 43.4965 172.443 43.4715 172.418 43.484Z" fill="#00B14F"/>
<path d="M172.315 43.1932L172.54 43.2765L172.452 43.1016C172.419 43.1349 172.385 43.2016 172.315 43.1932Z" fill="#00B14F"/>
<path d="M172.639 43.3129L172.539 43.2754L172.572 43.342L172.639 43.3129Z" fill="#00B14F"/>
<path d="M172.934 44.2469C173.047 44.2636 173.105 44.3302 173.18 44.401C173.139 44.2927 173.084 44.1927 173.018 44.1094C172.964 44.1302 172.855 44.1552 172.934 44.2469Z" fill="#00B14F"/>
<path d="M172.723 43.8962L172.744 43.9045C172.744 43.9045 172.744 43.8753 172.723 43.8962Z" fill="#00B14F"/>
<path d="M173.798 45.1916C173.798 45.1916 173.81 45.1707 173.814 45.1582L173.789 45.1749L173.802 45.1916H173.798Z" fill="#00B14F"/>
<path d="M173.035 44.0766C173.01 43.9891 172.948 43.9807 172.877 43.9766C172.927 44.0141 172.977 44.0558 173.023 44.1099C173.048 44.1016 173.06 44.0891 173.04 44.0766H173.035Z" fill="#00B14F"/>
<path d="M173.243 44.7764C173.243 44.718 173.243 44.6638 173.23 44.6055C173.214 44.6721 173.197 44.793 173.243 44.7764Z" fill="#00B14F"/>
<path d="M172.719 43.959H172.706C172.694 44.0007 172.706 43.984 172.719 43.959Z" fill="#00B14F"/>
<path d="M172.719 43.9584C172.765 43.9751 172.819 43.9751 172.873 43.9751C172.831 43.9459 172.786 43.921 172.74 43.9043C172.74 43.921 172.727 43.9417 172.719 43.9542V43.9584Z" fill="#00B14F"/>
<path d="M173.606 44.8665L173.544 44.8164C173.577 44.9039 173.564 44.9956 173.535 45.1664C173.677 45.2164 173.744 45.1998 173.794 45.1748L173.577 44.8623H173.614L173.606 44.8665Z" fill="#00B14F"/>
<path d="M173.751 45.2754L173.576 45.3587L173.897 45.3337L173.751 45.2754Z" fill="#00B14F"/>
<path d="M173.877 45.6637L174.019 45.6845L174.015 45.5762L173.877 45.6637Z" fill="#00B14F"/>
<path d="M181.531 51.0593C181.756 51.026 182.098 50.9844 181.948 50.876L181.781 50.7969C181.706 50.9385 181.619 51.0177 181.536 51.0593H181.531Z" fill="#00B14F"/>
<path d="M176.588 48.7386C176.601 48.872 176.634 48.9595 176.676 49.0261C176.676 48.8553 176.726 48.672 176.588 48.7386Z" fill="#00B14F"/>
<path d="M190.003 40.4166C190.011 40.3541 189.982 40.3292 189.928 40.3375C189.915 40.4 189.932 40.4375 190.003 40.4166Z" fill="#00B14F"/>
<path d="M176.676 49.0254C176.676 49.1504 176.713 49.2712 176.88 49.2837C176.88 49.2587 176.88 49.2379 176.88 49.2087C176.805 49.1629 176.734 49.1129 176.68 49.0254H176.676Z" fill="#00B14F"/>
<path d="M171.242 38.1594C171.28 38.1469 171.338 38.1469 171.396 38.1469C171.367 38.1344 171.321 38.1344 171.242 38.1594Z" fill="#00B14F"/>
<path d="M174.943 46.8833C174.918 46.8833 174.88 46.825 174.943 46.8833Z" fill="#00B14F"/>
<path d="M174.93 46.7305C174.93 46.768 174.938 46.8096 174.955 46.8471C174.955 46.8263 174.946 46.7888 174.93 46.7305Z" fill="#00B14F"/>
<path d="M174.873 46.7954C174.861 46.7662 174.852 46.7454 174.84 46.7246C174.811 46.7329 174.802 46.7537 174.873 46.7954Z" fill="#00B14F"/>
<path d="M175.023 46.9685C174.99 46.931 174.969 46.8935 174.952 46.8477C174.952 46.8685 174.952 46.8809 174.94 46.8809C174.956 46.8976 174.981 46.9227 175.019 46.9685H175.023Z" fill="#00B14F"/>
<path d="M190.931 38.3343L191.072 38.2719C190.664 38.226 190.231 38.3761 189.852 38.5261C189.818 38.4844 189.981 38.4219 190.039 38.3927C189.572 38.2594 189.372 38.2885 188.543 38.5969L188.685 38.3927C188.556 38.451 188.397 38.3719 188.127 38.301C187.864 38.2344 187.468 38.1802 187.097 38.301C187.11 38.276 187.135 38.2386 187.197 38.2094C186.985 38.2677 186.785 38.2635 186.568 38.2301C186.418 38.1968 186.281 38.1427 186.147 38.1011C185.881 38.0177 185.656 38.001 185.56 38.376L185.222 38.5593C185.66 38.6218 185.156 38.8844 185.335 39.0094C185.164 39.051 184.893 38.7801 185.102 38.7426L185.135 38.7802C185.214 38.3885 184.593 38.6385 184.606 38.3718C183.743 38.3843 182.906 38.1635 182.102 38.1385L182.193 38.4426L181.914 38.4219C181.839 38.3511 181.818 38.1844 182.018 38.1969C181.914 38.0219 181.681 38.3385 181.677 38.4052C181.285 38.2802 181.831 38.051 181.714 38.0427L181.552 38.0635L181.589 38.1011C181.456 38.2261 181.443 38.3551 181.202 38.3385C181.047 38.276 181.127 38.151 181.064 38.1385C181.064 38.1177 181.043 38.1051 180.972 38.1301L180.618 38.1011L180.747 38.3219C180.631 38.3761 180.285 38.3385 179.952 38.3552C179.614 38.3385 179.268 38.3761 179.152 38.3219L179.281 38.1011L178.927 38.1301C178.856 38.1093 178.835 38.1177 178.835 38.1385C178.777 38.151 178.852 38.276 178.697 38.3385C178.456 38.3551 178.443 38.2219 178.31 38.1011L178.347 38.0635L178.185 38.0427C178.064 38.051 178.614 38.2802 178.222 38.4052C178.218 38.3385 177.985 38.0219 177.877 38.1969C178.018 38.1885 178.047 38.2677 178.022 38.3427C177.935 38.3177 177.839 38.2886 177.764 38.2177L177.789 38.1385C177.764 38.1385 177.739 38.1427 177.714 38.1427C177.702 38.126 177.689 38.1135 177.681 38.0969C177.693 38.1135 177.697 38.1302 177.702 38.1468C177.356 38.1635 177.006 38.2093 176.652 38.2552C176.306 38.2218 175.927 38.0718 175.539 38.1176C175.531 38.1801 175.589 38.2677 175.539 38.3593C175.514 38.3593 175.485 38.3593 175.46 38.3593L175.202 38.0427C175.089 38.076 175.093 38.4636 174.893 38.2094C174.922 38.2719 174.964 38.3635 174.889 38.3885C174.693 38.326 174.493 38.2927 174.293 38.276C174.185 38.001 173.977 38.0219 173.739 38.0927C173.606 38.1344 173.468 38.1885 173.318 38.2218C173.102 38.2551 172.902 38.2594 172.689 38.201C172.752 38.2302 172.777 38.2677 172.789 38.2927C172.56 38.2177 172.322 38.2135 172.11 38.2385C171.902 38.1885 171.689 38.1094 171.485 37.9844C171.639 38.126 171.535 38.1427 171.418 38.1468C171.485 38.176 171.435 38.2969 171.431 38.3927C171.414 38.3969 171.397 38.3969 171.381 38.401L170.956 38.151C170.885 38.3718 170.606 38.251 170.468 38.3301C170.256 38.301 170.089 38.3302 169.856 38.3927C169.914 38.426 170.077 38.4844 170.043 38.5261C169.664 38.3761 169.231 38.226 168.822 38.2719L168.964 38.3343L168.385 38.3136L168.493 38.4635C169.143 38.7593 169.11 38.876 169.152 39.0676C169.185 39.251 169.302 39.5302 169.927 39.751C169.697 39.7635 169.939 40.1593 169.972 40.3385C170.01 40.3427 170.06 40.3594 170.127 40.3927C169.977 40.4802 170.16 40.6636 170.368 40.8219C170.585 40.9844 170.827 41.1219 170.897 41.2386C170.931 41.4136 170.772 41.3844 170.593 41.3386C170.872 41.4719 170.968 41.7052 171.056 41.9677C171.068 42.0052 171.081 42.0426 171.093 42.0801C171.077 42.0676 171.056 42.0552 171.035 42.0344C171.035 42.0552 171.031 42.0594 171.027 42.0719C171.043 42.0927 171.064 42.1177 171.093 42.1677C171.102 42.1594 171.106 42.151 171.114 42.1469C171.135 42.2135 171.156 42.276 171.177 42.3302C171.193 42.3718 171.21 42.4094 171.222 42.4385C171.227 42.4469 171.235 42.4469 171.243 42.451C171.243 42.5177 171.281 42.6011 171.222 42.5927C171.364 42.6844 171.397 42.6219 171.427 42.4886C171.464 42.4636 171.506 42.426 171.543 42.3926L171.61 42.4218C171.631 42.3802 171.677 42.3344 171.581 42.3635C171.602 42.3469 171.622 42.3343 171.647 42.326C171.672 42.3718 171.672 42.4135 171.66 42.4469L171.606 42.4218C171.593 42.4468 171.602 42.4635 171.652 42.4635C171.581 42.6219 171.256 42.6802 171.614 42.8011C171.606 42.7469 171.568 42.6677 171.618 42.6677C171.731 42.7385 172.235 42.5885 172.414 42.6427C172.339 42.6885 172.306 42.776 172.135 42.7468C172.206 42.7552 172.293 42.7885 172.36 42.7844C172.435 42.8885 172.606 42.9219 172.739 42.9635C172.731 43.0177 172.722 43.0635 172.71 43.0927C172.739 43.0552 172.76 43.0135 172.785 42.976C172.902 43.0135 172.964 43.0635 172.835 43.1927L172.664 43.2969C173.172 43.501 172.731 43.5052 173.218 43.7344L173.239 43.7094C173.343 43.8969 173.61 43.8302 173.422 44.1135L173.343 44.0843C173.41 44.1843 173.452 44.2343 173.493 44.2843C173.468 44.2843 173.443 44.2843 173.418 44.2718C173.681 44.5343 173.272 44.251 173.36 44.5219C173.293 44.4844 173.243 44.4385 173.202 44.3968C173.227 44.4635 173.243 44.5302 173.256 44.5968V44.5843C173.264 44.5551 173.272 44.5427 173.272 44.5677C173.272 44.5677 173.277 44.5677 173.281 44.5677C173.302 44.5552 173.322 44.5469 173.343 44.5385C173.381 44.6469 173.318 44.5802 173.281 44.5677C173.272 44.5719 173.264 44.576 173.256 44.5801L173.56 44.8093C173.531 44.7343 173.468 44.6594 173.343 44.5344C173.468 44.4927 173.589 44.5218 173.677 44.4801C173.685 44.4885 173.689 44.4968 173.702 44.5052C173.697 44.5468 173.743 44.6802 173.818 44.6677C173.718 44.7552 173.793 44.8927 173.897 45.0218C173.872 45.0677 173.847 45.1094 173.831 45.151C173.868 45.126 173.91 45.101 173.981 45.1093C174.072 45.201 174.164 45.276 174.197 45.3093C174.093 45.1218 174.247 45.126 174.368 45.1051C174.277 45.3385 174.314 45.4218 174.543 45.4552C174.46 45.5343 174.372 45.6177 174.306 45.701C174.285 45.676 174.272 45.651 174.26 45.6218C174.164 45.7968 174.239 45.7302 174.235 45.8052C174.16 45.9344 174.143 46.0677 174.247 46.2094C174.252 46.1385 174.222 46.0551 174.297 46.0385C174.372 46.0218 174.364 46.1302 174.36 46.1677C174.418 46.1552 174.418 46.0802 174.468 46.0261C174.481 46.0427 174.493 46.0593 174.506 46.076C174.489 46.2427 174.577 46.3093 174.681 46.3927C174.706 46.4677 174.727 46.5468 174.685 46.7052C174.747 46.6468 174.764 46.5427 174.852 46.7219C174.877 46.7135 174.914 46.7094 174.935 46.7094C174.935 46.7177 174.935 46.7177 174.935 46.7219V46.7052C174.935 46.7052 174.956 46.7052 174.935 46.701C174.935 46.6427 174.947 46.5844 174.972 46.5427C174.997 46.5386 175.027 46.5386 175.052 46.5427C174.952 46.7261 175.602 46.651 175.181 46.8427C175.302 46.9052 175.41 46.9926 175.518 47.0885C175.481 47.2135 175.468 47.326 175.289 47.226L175.435 47.426C175.443 47.6052 175.535 47.7885 175.672 47.8385C175.714 47.9552 176.018 47.9427 175.839 47.9552L176.172 48.1885L176.139 48.2218C176.36 48.5385 176.872 48.651 176.881 49.2094C176.997 49.2802 177.127 49.351 177.218 49.5552L177.118 49.6885C177.264 49.7843 177.302 50.1802 177.477 50.1343C177.364 50.3468 177.456 50.501 177.627 50.6802C177.893 50.9844 178.193 51.2594 178.335 51.501L178.464 51.3219C178.668 51.601 178.906 51.8052 179.181 52.0177L179.202 51.8843C179.247 51.9718 179.293 52.0677 179.343 52.1677C179.514 52.5136 179.731 52.9051 179.927 52.9218C179.927 52.9218 179.927 52.9218 179.927 52.926C179.931 52.926 179.935 52.926 179.939 52.926C179.943 52.926 179.947 52.926 179.952 52.926C179.952 52.926 179.952 52.926 179.952 52.9218C180.147 52.901 180.364 52.5094 180.535 52.1677C180.722 51.7969 180.86 51.476 181.102 51.4135C181.16 51.2302 181.235 51.1801 181.322 51.1426C181.314 51.1551 181.31 51.1677 181.306 51.1802C181.318 51.1718 181.331 51.1552 181.343 51.1344C181.402 51.1136 181.464 51.0927 181.531 51.0593C181.464 51.0718 181.406 51.0844 181.364 51.1052C181.431 51.0135 181.527 50.8594 181.597 50.6969L181.777 50.7927C181.777 50.7927 181.789 50.7718 181.797 50.7593C181.96 50.676 181.814 50.5885 181.652 50.5468C181.681 50.4593 181.693 50.3801 181.693 50.3051C182.022 50.4135 181.789 50.0135 182.135 50.1343C182.047 49.9718 182.368 49.6426 182.131 49.376C182.168 49.401 182.206 49.3927 182.172 49.4385C182.277 49.3719 182.385 49.3051 182.372 49.1635L182.602 49.2843L182.497 48.8677C182.718 48.8427 182.827 48.851 182.881 49.0927C182.881 48.6135 182.985 48.7843 182.952 48.351L183.068 48.4677C183.135 48.376 183.077 48.0968 183.227 48.126C183.631 48.126 184.052 47.1761 184.689 46.8511C184.231 46.6427 185.047 46.751 184.772 46.4968C184.885 46.5385 184.993 46.5094 185.006 46.6552C185.127 46.3261 185.464 46.3802 185.36 46.001C185.472 46.0427 185.447 46.1635 185.522 46.1802C185.522 46.1427 185.51 46.0343 185.585 46.051C185.66 46.0677 185.631 46.151 185.635 46.2219C185.835 45.9469 185.581 45.6969 185.339 45.4677C185.568 45.4344 185.606 45.351 185.514 45.1177C185.635 45.1385 185.789 45.1343 185.685 45.3218C185.772 45.2385 186.264 44.8551 186.068 44.6801C186.143 44.6926 186.189 44.5635 186.185 44.5177C186.364 44.3218 186.397 44.3177 186.543 44.0968L186.464 44.126C186.281 43.8427 186.547 43.9094 186.647 43.7219L186.668 43.7468C187.152 43.5176 186.714 43.5136 187.222 43.3094L187.052 43.2052C186.747 42.9011 187.514 43.0343 187.564 42.7177H187.414C187.393 42.5135 188.135 42.7635 188.272 42.676C188.322 42.676 188.285 42.7551 188.277 42.8093C188.727 42.6593 188.106 42.6052 188.243 42.3344C188.389 42.3802 188.477 42.6136 188.622 42.4761C188.643 42.4761 188.656 42.4635 188.668 42.4427C188.681 42.4135 188.697 42.376 188.714 42.3344C188.756 42.2302 188.793 42.0968 188.839 41.9718C188.927 41.7093 189.022 41.4761 189.302 41.3427C189.122 41.3927 188.96 41.4176 188.997 41.2426C189.068 41.1218 189.31 40.9885 189.527 40.826C189.739 40.6676 189.918 40.4886 189.768 40.3969C189.835 40.3636 189.885 40.3468 189.922 40.3427C189.952 40.1635 190.197 39.7719 189.968 39.7552C190.593 39.5302 190.71 39.2552 190.743 39.0718C190.781 38.8802 190.752 38.7635 191.402 38.4677L191.51 38.3177L190.931 38.3385V38.3343ZM174.756 45.2051C174.76 45.1801 174.764 45.1468 174.768 45.1177C174.718 45.2302 174.668 45.3135 174.606 45.3093L174.518 45.0051C174.597 45.0093 174.689 45.026 174.777 45.0135C174.777 45.0468 174.772 45.0843 174.768 45.1177C174.785 45.0843 174.802 45.0468 174.814 45.0093C174.839 45.0052 174.864 44.9927 174.889 44.9802L174.972 45.0844C174.918 45.1677 174.852 45.2218 174.756 45.201V45.2051ZM175.831 46.176C175.831 46.176 175.822 46.1802 175.818 46.1843C175.814 46.1718 175.806 46.1551 175.802 46.1426L175.831 46.1802V46.176ZM179.318 50.6094L179.356 50.6593C179.343 50.701 179.327 50.7427 179.314 50.7844C179.314 50.726 179.314 50.6677 179.314 50.6136L179.318 50.6094ZM180.514 50.6635L180.552 50.6176C180.552 50.6676 180.552 50.7177 180.552 50.7677C180.539 50.7343 180.527 50.6968 180.518 50.6593L180.514 50.6635ZM172.452 42.7177C172.452 42.7177 172.452 42.7135 172.452 42.7093C172.452 42.7093 172.452 42.7093 172.452 42.7177ZM175.643 47.5093C175.643 47.5093 175.652 47.5093 175.656 47.5093C175.681 47.6677 175.672 47.6093 175.643 47.5093ZM179.977 52.851C179.977 52.851 179.985 52.8301 179.989 52.8176L179.972 52.8594C179.972 52.8594 179.952 52.8844 179.939 52.8927C179.927 52.8844 179.914 52.8719 179.906 52.8594L179.889 52.8176C179.889 52.8176 179.897 52.8385 179.902 52.851C179.868 52.8135 179.835 52.7636 179.827 52.6927C179.835 52.7052 179.847 52.7177 179.856 52.7302C179.881 52.7677 179.902 52.8093 179.927 52.8427C179.931 52.8385 179.935 52.8302 179.939 52.826C179.943 52.8302 179.947 52.8385 179.952 52.8427C179.977 52.8052 179.997 52.7677 180.022 52.7302C180.031 52.7177 180.043 52.7094 180.052 52.6927C180.043 52.7636 180.01 52.8135 179.977 52.851ZM181.022 38.2136L181.077 38.2677C180.952 38.326 180.985 38.2719 181.022 38.2136ZM182.197 48.5885L182.331 48.4261L182.489 48.8219C182.427 48.751 182.318 48.6719 182.197 48.5927V48.5885ZM185.268 45.3093C185.21 45.3135 185.16 45.2302 185.106 45.1177C185.106 45.151 185.11 45.1801 185.118 45.2051C185.06 45.2176 185.01 45.1969 184.968 45.1635L185.072 45.0385C185.085 45.0635 185.097 45.0927 185.106 45.1177C185.106 45.0843 185.102 45.0426 185.097 45.0051L185.143 44.9469C185.239 44.9552 185.322 44.9594 185.368 44.9552L185.264 45.3093H185.268Z" fill="#00B14F"/>
<path d="M174.33 46.2497L174.484 46.3622C174.422 46.2997 174.439 46.2456 174.434 46.1914C174.401 46.2247 174.368 46.2914 174.33 46.2497Z" fill="#00B14F"/>
<path d="M175.223 47.0129C175.223 46.9379 175.031 47.1171 175.06 47.0462C174.848 47.1254 175.514 47.2045 175.223 47.0129Z" fill="#00B14F"/>
<path d="M170.618 37.9254L170.447 37.8379L170.556 37.9796L170.618 37.9254Z" fill="#00B14F"/>
<path d="M170.288 38.2376L170.251 37.9668L170.147 38.2127C170.184 38.2002 170.259 38.1793 170.288 38.2376Z" fill="#00B14F"/>
<path d="M169.872 40.4166C169.943 40.4333 169.96 40.4 169.947 40.3375C169.889 40.3292 169.86 40.3541 169.872 40.4166Z" fill="#00B14F"/>
</svg>
