<svg width="92" height="98" viewBox="0 0 92 98" fill="none" xmlns="http://www.w3.org/2000/svg">
<path d="M90.3719 1.14673L90.2678 1.15507C90.3136 1.15924 90.3553 1.15923 90.3719 1.14673Z" fill="#20BB65"/>
<path d="M89.4004 5.55859C89.4004 5.55859 89.4129 5.56689 89.4212 5.57106C89.4129 5.56689 89.4087 5.56276 89.4004 5.55859Z" fill="#20BB65"/>
<path d="M86.9215 1.34623C86.9215 1.34623 86.9048 1.34206 86.8965 1.33789L86.9215 1.34623Z" fill="#20BB65"/>
<path d="M87.2847 0.629992C87.143 0.821658 86.668 0.817483 86.8347 1.03832C86.7847 1.12998 86.8764 1.2467 86.9222 1.3467C87.2805 1.4467 86.9097 1.47166 87.2055 1.57166L86.9972 1.55915C87.0972 1.59248 87.1639 1.62583 87.0514 1.62583L86.993 1.61332C87.143 1.66749 87.0472 1.68003 87.1222 1.70919L87.0639 1.69668L87.0847 1.73417L87.0014 1.71337C87.1597 1.78837 87.1597 1.84248 87.0763 1.87165L87.3264 1.91336C87.0305 1.95919 87.5389 2.08418 87.193 2.10918L87.1347 2.09667C87.768 2.33417 86.6597 2.17583 87.2514 2.40917C87.1764 2.38 87.1222 2.38835 87.0639 2.37585C87.1222 2.44252 87.1472 2.50082 87.6305 2.60916C87.6139 2.64666 87.4722 2.60917 87.2847 2.57167C87.4972 2.61751 87.5764 2.6717 87.5847 2.70086L87.5055 2.6675L87.5555 2.76749L87.9597 2.84252C87.8347 2.86335 87.4722 2.74248 87.5555 2.80915L87.8847 2.88417C87.8055 2.93417 87.2972 2.85086 87.0389 2.85086C86.843 3.05086 87.6055 3.5425 86.9639 3.60917L86.718 3.54666C86.3597 3.44666 87.2305 3.76335 86.8972 3.67585L87.0514 3.75082C86.9847 3.73832 86.9139 3.73415 86.8347 3.69665C86.8139 3.71749 86.8722 3.73419 86.9722 3.78419L86.743 3.74253C86.543 3.7842 86.9472 3.99666 86.8264 4.06749C86.3389 4.04249 86.6805 4.39668 86.868 4.60918C87.3263 4.98835 85.8597 4.68002 86.3847 5.08418C86.3347 5.07168 86.4388 5.13003 86.4763 5.14669L86.3597 5.29252C86.3597 5.29252 86.243 5.48 86.5097 5.7425C86.7805 6.00083 87.418 6.37583 88.9847 6.62583L89.0555 6.66332C89.2847 6.63415 89.3513 6.57999 89.0013 6.35499C89.468 6.52999 89.0847 6.28834 89.243 6.32167L89.2805 6.33836C88.9472 6.13002 89.6347 6.32169 89.3347 6.13002C89.3722 6.14669 89.4972 6.19667 89.5014 6.21751C89.4597 6.14667 89.3805 6.04248 89.6513 6.14248C89.6222 6.00498 89.8097 5.89252 89.3972 5.66336L89.4722 5.69667C89.193 5.55084 89.4472 5.63 89.3138 5.53C89.3513 5.53833 89.3722 5.54252 89.3847 5.55085C89.1097 5.40502 89.3847 5.405 89.2722 5.32583L89.4555 5.38834L89.443 5.28418L89.393 5.30503C88.893 5.1217 89.7305 5.34667 89.4264 5.17167C89.5097 5.13 88.418 4.70503 88.6847 4.73003C88.4555 4.62586 89.0597 4.88002 88.893 4.77586C89.1555 4.85919 89.0513 4.85083 89.2638 4.905C89.1513 4.82166 89.5555 4.92167 89.3972 4.80917L89.6055 4.87168C89.2514 4.68418 89.918 4.82168 89.5722 4.66335C89.4222 4.53835 90.2014 4.80084 89.818 4.60084L90.1055 4.65501C90.1597 4.63417 89.768 4.52999 89.918 4.53416C90.093 4.58832 90.0722 4.53 90.2347 4.60084C90.5347 4.5925 89.8889 4.3175 90.3889 4.33834C90.0514 4.22167 90.2722 4.22167 90.018 4.13417C90.168 4.17167 90.0722 4.03 90.3805 4.18C90.4055 4.1925 90.3972 4.20084 90.3389 4.18417L90.543 4.24668C90.9472 4.28418 90.3597 4.07167 90.4347 4.02584C90.3638 4.02584 90.3722 4.05503 90.2347 4.00503L90.2763 3.95498L90.4472 4.01332L90.5722 3.95086L90.3555 3.90916C90.4763 3.89249 90.8472 3.96753 90.5514 3.8467C90.3889 3.7842 90.2513 3.81749 90.1972 3.75499C90.3597 3.73416 90.5972 3.70082 90.6805 3.64248C90.4347 3.59248 90.4513 3.57582 90.4055 3.54249L90.618 3.58837C90.343 3.44253 91.0889 3.66753 90.8722 3.5342L91.018 3.57585L90.5847 3.455C90.1847 3.2925 91.0305 3.51335 90.4764 3.30918C90.5055 3.34668 90.0097 3.22168 90.1097 3.20501L90.3097 3.25918C90.2722 3.23002 90.1889 3.20501 90.2305 3.20084C90.3389 3.23834 90.5264 3.27166 90.4972 3.23416L90.7472 3.30918L90.3847 3.1717C90.6139 3.1717 90.3513 3.04666 90.643 3.08416C90.643 3.08416 90.8055 3.01333 90.493 2.93C90.6847 2.98833 90.7722 2.95086 90.9972 3.00919C90.7805 2.93836 90.6139 2.83002 90.8555 2.84669L90.8805 2.8592C91.143 2.79253 90.5847 2.60916 90.8972 2.56333C90.6514 2.52583 90.793 2.49666 90.4764 2.45499C90.1805 2.30083 91.1472 2.37586 90.1764 2.18003C90.1305 2.12586 90.4139 2.16333 90.468 2.14666L90.518 2.16752C90.4514 2.06752 90.4472 2.04249 90.4805 1.97999C90.3889 1.93415 89.9347 1.86332 90.0514 1.82165C90.2305 1.86749 90.2013 1.83837 90.2013 1.81753C90.2263 1.8342 90.293 1.85083 90.418 1.83833C90.3639 1.82583 90.3305 1.81335 90.3013 1.80502C90.3138 1.80502 90.3264 1.80502 90.3472 1.80919C90.2889 1.76336 90.2305 1.76332 90.2055 1.77582C90.1764 1.77166 90.143 1.76753 90.093 1.76336C90.3305 1.76336 90.093 1.65918 90.4014 1.69668C90.343 1.58002 90.0347 1.46332 89.9222 1.35916C90.0847 1.36749 90.2222 1.40502 90.2847 1.43835L90.2347 1.3675C90.4639 1.39667 90.3638 1.42169 90.4055 1.44669C90.7888 1.41336 90.0513 1.24666 90.4055 1.20082L90.2263 1.16334H90.2555C90.1597 1.15084 90.0305 1.11749 90.0014 1.10083C90.2055 1.10916 90.4638 1.15083 90.4597 1.105C90.6597 1.0925 90.3722 0.996658 90.268 0.942491C90.2305 0.963325 90.1222 0.942526 90.0514 0.925859C90.0472 0.905026 90.2472 0.909152 90.1639 0.884152L90.4347 0.909176C90.1763 0.89251 90.1639 0.825847 90.0514 0.809181C90.2555 0.817514 90.2222 0.859199 90.3722 0.880032C90.3555 0.788365 90.3639 0.83417 90.3472 0.74667C90.1472 0.68417 90.0889 0.734164 89.8514 0.688331C89.8014 0.642498 89.6138 0.588353 89.7847 0.55502H89.543C89.3597 0.459187 89.393 0.421677 89.6389 0.388343C88.6722 0.0425099 88.0014 -0.00751253 87.5722 0.000820798C87.143 0.0133208 86.9555 0.0925261 86.9555 0.0925261C86.4097 0.242526 87.1055 0.384162 87.2722 0.634162L87.2847 0.629992Z" fill="#20BB65"/>
<path d="M81.9493 16.0715L81.8535 16.0215C81.8868 16.0548 81.9202 16.0798 81.9493 16.0715Z" fill="#20BB65"/>
<path d="M74.8926 21.7051C74.8926 21.7051 74.8926 21.7176 74.8967 21.7301C74.8967 21.7217 74.8967 21.7134 74.8926 21.7051Z" fill="#20BB65"/>
<path d="M78.6744 14.4468C78.6744 14.4468 78.666 14.4302 78.666 14.4219L78.6744 14.4468Z" fill="#20BB65"/>
<path d="M80.121 13.4998C79.7126 13.7206 79.3043 13.4498 79.096 13.904C78.9043 14.0206 78.8001 14.2582 78.6751 14.4457C78.8418 14.7915 78.4626 14.6373 78.571 14.9498L78.4001 14.8248C78.4376 14.9332 78.446 15.0165 78.3418 14.9623L78.3043 14.9165C78.3585 15.079 78.2418 15.054 78.271 15.1332L78.2335 15.0832L78.1918 15.154L78.146 15.079C78.171 15.279 78.0876 15.3581 77.9626 15.3665L78.1293 15.554C77.7835 15.4748 78.0543 15.929 77.696 15.7915L77.6585 15.7415C77.8876 16.4123 77.071 15.6332 77.271 16.2832C77.246 16.204 77.1793 16.1915 77.1418 16.1415C77.096 16.2706 77.021 16.379 77.3293 16.7665C77.2585 16.8165 77.1793 16.6873 77.0501 16.5457C77.1835 16.7165 77.1835 16.8331 77.1376 16.8831L77.1085 16.7998L77.0043 16.9748L77.2876 17.2748C77.1335 17.2457 76.9585 16.8998 76.9418 17.0373L77.1501 17.304C76.996 17.3373 76.6168 16.9831 76.3585 16.8706C75.8251 17.0998 75.8585 18.1582 75.0751 17.9915L74.9043 17.7998C74.6751 17.5082 75.1126 18.329 74.8918 18.0623L74.9418 18.2373C74.8876 18.1956 74.8168 18.1581 74.7918 18.0706C74.7376 18.0915 74.771 18.1415 74.8043 18.2582L74.6168 18.1082C74.3293 18.0957 74.4418 18.5707 74.1918 18.6332C73.6876 18.4165 73.5043 19.079 73.396 19.4623C73.3585 20.1707 72.096 19.2457 72.0918 20.0207C72.0501 19.9873 72.0876 20.104 72.1126 20.1373L71.746 20.3248C71.746 20.3248 71.3168 20.5748 71.2585 21.0373C71.2001 21.4998 71.5126 22.1748 73.0126 23.0165L73.0501 23.0873C73.3501 23.1206 73.4918 23.0748 73.3876 22.6498C73.6918 23.0457 73.571 22.5873 73.7043 22.6873L73.7251 22.7248C73.621 22.329 74.1418 22.8248 74.0543 22.4665C74.071 22.504 74.1501 22.6165 74.1293 22.6415C74.1751 22.5332 74.221 22.3665 74.3918 22.5998C74.5376 22.404 74.8835 22.329 74.7418 21.8623L74.7793 21.9331C74.6668 21.629 74.8418 21.8332 74.8293 21.6457C74.8543 21.6748 74.871 21.6873 74.8793 21.6998C74.7751 21.3915 75.071 21.504 75.0585 21.354L75.1751 21.5081L75.3001 21.3665H75.221C74.9335 20.9248 75.5293 21.5623 75.4376 21.204C75.5793 21.1831 75.0001 20.1582 75.2585 20.2957C75.1626 20.0582 75.4501 20.654 75.4126 20.4457C75.5751 20.6707 75.4793 20.6123 75.6293 20.779C75.6293 20.6206 75.9168 20.9207 75.9001 20.704L76.0293 20.8748C75.9168 20.4707 76.421 20.9415 76.2793 20.579C76.296 20.3456 76.7376 21.0373 76.6168 20.604L76.8376 20.804C76.921 20.804 76.6668 20.4873 76.8085 20.5582C76.9127 20.7082 76.971 20.6206 77.0418 20.7873C77.3502 20.9165 77.0751 20.254 77.546 20.5082C77.371 20.1915 77.5877 20.2956 77.4585 20.0581C77.5585 20.179 77.6543 19.9415 77.7585 20.2873C77.7668 20.3165 77.746 20.3248 77.7126 20.2748L77.8293 20.454C78.1751 20.6957 77.8835 20.1373 78.021 20.1081C77.9501 20.0748 77.921 20.1207 77.8585 19.9832L77.971 19.9332L78.0585 20.0915L78.2626 20.0665L78.1085 19.904C78.246 19.9415 78.5001 20.2207 78.3835 19.9123C78.3126 19.7457 78.1376 19.7248 78.1668 19.6165C78.3501 19.6665 78.6251 19.7415 78.7835 19.6998C78.621 19.5123 78.6585 19.4956 78.6585 19.429L78.796 19.5956C78.7335 19.2623 79.1335 19.9331 79.1085 19.6498L79.1918 19.7748L78.946 19.3957C78.7918 18.9748 79.2835 19.6998 79.046 19.1457C79.021 19.2123 78.7293 18.7915 78.846 18.8165L78.9585 18.9915C78.9626 18.9332 78.921 18.854 78.971 18.8707C79.021 18.9748 79.1501 19.1165 79.1751 19.0498L79.3043 19.279L79.1585 18.904C79.3668 19.0206 79.3043 18.7123 79.5168 18.9206C79.5168 18.9206 79.7585 18.9123 79.5918 18.6332C79.6876 18.8123 79.8168 18.804 79.9418 19.0081C79.8376 18.7998 79.8377 18.5623 80.0377 18.7123L80.046 18.7415C80.3751 18.7915 80.121 18.2415 80.4668 18.3456C80.3001 18.1581 80.4668 18.1956 80.2418 17.9665C80.196 17.5956 80.946 18.2207 80.3626 17.4207C80.4001 17.3207 80.596 17.5248 80.6668 17.5332L80.6835 17.5873C80.7626 17.4123 80.796 17.3706 80.9085 17.304C80.896 17.1873 80.6001 16.8373 80.7585 16.8415C80.8501 17.004 80.8627 16.9457 80.896 16.9165C80.896 16.9582 80.9335 17.0123 81.0543 17.0665C81.021 17.0165 81.0085 16.9832 81.0002 16.954C81.0085 16.9665 81.021 16.9706 81.0293 16.9873C81.0418 16.8915 80.9918 16.8582 80.9502 16.8582C80.9335 16.8373 80.9085 16.8123 80.8668 16.779C81.0793 16.9081 81.0126 16.629 81.2251 16.8582C81.3376 16.6582 81.2418 16.3165 81.2877 16.104C81.4127 16.2081 81.4751 16.3457 81.4793 16.4248L81.5335 16.2957C81.6876 16.4665 81.571 16.4457 81.571 16.504C81.9376 16.679 81.5502 16.0123 81.9127 16.1456L81.8168 15.9873L81.846 16.004C81.7793 15.9331 81.721 15.8082 81.7168 15.7665C81.8751 15.8957 82.0335 16.1081 82.0918 16.0415C82.2793 16.1373 82.171 15.8331 82.1626 15.6915C82.1043 15.6998 82.0376 15.6082 82.0043 15.5415C82.0293 15.5082 82.1876 15.6332 82.1543 15.5498L82.346 15.7457C82.1543 15.5707 82.2376 15.4623 82.171 15.3706C82.3293 15.4998 82.2418 15.5457 82.3376 15.6623C82.4501 15.5207 82.3918 15.5915 82.5043 15.4498C82.4293 15.2373 82.3126 15.2748 82.1793 15.0707C82.2001 14.9748 82.1251 14.7832 82.3085 14.8332L82.1168 14.679C82.096 14.4373 82.1793 14.3915 82.4251 14.4915C82.1335 13.3873 81.6793 12.8832 81.321 12.6415C80.9585 12.3998 80.6793 12.4207 80.6793 12.4207C80.0043 12.3415 80.3501 12.9915 80.1085 13.479L80.121 13.4998Z" fill="#20BB65"/>
<path d="M63.3665 29.4863L63.2832 29.4238C63.3082 29.4613 63.3374 29.4905 63.3665 29.4863Z" fill="#20BB65"/>
<path d="M55.9746 34.3945C55.9746 34.3945 55.9746 34.4071 55.9788 34.4196C55.9788 34.4112 55.9788 34.4029 55.9746 34.3945Z" fill="#20BB65"/>
<path d="M60.3462 27.4061C60.3462 27.4061 60.3462 27.3895 60.3379 27.377V27.4061H60.3462Z" fill="#20BB65"/>
<path d="M61.9873 26.6523C61.5289 26.8065 61.1623 26.4857 60.8623 26.9107C60.6498 27.0065 60.4998 27.2315 60.3456 27.4023C60.4581 27.7648 60.0998 27.569 60.1664 27.894L60.0081 27.7482C60.0289 27.8607 60.0248 27.9481 59.9289 27.8773L59.8998 27.8273C59.9331 27.994 59.8206 27.9565 59.8331 28.0398L59.7998 27.9856L59.7498 28.0523L59.7123 27.9731C59.7123 28.1731 59.6164 28.2481 59.4873 28.244L59.6331 28.4481C59.2914 28.3356 59.5123 28.8148 59.1623 28.6481L59.1289 28.594C59.2873 29.2856 58.5456 28.4357 58.6748 29.1065C58.6581 29.0232 58.5914 29.0065 58.5581 28.9523C58.4956 29.0773 58.4123 29.1815 58.6831 29.594C58.6081 29.6356 58.5373 29.5023 58.4248 29.3523C58.5456 29.5315 58.5331 29.6481 58.4831 29.6981L58.4623 29.6106L58.3414 29.7815L58.5998 30.1023C58.4498 30.0606 58.3039 29.7023 58.2748 29.8398L58.4623 30.1231C58.3039 30.1481 57.9498 29.7648 57.6956 29.6315C57.1331 29.8273 57.0914 30.8898 56.3123 30.6898L56.1498 30.4898C55.9373 30.1856 56.3289 31.0315 56.1248 30.7565L56.1664 30.9315C56.1164 30.8857 56.0456 30.8482 56.0248 30.7607C55.9664 30.7815 55.9998 30.8315 56.0248 30.9481L55.8456 30.7898C55.5581 30.7648 55.6414 31.244 55.3914 31.3023C54.8914 31.069 54.6748 31.7273 54.5539 32.1106C54.4914 32.8148 53.2498 31.8607 53.2248 32.6398C53.1831 32.6023 53.2164 32.7231 53.2414 32.7606L52.8664 32.944C52.8664 32.944 51.1206 33.9232 54.0831 35.6607L54.1206 35.7315C54.4164 35.7731 54.5581 35.7315 54.4664 35.3023C54.7623 35.7065 54.6498 35.244 54.7831 35.3482L54.7998 35.3856C54.7039 34.9898 55.2123 35.4982 55.1331 35.1357C55.1498 35.1732 55.2248 35.2898 55.2039 35.3106C55.2498 35.2065 55.2998 35.0398 55.4664 35.2773C55.6164 35.0856 55.9623 35.0231 55.8289 34.5523L55.8664 34.6232C55.7623 34.3148 55.9331 34.5231 55.9248 34.3398C55.9498 34.369 55.9664 34.3815 55.9748 34.394C55.8789 34.0856 56.1706 34.2065 56.1623 34.0565L56.2748 34.2148L56.4039 34.0773H56.3248C56.0498 33.6231 56.6248 34.2815 56.5456 33.9231C56.6873 33.9106 56.1456 32.8648 56.3998 33.0107C56.3123 32.769 56.5789 33.3773 56.5498 33.169C56.7039 33.3982 56.6081 33.3356 56.7498 33.5106C56.7498 33.3523 57.0289 33.6648 57.0206 33.4481L57.1414 33.6273C57.0456 33.219 57.5289 33.7148 57.3998 33.3481C57.4248 33.119 57.8373 33.8273 57.7331 33.3898L57.9456 33.5981C58.0289 33.5981 57.7873 33.2731 57.9289 33.3523C58.0248 33.5065 58.0873 33.4231 58.1498 33.594C58.4498 33.7398 58.2081 33.0648 58.6623 33.3523C58.5039 33.0273 58.7164 33.144 58.5956 32.9023C58.6873 33.0273 58.7956 32.8023 58.8789 33.1523C58.8873 33.1815 58.8664 33.1856 58.8331 33.1356L58.9373 33.319C59.2623 33.5815 59.0081 33.0106 59.1456 32.994C59.0748 32.9565 59.0456 32.9982 58.9914 32.8607L59.1039 32.819L59.1831 32.9815L59.3831 32.9731L59.2414 32.8023C59.3748 32.8523 59.6081 33.1481 59.5123 32.8356C59.4498 32.6648 59.2831 32.6315 59.3164 32.5231C59.4956 32.5856 59.7623 32.6815 59.9164 32.6606C59.7664 32.4606 59.8039 32.4482 59.8123 32.3815L59.9373 32.5606C59.8998 32.2273 60.2456 32.9273 60.2414 32.644L60.3123 32.7773L60.0956 32.3773C59.9748 31.944 60.4039 32.7106 60.2081 32.1398C60.1789 32.2023 59.9206 31.7606 60.0331 31.7981L60.1331 31.9815C60.1414 31.9231 60.1081 31.844 60.1539 31.8648C60.1956 31.9732 60.3123 32.1231 60.3414 32.0606L60.4539 32.2981L60.3373 31.9148C60.5331 32.0523 60.4956 31.744 60.6873 31.969C60.6873 31.969 60.9248 31.9856 60.7831 31.694C60.8623 31.8815 60.9914 31.8856 61.0956 32.0981C61.0123 31.8815 61.0289 31.6482 61.2123 31.819V31.8481C61.5331 31.9356 61.3373 31.3648 61.6623 31.5106C61.5164 31.3065 61.6748 31.3648 61.4789 31.1106C61.4706 30.7398 62.1414 31.4523 61.6539 30.5898C61.6998 30.494 61.8706 30.7231 61.9373 30.7398L61.9498 30.794C62.0456 30.6315 62.0831 30.5981 62.1998 30.5481C62.1998 30.4315 61.9539 30.044 62.1081 30.0773C62.1789 30.2481 62.1998 30.194 62.2331 30.1731C62.2248 30.2106 62.2581 30.2732 62.3706 30.344C62.3456 30.294 62.3373 30.2565 62.3289 30.2273C62.3373 30.2398 62.3456 30.2481 62.3539 30.2648C62.3748 30.1731 62.3331 30.1315 62.2956 30.1273C62.2831 30.1023 62.2581 30.0732 62.2248 30.0398C62.4164 30.1982 62.3873 29.9148 62.5664 30.1731C62.7039 29.9981 62.6498 29.644 62.7289 29.444C62.8331 29.569 62.8789 29.7106 62.8706 29.7898L62.9414 29.6732C63.0706 29.869 62.9539 29.8232 62.9498 29.8815C63.2831 30.1107 62.9956 29.4023 63.3331 29.594L63.2623 29.4232L63.2873 29.444C63.2331 29.3648 63.1914 29.2315 63.1956 29.1898C63.3289 29.344 63.4539 29.5773 63.5164 29.5232C63.6831 29.6482 63.6248 29.3356 63.6373 29.194C63.5789 29.194 63.5289 29.0898 63.5081 29.019C63.5414 28.9898 63.6748 29.144 63.6539 29.0523L63.8081 29.2773C63.6498 29.0731 63.7498 28.9856 63.6998 28.8815C63.8331 29.0356 63.7414 29.0648 63.8164 29.194C63.9456 29.0773 63.8831 29.1356 64.0123 29.019C63.9748 28.7981 63.8539 28.8148 63.7581 28.5898C63.7956 28.5023 63.7581 28.2981 63.9248 28.3856L63.7664 28.2023C63.7914 27.9606 63.8831 27.9356 64.1039 28.0815C63.9581 25.8148 62.8039 25.7065 62.8039 25.7065C62.1331 25.5065 62.3331 26.219 61.9914 26.6731L61.9873 26.6523Z" fill="#20BB65"/>
<path d="M44.4566 42.0586L44.3691 41.9961C44.3941 42.0336 44.4275 42.0628 44.4566 42.0586Z" fill="#20BB65"/>
<path d="M37.3262 47.2461C37.3262 47.2461 37.3262 47.2586 37.3345 47.2711C37.3345 47.2628 37.3345 47.2544 37.3262 47.2461Z" fill="#20BB65"/>
<path d="M41.3931 40.0506C41.3931 40.0506 41.3889 40.034 41.3848 40.0215V40.0506H41.3931Z" fill="#20BB65"/>
<path d="M43.0269 39.2508C42.5686 39.4175 42.1977 39.1049 41.9061 39.5424C41.6936 39.6424 41.5519 39.8758 41.3936 40.0549C41.5144 40.4174 41.1519 40.23 41.2227 40.555L41.0644 40.4133C41.0894 40.5258 41.0894 40.6133 40.9852 40.5466L40.9519 40.4966C40.9894 40.6633 40.8727 40.63 40.8936 40.7133L40.8602 40.6633L40.8102 40.7299L40.7727 40.6508C40.7727 40.855 40.6852 40.93 40.5561 40.93L40.7102 41.13C40.3644 41.03 40.6019 41.5008 40.2436 41.3466L40.2102 41.2966C40.3894 41.9841 39.6186 41.1633 39.7727 41.8299C39.7519 41.7466 39.6852 41.7341 39.6519 41.6799C39.5936 41.8091 39.5102 41.9133 39.7977 42.3175C39.7227 42.3633 39.6477 42.2341 39.5269 42.0841C39.6519 42.2591 39.6436 42.3758 39.5978 42.43L39.5727 42.3424L39.4561 42.5174L39.7269 42.8258C39.5727 42.7924 39.4144 42.4383 39.3894 42.5758L39.5894 42.8508C39.4352 42.88 39.0644 42.5133 38.8061 42.3924C38.2477 42.6174 38.2519 43.6841 37.4644 43.5216L37.2936 43.3299C37.0644 43.0383 37.4977 43.8633 37.2769 43.5966L37.3269 43.7716C37.2727 43.7299 37.2019 43.6924 37.1769 43.6091C37.1227 43.6341 37.1561 43.68 37.1894 43.7966L37.0019 43.6466C36.7102 43.6383 36.8186 44.1133 36.5686 44.1883C36.0519 43.9841 35.8727 44.6591 35.7727 45.0508C35.7561 45.7591 34.4477 44.8924 34.4769 45.6758C34.4352 45.6424 34.4769 45.7591 34.5019 45.7924L34.1394 46.0008C34.1394 46.0008 32.4602 47.105 35.5477 48.6258L35.5894 48.6966C35.8894 48.7174 36.0269 48.6633 35.9019 48.2466C36.2269 48.6299 36.0811 48.1758 36.2186 48.2716L36.2394 48.305C36.1144 47.9175 36.6561 48.3883 36.5519 48.0341C36.5727 48.0674 36.6519 48.18 36.6352 48.205C36.6727 48.0966 36.7102 47.93 36.8936 48.155C37.0311 47.955 37.3644 47.8674 37.2019 47.4091L37.2436 47.48C37.1227 47.18 37.3019 47.3758 37.2811 47.1924C37.3061 47.2216 37.3269 47.2299 37.3352 47.2466C37.2227 46.9424 37.5186 47.0466 37.4977 46.8966L37.6186 47.0466L37.7352 46.9008L37.6561 46.9091C37.3561 46.4716 37.9644 47.0924 37.8644 46.7383C38.0019 46.7174 37.4061 45.7049 37.6644 45.8341C37.5644 45.5966 37.8644 46.1883 37.8227 45.9841C37.9894 46.205 37.8936 46.1508 38.0436 46.3133C38.0352 46.1549 38.3311 46.4508 38.3061 46.2383L38.4394 46.4091C38.3186 46.0049 38.8269 46.4758 38.6811 46.1175C38.6936 45.8841 39.1436 46.5716 39.0144 46.1424L39.2352 46.3425C39.3144 46.3425 39.0602 46.0258 39.2061 46.0966C39.3102 46.2466 39.3686 46.1591 39.4352 46.3258C39.7394 46.4591 39.4644 45.7966 39.9269 46.0591C39.7561 45.7424 39.9686 45.8508 39.8394 45.6133C39.9352 45.7341 40.0311 45.5049 40.1311 45.8508C40.1394 45.8799 40.1186 45.8883 40.0852 45.8383L40.1977 46.0175C40.5352 46.2675 40.2519 45.7049 40.3852 45.6841C40.3144 45.6508 40.2852 45.6925 40.2269 45.555L40.3352 45.5091L40.4227 45.6675L40.6227 45.6508L40.4727 45.4841C40.6061 45.5258 40.8519 45.8133 40.7436 45.505C40.6769 45.3383 40.5061 45.3091 40.5353 45.2008C40.7144 45.2591 40.9811 45.3424 41.1352 45.3133C40.9769 45.1174 41.0144 45.105 41.0186 45.0383L41.1477 45.2091C41.0936 44.8758 41.4686 45.5633 41.4519 45.2799L41.5311 45.4091L41.2977 45.0216C41.1561 44.5966 41.6186 45.3425 41.4019 44.78C41.3769 44.8425 41.1019 44.4091 41.2144 44.4424L41.3227 44.6216C41.3311 44.5633 41.2894 44.4841 41.3394 44.5008C41.3852 44.6049 41.5061 44.7549 41.5352 44.6924L41.6561 44.9258L41.5227 44.5466C41.7227 44.6758 41.6727 44.3674 41.8727 44.5883C41.8727 44.5883 42.1102 44.5966 41.9561 44.3091C42.0436 44.4925 42.1686 44.4966 42.2811 44.7049C42.1894 44.4924 42.1977 44.2591 42.3852 44.4216L42.3936 44.4508C42.7102 44.53 42.4936 43.9675 42.8227 44.1008C42.6727 43.9008 42.8311 43.9549 42.6269 43.7091C42.6061 43.3341 43.2977 44.0341 42.7852 43.1841C42.8269 43.0883 43.0061 43.3133 43.0727 43.3258L43.0852 43.38C43.1769 43.2175 43.2102 43.1799 43.3269 43.1258C43.3227 43.0091 43.0686 42.6299 43.2227 42.6549C43.2977 42.8258 43.3144 42.7716 43.3519 42.7466C43.3477 42.7841 43.3769 42.8466 43.4936 42.9133C43.4686 42.8633 43.4561 42.8258 43.4519 42.7966C43.4603 42.8091 43.4686 42.8174 43.4811 42.8341C43.5019 42.7424 43.4602 42.7008 43.4186 42.7008C43.4019 42.6758 43.3811 42.6508 43.3436 42.6133C43.5394 42.7633 43.5019 42.4841 43.6852 42.7383C43.8144 42.5591 43.7519 42.205 43.8269 42.005C43.9352 42.1258 43.9852 42.2674 43.9769 42.3466L44.0436 42.2258C44.1769 42.4175 44.0602 42.3758 44.0561 42.4383C44.3936 42.6633 44.0936 41.9549 44.4311 42.1424L44.3561 41.9716L44.3811 41.9924C44.3269 41.9133 44.2811 41.7841 44.2853 41.7425C44.4228 41.8966 44.5519 42.1258 44.6144 42.0675C44.7811 42.1883 44.7186 41.8758 44.7269 41.7383C44.6686 41.7383 44.6186 41.6341 44.5936 41.5674C44.6269 41.5383 44.7602 41.6883 44.7394 41.6008L44.8977 41.8216C44.7394 41.6174 44.8311 41.53 44.7811 41.43C44.9144 41.5841 44.8269 41.6091 44.9019 41.7425C45.0311 41.6258 44.9644 41.6841 45.0936 41.5633C45.0519 41.3424 44.9311 41.3591 44.8352 41.1383C44.8727 41.0466 44.8269 40.8466 44.9977 40.93L44.8352 40.7466C44.8561 40.5049 44.9436 40.4758 45.1686 40.6216C44.9894 38.3466 43.8394 38.2591 43.8394 38.2591C43.1644 38.0716 43.3728 38.7883 43.0353 39.2466L43.0269 39.2508Z" fill="#20BB65"/>
<path d="M26.578 55.8589L26.4863 55.8047C26.5155 55.838 26.5488 55.863 26.578 55.8589Z" fill="#20BB65"/>
<path d="M20.2031 61.8828C20.2031 61.8828 20.2073 61.8953 20.2115 61.9037C20.2115 61.8953 20.2073 61.887 20.2031 61.8828Z" fill="#20BB65"/>
<path d="M23.3032 54.2128C23.3032 54.2128 23.2991 54.1961 23.2949 54.1877L23.3032 54.2128Z" fill="#20BB65"/>
<path d="M24.8445 53.2214C24.407 53.4423 24.0028 53.1714 23.757 53.6381C23.557 53.7673 23.4403 54.0131 23.3028 54.2089C23.4653 54.5548 23.082 54.4131 23.1904 54.7298L23.0153 54.6089C23.0528 54.7173 23.0612 54.8047 22.9528 54.7506L22.9153 54.7047C22.9695 54.8672 22.8528 54.8464 22.882 54.9256L22.8445 54.8798L22.8028 54.9547L22.757 54.8798C22.782 55.0798 22.7028 55.1714 22.5737 55.1839L22.7487 55.3631C22.3945 55.3047 22.682 55.7464 22.307 55.6381L22.2695 55.5922C22.5278 56.2547 21.6653 55.5339 21.8987 56.1756C21.8695 56.0964 21.7987 56.0881 21.7612 56.0422C21.7195 56.1797 21.6487 56.2923 21.9862 56.6589C21.9153 56.7131 21.8278 56.5922 21.6903 56.4631C21.8403 56.6214 21.8445 56.7381 21.8028 56.7964L21.7695 56.7131L21.6737 56.9006L21.982 57.1714C21.8237 57.1589 21.6237 56.8256 21.6153 56.9673L21.8487 57.2131C21.6987 57.2631 21.2862 56.9464 21.0112 56.8631C20.482 57.1631 20.6278 58.2214 19.8237 58.1714L19.6278 58.0048C19.3612 57.7464 19.9029 58.5048 19.6487 58.2714L19.7237 58.4381C19.6653 58.4047 19.5862 58.3797 19.5528 58.2964C19.5028 58.3256 19.5403 58.3714 19.5903 58.4798L19.382 58.3589C19.0903 58.3923 19.2612 58.8506 19.0278 58.9547C18.4862 58.8256 18.4028 59.5256 18.3612 59.9298C18.4445 60.6339 17.0237 59.9756 17.1612 60.7506C17.1112 60.7256 17.1737 60.8339 17.2029 60.8631L16.8737 61.1298C16.8737 61.1298 16.4987 61.4756 16.5403 61.9422C16.5778 62.4131 17.0445 62.9881 18.682 63.4964L18.732 63.5589C19.0278 63.5297 19.1528 63.4589 18.9653 63.0673C19.3445 63.3923 19.1278 62.9714 19.282 63.0464L19.307 63.0797C19.1237 62.7172 19.7278 63.1006 19.5737 62.7672C19.5987 62.7964 19.6945 62.8964 19.682 62.9214C19.7028 62.8089 19.7153 62.6381 19.9278 62.8339C20.032 62.6173 20.3487 62.4839 20.1195 62.0548L20.1695 62.1173C20.0029 61.8381 20.2112 62.0089 20.1653 61.8297C20.1945 61.8547 20.2154 61.8631 20.2237 61.8756C20.0654 61.5922 20.3737 61.6547 20.332 61.5089L20.4737 61.6423L20.5695 61.4839L20.4945 61.5048C20.1362 61.1131 20.8278 61.6422 20.6737 61.3089C20.807 61.2714 20.0695 60.3506 20.3445 60.4464C20.2112 60.2256 20.5903 60.7714 20.5195 60.5714C20.7153 60.7672 20.6112 60.7256 20.782 60.8631C20.7528 60.7048 21.0862 60.9589 21.032 60.7506L21.1862 60.9006C21.0112 60.5172 21.5778 60.9131 21.382 60.5797C21.3653 60.3506 21.9028 60.9673 21.7153 60.5589L21.9612 60.7256C22.0403 60.7131 21.7445 60.4381 21.8945 60.4881C22.0195 60.6214 22.0612 60.5297 22.1528 60.6839C22.4695 60.7756 22.1112 60.1589 22.6028 60.3589C22.3903 60.0673 22.6153 60.1464 22.4528 59.9298C22.5653 60.0381 22.6279 59.7964 22.7737 60.1256C22.7862 60.1548 22.7695 60.1631 22.7278 60.1172L22.8653 60.2797C23.232 60.4839 22.8737 59.9673 23.007 59.9256C22.932 59.9006 22.9112 59.9464 22.832 59.8173L22.9362 59.7589L23.0403 59.9047L23.2362 59.8631L23.0653 59.7173C23.2028 59.7423 23.482 59.9964 23.3362 59.7047C23.2487 59.5506 23.0737 59.5422 23.0903 59.4339C23.2737 59.4672 23.5528 59.5173 23.6987 59.4714C23.5195 59.3006 23.5528 59.2797 23.5487 59.2172L23.6987 59.3714C23.6028 59.0506 24.0653 59.6798 24.007 59.4048L24.0987 59.5256L23.8195 59.1672C23.6278 58.7631 24.1778 59.4464 23.8903 58.9172C23.8737 58.9839 23.5445 58.5881 23.6612 58.6047L23.7904 58.7714C23.7904 58.7131 23.7404 58.6381 23.7904 58.6506C23.8487 58.7506 23.9862 58.8797 24.007 58.8131L24.157 59.0297L23.9778 58.6714C24.1945 58.7756 24.1028 58.4798 24.3278 58.6714C24.3278 58.6714 24.5612 58.6506 24.3737 58.3839C24.482 58.5547 24.607 58.5423 24.7445 58.7339C24.6278 58.5339 24.607 58.3006 24.8112 58.4422L24.8237 58.4714C25.1445 58.5131 24.8612 57.9797 25.2028 58.0756C25.0278 57.8964 25.1945 57.9297 24.9612 57.7089C24.8945 57.3422 25.6612 57.9548 25.0528 57.1714C25.082 57.0714 25.2862 57.2714 25.357 57.2798L25.3779 57.3339C25.4487 57.1631 25.4779 57.1214 25.5862 57.0548C25.5695 56.9423 25.2695 56.5923 25.4278 56.6006C25.5237 56.7631 25.532 56.7047 25.5653 56.6797C25.5653 56.7172 25.6028 56.7756 25.7237 56.8297C25.6903 56.7839 25.6779 56.7464 25.6654 56.7214C25.6737 56.7339 25.6862 56.7381 25.6945 56.7548C25.7028 56.6589 25.657 56.6256 25.6153 56.6297C25.5987 56.6089 25.5737 56.5839 25.532 56.5506C25.7445 56.6798 25.6737 56.4047 25.8862 56.6339C25.9945 56.4422 25.8903 56.0964 25.9403 55.8922C26.0612 56.0006 26.1237 56.1339 26.1278 56.2172L26.182 56.0922C26.3362 56.2672 26.2153 56.2381 26.2195 56.3006C26.5778 56.4881 26.1987 55.8173 26.557 55.9631L26.4612 55.8006L26.4903 55.8173C26.4278 55.7464 26.3695 55.6172 26.3653 55.5797C26.5153 55.7172 26.6695 55.9339 26.7278 55.8673C26.907 55.9714 26.807 55.6672 26.8028 55.5256C26.7445 55.5297 26.682 55.4381 26.6528 55.3672C26.682 55.3339 26.832 55.4714 26.7987 55.3839L26.982 55.5881C26.7987 55.4047 26.8862 55.3047 26.8237 55.2089C26.9737 55.3464 26.8862 55.3839 26.9778 55.5048C27.0903 55.3714 27.0362 55.4381 27.1487 55.3089C27.082 55.0922 26.9653 55.1256 26.8445 54.9131C26.8695 54.8214 26.807 54.6256 26.982 54.6881L26.8028 54.5256C26.7945 54.2839 26.882 54.2464 27.1195 54.3631C26.9112 53.2423 26.5195 52.6881 26.182 52.4173C25.8403 52.1464 25.5528 52.1547 25.5528 52.1547C24.857 52.0422 25.1403 52.7339 24.8528 53.2297L24.8445 53.2214Z" fill="#20BB65"/>
<path d="M11.4518 72.33L11.3477 72.3008C11.3852 72.3258 11.4227 72.3425 11.4518 72.33Z" fill="#20BB65"/>
<path d="M7.18555 79.8535C7.18555 79.8535 7.1939 79.8619 7.20223 79.8702C7.19806 79.8619 7.18971 79.8577 7.18555 79.8535Z" fill="#20BB65"/>
<path d="M7.86041 71.5875C7.86041 71.5875 7.85208 71.5708 7.84375 71.5625L7.86041 71.5875Z" fill="#20BB65"/>
<path d="M9.11451 70.2082C8.73951 70.5332 8.28118 70.3832 8.15618 70.904C7.99368 71.0832 7.94368 71.3582 7.86034 71.5874C8.10618 71.879 7.69784 71.8499 7.88534 72.1249L7.68118 72.0582C7.74368 72.154 7.77701 72.2374 7.65618 72.2124L7.60618 72.1791C7.70201 72.3207 7.58118 72.3332 7.63118 72.404L7.58118 72.3707L7.56035 72.454L7.49367 72.3957C7.57284 72.5832 7.51868 72.6916 7.39785 72.7457L7.61452 72.8707C7.25619 72.9165 7.65618 73.2624 7.26451 73.2624L7.21451 73.229C7.64368 73.7915 6.61453 73.3499 7.01869 73.904C6.96869 73.8332 6.89784 73.8499 6.84784 73.8165C6.84784 73.9582 6.81034 74.0915 7.23534 74.3457C7.18534 74.4207 7.06451 74.329 6.89367 74.2457C7.08117 74.354 7.11869 74.4665 7.09786 74.5332L7.03952 74.4624L7.00201 74.6749L7.37702 74.8457C7.22285 74.879 6.93117 74.6207 6.96867 74.7582L7.26451 74.9249C7.13534 75.0166 6.64368 74.8374 6.35618 74.8415C5.93535 75.2957 6.38952 76.2665 5.60619 76.4749L5.36868 76.379C5.03118 76.2165 5.78535 76.7707 5.47285 76.629L5.59367 76.7665C5.52701 76.754 5.44367 76.754 5.38534 76.6874C5.34367 76.7332 5.39786 76.7624 5.48119 76.8541L5.24786 76.8041C4.98119 76.9332 5.28534 77.3124 5.09784 77.4957C4.54367 77.554 4.68534 78.254 4.78117 78.6499C5.09367 79.2874 3.53117 79.1624 3.92284 79.8499C3.86867 79.8415 3.96034 79.9249 4.002 79.9416L3.78536 80.3124C3.78536 80.3124 3.55202 80.779 3.76036 81.204C3.96452 81.6332 4.61034 81.9915 6.31867 81.8832L6.38952 81.9207C6.65202 81.7916 6.74367 81.6832 6.42701 81.3874C6.89784 81.5582 6.54368 81.2415 6.71451 81.2582L6.75202 81.2791C6.45202 81.0041 7.15203 81.154 6.88953 80.8999C6.92286 80.9207 7.04786 80.979 7.04369 81.0082C7.02286 80.8957 6.97285 80.7374 7.24368 80.8457C7.26452 80.6124 7.5145 80.3832 7.152 80.0624L7.22286 80.104C6.97286 79.8999 7.22286 79.9874 7.11869 79.8374C7.15619 79.8499 7.17701 79.8499 7.18951 79.8582C6.94785 79.6457 7.25619 79.5999 7.16869 79.479L7.34368 79.5582L7.37702 79.379L7.31034 79.4207C6.83951 79.1707 7.66867 79.4415 7.41451 79.179C7.52701 79.0999 6.53118 78.4749 6.82285 78.4749C6.62701 78.3124 7.16035 78.6999 7.03118 78.5374C7.28118 78.6582 7.16869 78.6541 7.37702 78.7291C7.29785 78.5916 7.69367 78.7249 7.57284 78.5415L7.76869 78.6332C7.48119 78.3291 8.14369 78.5249 7.85203 78.2707C7.76036 78.0582 8.46452 78.4749 8.16036 78.1499L8.44786 78.2332C8.51869 78.1957 8.15202 78.029 8.31035 78.029C8.47285 78.1165 8.48118 78.0165 8.61868 78.1332C8.94784 78.1249 8.41035 77.6541 8.93952 77.6916C8.64785 77.4832 8.88534 77.4874 8.66451 77.3291C8.80201 77.3957 8.7895 77.1499 9.027 77.4165C9.04784 77.4374 9.03534 77.454 8.98118 77.4207L9.16034 77.5332C9.56867 77.6166 9.07284 77.2374 9.18534 77.1582C9.10617 77.1582 9.10201 77.204 8.98535 77.1082L9.06451 77.0249L9.21034 77.1332L9.38119 77.0374L9.17702 76.9499C9.31452 76.9332 9.65618 77.0916 9.42701 76.8582C9.29368 76.7374 9.13118 76.779 9.11034 76.6707C9.29368 76.6499 9.57286 76.6165 9.69786 76.529C9.47702 76.4165 9.50201 76.3874 9.47701 76.329L9.66869 76.4332C9.48119 76.1582 10.1062 76.6207 9.97284 76.379L10.0978 76.4665L9.72703 76.2082C9.42286 75.879 10.1479 76.3707 9.71868 75.9499C9.71868 76.0207 9.29369 75.7332 9.41036 75.7207L9.58118 75.8415C9.56451 75.7832 9.49369 75.729 9.54369 75.729C9.62702 75.8082 9.79785 75.8916 9.79785 75.8249L10.002 75.9915L9.72703 75.704C9.96453 75.7457 9.78952 75.4874 10.0604 75.6041C10.0604 75.6041 10.277 75.5207 10.0228 75.3207C10.177 75.454 10.2937 75.4082 10.477 75.5541C10.3062 75.3957 10.2187 75.179 10.4562 75.2582L10.4728 75.2832C10.7895 75.2374 10.3687 74.8082 10.7228 74.804C10.5062 74.679 10.6728 74.6666 10.3895 74.5207C10.2228 74.1874 11.127 74.5707 10.327 73.9832C10.327 73.879 10.5812 74.0207 10.6478 74.0082L10.6812 74.0541C10.702 73.8707 10.7187 73.8249 10.802 73.7332C10.752 73.6291 10.3729 73.3707 10.527 73.3415C10.6604 73.4707 10.6562 73.4166 10.6812 73.3791C10.6895 73.4166 10.7437 73.4582 10.877 73.4832C10.8353 73.4457 10.8104 73.4165 10.7937 73.3915C10.8062 73.3999 10.8145 73.4041 10.8312 73.4166C10.8145 73.3249 10.7603 73.3041 10.7228 73.3166C10.702 73.2999 10.6687 73.2832 10.6228 73.2624C10.8603 73.3332 10.7187 73.0874 10.9853 73.2499C11.0395 73.0374 10.8479 72.7332 10.8437 72.5249C10.9895 72.5999 11.0853 72.7124 11.1103 72.7874L11.1312 72.654C11.3229 72.7832 11.202 72.7874 11.2187 72.8416C11.6103 72.9332 11.077 72.3832 11.4562 72.4374L11.3228 72.304L11.352 72.3124C11.2728 72.2582 11.1853 72.1499 11.1728 72.1124C11.352 72.2082 11.5562 72.3749 11.5937 72.2999C11.7937 72.354 11.6187 72.0874 11.5812 71.954C11.527 71.9749 11.4437 71.8957 11.3937 71.8415C11.4104 71.804 11.5937 71.8999 11.5395 71.8207L11.7687 71.9749C11.5478 71.8415 11.602 71.7249 11.5187 71.6499C11.6979 71.7457 11.6228 71.804 11.7437 71.8999C11.8187 71.7457 11.7812 71.8249 11.8562 71.6707C11.7395 71.479 11.6354 71.5374 11.4645 71.3624C11.4645 71.2665 11.3562 71.0915 11.5437 71.1082L11.3312 70.9915C11.2645 70.7582 11.3437 70.6999 11.602 70.7624C11.127 69.7249 10.6228 69.2749 10.227 69.0916C9.83117 68.9082 9.54784 68.9916 9.54784 68.9916C8.8395 69.0541 9.27702 69.6624 9.11868 70.2207L9.11451 70.2082Z" fill="#20BB65"/>
<path d="M3.5707 91.7441H3.4707C3.51654 91.7525 3.5582 91.7525 3.5707 91.7441Z" fill="#20BB65"/>
<path d="M3.23828 95.8262C3.23828 95.8262 3.25078 95.8262 3.25911 95.8303C3.25078 95.8303 3.24245 95.8303 3.23828 95.8262Z" fill="#20BB65"/>
<path d="M0.11289 91.9439C0.11289 91.9439 0.096224 91.9397 0.0878906 91.9355L0.11289 91.9439Z" fill="#20BB65"/>
<path d="M0.505385 91.0935C0.351218 91.306 -0.123788 91.3059 0.0303787 91.5726C-0.0237879 91.6851 0.0678797 91.8226 0.109546 91.9393C0.46788 92.0393 0.0970434 92.0892 0.392877 92.1892H0.184543C0.284543 92.2226 0.355379 92.2559 0.238712 92.2642L0.180373 92.256C0.334539 92.306 0.234538 92.331 0.309538 92.356L0.251199 92.3476L0.272053 92.3892L0.188714 92.3726C0.347047 92.4476 0.351219 92.506 0.272053 92.5518L0.522042 92.5767C0.230376 92.6559 0.742885 92.7517 0.401218 92.8142L0.338708 92.8059C0.984541 92.9976 -0.132136 92.9601 0.484531 93.1518C0.409531 93.1268 0.355381 93.1476 0.292881 93.1393C0.359547 93.2059 0.388703 93.2726 0.88037 93.3226C0.86787 93.3642 0.722054 93.3434 0.534555 93.3309C0.751221 93.3517 0.834555 93.3976 0.847055 93.4309L0.763716 93.406L0.830372 93.5101L1.2387 93.5267C1.11786 93.5684 0.742876 93.4934 0.834542 93.5518L1.17204 93.581C1.10121 93.6435 0.584533 93.6393 0.330367 93.6893C0.159533 93.9685 1.00121 94.3351 0.388706 94.5559H0.134545C-0.236288 94.5309 0.680371 94.6601 0.334537 94.6476L0.501214 94.6892C0.434547 94.6934 0.363702 94.7059 0.280369 94.6892C0.263702 94.7184 0.3262 94.7226 0.434533 94.7476L0.201201 94.7642C0.0137009 94.8684 0.45537 94.9892 0.359536 95.1017C-0.11963 95.2184 0.301208 95.5143 0.547041 95.6768C1.09287 95.9101 -0.394625 96.1184 0.234541 96.3601C0.180375 96.3643 0.301212 96.3893 0.342879 96.3893L0.284539 96.5934C0.284539 96.5934 0.247035 96.8434 0.592869 96.9976C0.938702 97.1559 1.6762 97.2059 3.21786 96.8684H3.29703C3.49703 96.7726 3.53872 96.7101 3.13455 96.631C3.63455 96.631 3.1887 96.5476 3.3512 96.5268H3.39288C3.00955 96.456 3.71372 96.4059 3.37205 96.3392C3.41372 96.3392 3.54705 96.3476 3.55539 96.3601C3.49289 96.3143 3.38455 96.2518 3.67621 96.2559C3.60538 96.1476 3.74287 96.0059 3.28037 95.9226L3.35954 95.9309C3.04704 95.8809 3.31372 95.8809 3.15955 95.8309C3.19705 95.8309 3.21788 95.8309 3.23455 95.8309C2.92621 95.7767 3.19289 95.706 3.05955 95.6643H3.2512L3.20955 95.5851L3.16787 95.6142C2.6387 95.5809 3.50122 95.5643 3.16372 95.4893C3.23455 95.4351 2.06789 95.3185 2.33039 95.2685C2.08455 95.2268 2.73453 95.3143 2.54287 95.2601C2.81787 95.2726 2.7137 95.2892 2.93453 95.2892C2.80537 95.2392 3.22205 95.2351 3.03455 95.1726L3.2512 95.1809C2.85954 95.0934 3.54287 95.0726 3.16787 95.0059C2.99287 94.9268 3.80955 94.9976 3.39288 94.9018L3.68455 94.8934C3.73455 94.8642 3.33038 94.8476 3.47205 94.8226C3.65538 94.8351 3.62203 94.7893 3.79287 94.8226C4.08453 94.7643 3.39705 94.6392 3.88872 94.5726C3.53455 94.5267 3.7512 94.4892 3.48454 94.4559C3.6387 94.4642 3.51787 94.356 3.85121 94.4393C3.88037 94.4476 3.87205 94.456 3.81372 94.4476L4.0262 94.4684C4.43036 94.4434 3.81371 94.3476 3.88037 94.2976C3.80954 94.3101 3.82622 94.3309 3.68038 94.3059L3.7137 94.2559L3.89289 94.2809L4.0012 94.2101L3.78038 94.2018C3.89705 94.1726 4.27205 94.1893 3.96371 94.1226C3.79288 94.0893 3.66371 94.1351 3.59704 94.0893C3.75121 94.0518 3.98453 93.9934 4.05537 93.9351C3.80537 93.9184 3.81787 93.9018 3.76787 93.8809L3.98454 93.8976C3.69287 93.8018 4.45955 93.9142 4.23039 93.8267L4.38038 93.8476L3.93454 93.7893C3.51371 93.6893 4.38455 93.7976 3.80955 93.6726C3.84288 93.7018 3.33453 93.6393 3.43037 93.6143L3.6387 93.6434C3.59703 93.6226 3.50955 93.606 3.55539 93.5976C3.66789 93.6185 3.85537 93.631 3.82204 93.5976L4.08037 93.6392L3.70538 93.5518C3.93038 93.5351 3.65953 93.4434 3.9512 93.4559C3.9512 93.4559 4.10122 93.3851 3.78455 93.3309C3.98038 93.3684 4.0637 93.3309 4.29287 93.3684C4.07204 93.3226 3.89287 93.2393 4.13454 93.2393L4.15953 93.2476C4.4137 93.1768 3.84288 93.0476 4.15122 92.9934C3.90122 92.9684 4.04287 92.9392 3.72204 92.9142C3.41787 92.7851 4.38871 92.8268 3.40954 92.6768C3.35954 92.631 3.64704 92.6559 3.69704 92.6393L3.74704 92.656C3.67621 92.5685 3.66787 92.5434 3.69704 92.4892C3.60537 92.4476 3.14705 92.3893 3.26372 92.3476C3.44288 92.3851 3.41371 92.3601 3.41371 92.3435C3.43871 92.3601 3.50538 92.3726 3.63038 92.3601C3.57622 92.3476 3.54287 92.3393 3.51371 92.331C3.52621 92.331 3.5387 92.331 3.55953 92.3351C3.5012 92.2935 3.44288 92.2934 3.41371 92.3059C3.38454 92.3018 3.3512 92.2976 3.3012 92.2976C3.5387 92.2976 3.3012 92.2018 3.60953 92.2393C3.5512 92.1351 3.23871 92.0226 3.12621 91.9226C3.28871 91.9351 3.4262 91.9726 3.48454 92.0059L3.43454 91.9393C3.66371 91.9726 3.56372 91.9893 3.60539 92.0143C3.98872 91.9976 3.25539 91.8226 3.60539 91.7893L3.4262 91.7476H3.45537C3.35953 91.7351 3.23037 91.6976 3.20121 91.6809C3.40121 91.6976 3.66372 91.7476 3.65538 91.706C3.85122 91.706 3.57205 91.6017 3.46788 91.5476C3.43038 91.5642 3.32204 91.5393 3.2512 91.5226C3.2512 91.5018 3.45121 91.5226 3.36371 91.4934L3.63453 91.531C3.38036 91.5018 3.36788 91.4393 3.25955 91.4143C3.45955 91.431 3.42622 91.4726 3.57622 91.4976C3.56372 91.4143 3.56789 91.4559 3.55539 91.3726C3.35955 91.2976 3.29703 91.3434 3.0637 91.2851C3.01787 91.2393 2.83455 91.1726 3.00121 91.1559L2.75954 91.1309C2.58454 91.0309 2.61788 90.9935 2.86788 90.981C1.93454 90.5601 1.27622 90.4143 0.847055 90.3851C0.417888 90.3559 0.222055 90.4393 0.222055 90.4393C-0.344612 90.5768 0.334531 90.806 0.484531 91.0935H0.505385Z" fill="#20BB65"/>
</svg>
